<svg width="94" height="34" viewBox="0 0 94 34" fill="none" xmlns="http://www.w3.org/2000/svg">
<rect x="1" y="1" width="92" height="32" rx="16" stroke="#D0D0D5"/>
<path d="M30.5002 16.5492L22.5002 11.25L22.5002 14.25C15.5 15.75 15.5 22.75 15.5 22.75C15.5 22.75 18.5 18.75 22.5002 19.25L22.5002 22.35L30.5002 16.5492Z" stroke="black" stroke-width="1.66667" stroke-linejoin="round"/>
<path d="M47.5376 14.6172C47.4912 14.183 47.2957 13.8449 46.951 13.603C46.6096 13.361 46.1655 13.2401 45.6186 13.2401C45.2341 13.2401 44.9044 13.2981 44.6293 13.4141C44.3542 13.5301 44.1437 13.6875 43.9979 13.8864C43.852 14.0852 43.7775 14.3123 43.7741 14.5675C43.7741 14.7796 43.8222 14.9635 43.9183 15.1193C44.0178 15.2751 44.152 15.4077 44.321 15.517C44.4901 15.6231 44.6773 15.7126 44.8828 15.7855C45.0883 15.8584 45.2955 15.9197 45.5043 15.9695L46.4588 16.2081C46.8433 16.2976 47.2128 16.4186 47.5675 16.571C47.9254 16.7235 48.2453 16.9157 48.527 17.1477C48.812 17.3797 49.0374 17.6598 49.2031 17.9879C49.3688 18.3161 49.4517 18.7005 49.4517 19.1413C49.4517 19.7379 49.2992 20.2633 48.9943 20.7173C48.6894 21.1681 48.2486 21.5211 47.6719 21.7763C47.0985 22.0282 46.4041 22.1541 45.5888 22.1541C44.7966 22.1541 44.1089 22.0315 43.5256 21.7862C42.9455 21.541 42.4915 21.183 42.1634 20.7124C41.8385 20.2417 41.6629 19.6683 41.6364 18.9922H43.451C43.4775 19.3468 43.5869 19.6418 43.7791 19.8771C43.9714 20.1125 44.2216 20.2881 44.5298 20.4041C44.8414 20.5201 45.1894 20.5781 45.5739 20.5781C45.9749 20.5781 46.3262 20.5185 46.6278 20.3991C46.9328 20.2765 47.1714 20.1075 47.3438 19.892C47.5161 19.6733 47.6039 19.4181 47.6072 19.1264C47.6039 18.8613 47.526 18.6425 47.3736 18.4702C47.2211 18.2945 47.0073 18.1487 46.7322 18.0327C46.4605 17.9134 46.1423 17.8073 45.7777 17.7145L44.6193 17.4162C43.7808 17.2008 43.1179 16.8743 42.6307 16.4368C42.1468 15.996 41.9048 15.411 41.9048 14.6818C41.9048 14.0819 42.0672 13.5566 42.392 13.1058C42.7202 12.6551 43.166 12.3054 43.7294 12.0568C44.2929 11.8049 44.9309 11.679 45.6435 11.679C46.366 11.679 46.9991 11.8049 47.5426 12.0568C48.0895 12.3054 48.5187 12.6518 48.8303 13.0959C49.1418 13.5367 49.3026 14.0438 49.3125 14.6172H47.5376ZM52.8162 17.5256V22H51.0165V11.8182H52.7765V15.6612H52.8659C53.0449 15.2304 53.3217 14.8906 53.6962 14.642C54.074 14.3902 54.5546 14.2642 55.138 14.2642C55.6683 14.2642 56.1306 14.3752 56.525 14.5973C56.9194 14.8194 57.2244 15.1442 57.4398 15.5717C57.6586 15.9993 57.7679 16.5213 57.7679 17.1378V22H55.9682V17.4162C55.9682 16.9025 55.8356 16.5031 55.5705 16.218C55.3087 15.9297 54.9408 15.7855 54.4668 15.7855C54.1486 15.7855 53.8636 15.8551 53.6117 15.9943C53.3631 16.1302 53.1676 16.3274 53.025 16.5859C52.8858 16.8445 52.8162 17.1577 52.8162 17.5256ZM61.7999 22.1541C61.316 22.1541 60.8801 22.0679 60.4924 21.8956C60.1079 21.7199 59.803 21.4614 59.5776 21.12C59.3555 20.7786 59.2445 20.3577 59.2445 19.8572C59.2445 19.4264 59.324 19.0701 59.4831 18.7884C59.6422 18.5066 59.8593 18.2812 60.1344 18.1122C60.4095 17.9432 60.7194 17.8156 61.0641 17.7294C61.4121 17.6399 61.7717 17.5753 62.1429 17.5355C62.5904 17.4891 62.9533 17.4477 63.2317 17.4112C63.5101 17.3714 63.7123 17.3118 63.8382 17.2322C63.9675 17.1494 64.0321 17.0218 64.0321 16.8494V16.8196C64.0321 16.4451 63.9211 16.1551 63.699 15.9496C63.477 15.7441 63.1571 15.6413 62.7395 15.6413C62.2987 15.6413 61.949 15.7375 61.6905 15.9297C61.4353 16.1219 61.263 16.349 61.1735 16.6108L59.4931 16.3722C59.6257 15.9081 59.8444 15.5204 60.1493 15.2088C60.4542 14.8939 60.8271 14.6586 61.2679 14.5028C61.7087 14.3438 62.196 14.2642 62.7296 14.2642C63.0975 14.2642 63.4637 14.3073 63.8283 14.3935C64.1929 14.4796 64.526 14.6222 64.8276 14.821C65.1292 15.0166 65.3712 15.2834 65.5534 15.6214C65.7391 15.9595 65.8319 16.3821 65.8319 16.8892V22H64.1017V20.951H64.0421C63.9327 21.1631 63.7786 21.362 63.5797 21.5476C63.3842 21.7299 63.1373 21.8774 62.839 21.9901C62.544 22.0994 62.1976 22.1541 61.7999 22.1541ZM62.2672 20.8317C62.6285 20.8317 62.9417 20.7604 63.2069 20.6179C63.472 20.4721 63.6758 20.2798 63.8184 20.0412C63.9642 19.8026 64.0371 19.5424 64.0371 19.2607V18.3608C63.9808 18.4072 63.8846 18.4503 63.7488 18.4901C63.6162 18.5298 63.467 18.5646 63.3013 18.5945C63.1356 18.6243 62.9715 18.6508 62.8091 18.674C62.6467 18.6972 62.5059 18.7171 62.3865 18.7337C62.1181 18.7701 61.8778 18.8298 61.6657 18.9126C61.4535 18.9955 61.2862 19.1115 61.1635 19.2607C61.0409 19.4065 60.9796 19.5954 60.9796 19.8274C60.9796 20.1589 61.1006 20.4091 61.3425 20.5781C61.5845 20.7472 61.8927 20.8317 62.2672 20.8317ZM67.6415 22V14.3636H69.3865V15.6364H69.4661C69.6053 15.1955 69.8439 14.8558 70.182 14.6172C70.5234 14.3752 70.9128 14.2543 71.3503 14.2543C71.4498 14.2543 71.5608 14.2592 71.6834 14.2692C71.8094 14.2758 71.9138 14.2874 71.9966 14.304V15.9595C71.9204 15.933 71.7994 15.9098 71.6337 15.8899C71.4713 15.8667 71.3139 15.8551 71.1614 15.8551C70.8333 15.8551 70.5383 15.9264 70.2765 16.0689C70.0179 16.2081 69.8141 16.402 69.665 16.6506C69.5158 16.8991 69.4412 17.1858 69.4412 17.5107V22H67.6415ZM76.2585 22.1491C75.4929 22.1491 74.8317 21.9901 74.2749 21.6719C73.7214 21.3504 73.2955 20.8963 72.9972 20.3097C72.6989 19.7197 72.5497 19.0253 72.5497 18.2266C72.5497 17.4411 72.6989 16.7517 72.9972 16.1584C73.2988 15.5618 73.7197 15.0978 74.2599 14.7663C74.8002 14.4316 75.4349 14.2642 76.1641 14.2642C76.6347 14.2642 77.0788 14.3404 77.4964 14.4929C77.9174 14.642 78.2886 14.8741 78.6101 15.1889C78.9349 15.5038 79.1901 15.9048 79.3757 16.392C79.5613 16.8759 79.6541 17.4527 79.6541 18.1222V18.674H73.3949V17.4609H77.929C77.9257 17.1162 77.8511 16.8097 77.7053 16.5412C77.5594 16.2694 77.3556 16.0556 77.0938 15.8999C76.8352 15.7441 76.5336 15.6662 76.1889 15.6662C75.821 15.6662 75.4979 15.7557 75.2195 15.9347C74.9411 16.1103 74.724 16.3423 74.5682 16.6307C74.4157 16.9157 74.3378 17.2289 74.3345 17.5703V18.6293C74.3345 19.0734 74.4157 19.4545 74.5781 19.7727C74.7405 20.0876 74.9676 20.3295 75.2592 20.4986C75.5509 20.6643 75.8923 20.7472 76.2834 20.7472C76.5452 20.7472 76.7822 20.7107 76.9943 20.6378C77.2064 20.5616 77.3904 20.4505 77.5462 20.3047C77.7019 20.1589 77.8196 19.9782 77.8991 19.7628L79.5795 19.9517C79.4735 20.3958 79.2713 20.7836 78.973 21.1151C78.678 21.4432 78.3002 21.6984 77.8395 21.8807C77.3788 22.0597 76.8518 22.1491 76.2585 22.1491Z" fill="#1D1D1F"/>
</svg>
