<svg width="103" height="29" viewBox="0 0 103 29" fill="none" xmlns="http://www.w3.org/2000/svg">
<path d="M73.2593 25.7979C72.2352 25.8657 71.0627 25.7543 69.742 25.4638C68.4435 25.1928 67.0866 24.8312 65.6712 24.379C64.2766 23.9255 62.9226 23.4482 61.6089 22.9473C60.2966 22.4673 59.125 22.0515 58.0941 21.6998C57.2213 22.7862 56.1904 23.7046 55.0015 24.455C53.814 25.2263 52.4259 25.6645 50.8375 25.7695C49.3117 25.8704 48.1525 25.6427 47.36 25.0864C46.5675 24.53 46.1456 23.8652 46.0945 23.0918C46.0585 22.5484 46.2121 22.0134 46.5551 21.4869C46.9177 20.9381 47.4746 20.4709 48.2258 20.0854C48.977 19.6998 49.9274 19.469 51.077 19.393C52.2683 19.3142 53.4067 19.3858 54.492 19.6079C55.5759 19.8091 56.6431 20.0744 57.6935 20.4038C58.1927 19.699 58.6564 18.9336 59.0845 18.1076C59.5114 17.2606 59.9166 16.4046 60.3002 15.5396C59.6146 15.6479 58.9165 15.7256 58.2059 15.7726C56.7428 15.8693 55.2275 15.8121 53.6601 15.6009C52.3672 15.4135 51.3635 14.9971 50.649 14.3516C49.9541 13.6838 49.5797 12.9423 49.5258 12.1272C49.4622 11.1657 49.8507 10.2164 50.6914 9.27909C51.5307 8.32089 52.8589 7.61376 54.6761 7.15769L54.8015 7.14939C54.9687 7.13833 55.1087 7.19205 55.2215 7.31054C55.3538 7.40676 55.4248 7.52801 55.4345 7.67432C55.4525 7.94604 55.3068 8.12361 54.9974 8.20705C53.4074 8.60612 52.2785 9.15312 51.6107 9.84805C50.9625 10.5207 50.6604 11.1914 50.7047 11.8603C50.7475 12.5082 51.0482 13.0866 51.6067 13.5955C52.1847 14.0821 52.9286 14.3792 53.8384 14.487C55.3431 14.7024 56.7956 14.7637 58.196 14.6711C59.0947 14.6117 59.958 14.4916 60.7857 14.3109C61.2713 13.0822 61.747 11.8646 62.213 10.6582C62.679 9.45184 63.161 8.32835 63.659 7.28777C64.1765 6.22491 64.7461 5.31604 65.368 4.56117C66.0302 3.78262 66.6952 3.20333 67.3628 2.8233C68.0304 2.44326 68.6568 2.23388 69.242 2.19518C70.1199 2.13711 70.861 2.39248 71.4654 2.96129C72.0894 3.50781 72.4318 4.24089 72.4926 5.16054C72.5354 5.80847 72.4139 6.50926 72.1278 7.26292C71.8418 8.01658 71.3579 8.79382 70.6761 9.59464C69.4297 11.0626 68.0399 12.2671 66.5067 13.2082C64.9931 14.1271 63.3792 14.8006 61.6652 15.2289C61.5396 15.552 61.4133 15.8648 61.2864 16.1671C61.1789 16.4471 61.061 16.7278 60.9327 17.0092C60.6384 17.6374 60.3134 18.2782 59.9578 18.9315C59.6007 19.5639 59.2117 20.1879 58.7905 20.8036C59.501 21.0715 60.2122 21.3498 60.924 21.6386C61.6554 21.9051 62.3965 22.1605 63.1474 22.4047C63.7047 22.5778 64.4019 22.8046 65.2392 23.0851C66.0765 23.3656 66.966 23.6426 67.9077 23.9162C68.8704 24.1884 69.808 24.3993 70.7206 24.5489C71.6554 24.7179 72.4782 24.779 73.1888 24.732C73.5232 24.7099 73.8138 24.6591 74.0604 24.5799C74.1022 24.5771 74.1329 24.5646 74.1524 24.5423C74.1733 24.5409 74.1942 24.5395 74.2151 24.5381C74.3823 24.5271 74.5119 24.5815 74.6038 24.7014C74.7166 24.8198 74.7778 24.9523 74.7875 25.0986C74.8055 25.3703 74.6702 25.5472 74.3818 25.6292C74.0515 25.714 73.6773 25.7703 73.2593 25.7979ZM66.2642 5.25761C65.6814 5.96792 65.1494 6.81132 64.6682 7.78781C64.1856 8.7434 63.7385 9.75962 63.3269 10.8365C62.9139 11.8924 62.5212 12.9365 62.1486 13.9688C63.5882 13.5167 64.9526 12.8807 66.2419 12.0607C67.5298 11.2197 68.7098 10.176 69.7819 8.92954C70.3661 8.24014 70.774 7.58338 71.0056 6.95928C71.2359 6.31428 71.3344 5.74096 71.3012 5.23934C71.2611 4.63321 71.051 4.15378 70.6708 3.80107C70.3101 3.42607 69.8476 3.25723 69.2833 3.29456C68.8443 3.32359 68.3628 3.50238 67.8388 3.83094C67.3342 4.13722 66.8094 4.61277 66.2642 5.25761ZM47.2545 23.0151C47.2863 23.4958 47.5864 23.9063 48.1547 24.2466C48.7453 24.6064 49.6153 24.7483 50.7649 24.6722C52.1026 24.5837 53.2759 24.2332 54.2851 23.6207C55.3164 23.0276 56.2211 22.2646 56.9991 21.3314L56.9678 21.3335C56.0246 21.039 55.0647 20.8086 54.088 20.6423C53.11 20.4551 52.1298 20.3939 51.1475 20.4589C49.8307 20.546 48.8434 20.8527 48.1854 21.3791C47.5275 21.9054 47.2172 22.4508 47.2545 23.0151Z" fill="#DC1111"/>
<path d="M58.0941 21.6998C59.125 22.0515 60.2966 22.4673 61.6089 22.9473C62.9226 23.4482 64.2766 23.9255 65.6712 24.379C67.0866 24.8312 68.4435 25.1928 69.742 25.4638C71.0421 25.7497 72.1985 25.8621 73.2112 25.801L73.2593 25.7979C73.6643 25.7711 74.0281 25.7175 74.3507 25.6371L74.3818 25.6292C74.6657 25.5484 74.8012 25.3758 74.7882 25.1112L74.7875 25.0986C74.7778 24.9523 74.7166 24.8198 74.6038 24.7014C74.5119 24.5815 74.3823 24.5271 74.2151 24.5381L74.1979 24.2769C74.4362 24.2611 74.6509 24.3409 74.8022 24.5302C74.9468 24.6857 75.0349 24.8709 75.0488 25.0813C75.061 25.2657 75.0218 25.4446 74.9075 25.5941C74.7955 25.7406 74.6333 25.8299 74.4534 25.8811L74.4502 25.882L74.4469 25.8828C74.0979 25.9725 73.7073 26.0307 73.2766 26.0592C72.2217 26.129 71.0239 26.0138 69.6866 25.7197C68.3789 25.4467 67.0138 25.0828 65.5915 24.6284L65.5902 24.628C64.1922 24.1733 62.8345 23.6948 61.517 23.1925C60.2795 22.7398 59.1677 22.3446 58.1818 22.0066C57.3165 23.0528 56.3037 23.9423 55.1441 24.6746L55.0863 24.7117C53.8698 25.4871 52.4568 25.9248 50.8548 26.0308C49.3018 26.1335 48.0722 25.9063 47.2096 25.3007C46.3699 24.7112 45.8909 23.9808 45.8332 23.1091C45.793 22.5007 45.9667 21.9103 46.3357 21.344L46.3367 21.3426C46.7301 20.747 47.3261 20.2528 48.1062 19.8524C48.8986 19.4457 49.8867 19.2093 51.0597 19.1317C52.2716 19.0515 53.4326 19.1241 54.5418 19.3509C55.5723 19.5422 56.5879 19.791 57.5885 20.0972C58.0387 19.4465 58.4598 18.7438 58.8512 17.9887C59.2043 17.288 59.5425 16.5811 59.8659 15.868C59.3257 15.9418 58.7781 15.9971 58.2231 16.0338C56.7413 16.1318 55.2086 16.0737 53.6252 15.8604L53.6239 15.8602L53.6226 15.86C52.2961 15.6678 51.238 15.2366 50.4735 14.5459L50.4705 14.5432L50.4676 14.5404C49.7346 13.836 49.3235 13.0362 49.2645 12.1445C49.195 11.0929 49.6238 10.0772 50.4965 9.10425C51.3839 8.09242 52.768 7.36663 54.6124 6.90374L54.6353 6.898L54.7842 6.88814L54.8015 7.14939L54.6761 7.15769C52.8589 7.61376 51.5307 8.32089 50.6914 9.27909C49.8507 10.2164 49.4622 11.1657 49.5258 12.1272L49.5285 12.1653C49.5915 12.9655 49.965 13.6942 50.649 14.3516C51.3635 14.9971 52.3672 15.4135 53.6601 15.6009C55.2275 15.8121 56.7428 15.8693 58.2059 15.7726C58.9165 15.7256 59.6146 15.6479 60.3002 15.5396C59.9166 16.4046 59.5114 17.2606 59.0845 18.1076C58.6564 18.9336 58.1927 19.699 57.6935 20.4038C56.6431 20.0744 55.5759 19.8091 54.492 19.6079C53.4236 19.3893 52.3039 19.3164 51.1328 19.3894L51.077 19.393C49.9274 19.469 48.977 19.6998 48.2258 20.0854C47.4746 20.4709 46.9177 20.9381 46.5551 21.4869C46.2121 22.0134 46.0585 22.5484 46.0945 23.0918C46.1456 23.8652 46.5675 24.53 47.36 25.0864C48.1525 25.6427 49.3117 25.8704 50.8375 25.7695C52.4259 25.6645 53.814 25.2263 55.0015 24.455C56.1904 23.7046 57.2213 22.7862 58.0941 21.6998ZM72.4926 5.16054C72.4318 4.24089 72.0894 3.50781 71.4654 2.96129C70.861 2.39248 70.1199 2.13711 69.242 2.19518C68.6568 2.23388 68.0304 2.44326 67.3628 2.8233L67.3315 2.84126C66.6744 3.22149 66.0199 3.79479 65.368 4.56117C64.7461 5.31604 64.1765 6.22491 63.659 7.28777C63.161 8.32835 62.679 9.45184 62.213 10.6582C61.747 11.8646 61.2713 13.0822 60.7857 14.3109C59.958 14.4916 59.0947 14.6117 58.196 14.6711L58.1787 14.4098C59.016 14.3544 59.8209 14.2458 60.5937 14.0841C61.0611 12.9003 61.5195 11.7269 61.9688 10.5639C62.437 9.35191 62.9216 8.22213 63.4228 7.17475L63.4236 7.17316C63.9483 6.09548 64.5286 5.16839 65.1659 4.3947L65.1672 4.39311L65.1685 4.39153C65.8444 3.59698 66.532 2.99494 67.2332 2.59576L67.298 2.55931C67.9665 2.188 68.6096 1.9746 69.2248 1.93391C70.1687 1.87148 70.9813 2.14782 71.6415 2.76749C72.3214 3.36472 72.6891 4.16448 72.7539 5.14326C72.7997 5.83659 72.6688 6.5753 72.3726 7.35583C72.0733 8.14449 71.5712 8.94711 70.8757 9.76409C69.6126 11.2516 68.202 12.4748 66.6437 13.4314L66.6431 13.4317L66.6426 13.432C65.1453 14.341 63.5508 15.0135 61.8601 15.4495C61.7504 15.7291 61.6401 16.0009 61.5292 16.265C61.4202 16.5488 61.3008 16.8331 61.1709 17.1178L61.1698 17.1203C60.8731 17.7536 60.5457 18.3991 60.1877 19.0567L60.1868 19.0585L60.1858 19.0602C59.8781 19.6051 59.5469 20.1437 59.1925 20.6759C59.8004 20.9077 60.4088 21.147 61.0176 21.394C61.7442 21.6587 62.4806 21.9125 63.2267 22.1552C63.7862 22.3289 64.4849 22.5562 65.3224 22.8368C66.1554 23.1159 67.0409 23.3917 67.979 23.6642C68.9031 23.9255 69.8029 24.1295 70.6783 24.2764L70.763 24.2905L70.7651 24.2908L70.7672 24.2912C71.6875 24.4576 72.488 24.5159 73.1716 24.4707L73.1888 24.732L73.1219 24.7361C72.4267 24.7751 71.6262 24.7126 70.7206 24.5489C69.8365 24.404 68.929 24.2015 67.9979 23.9415L67.9077 23.9162C66.966 23.6426 66.0765 23.3656 65.2392 23.0851C64.4019 22.8046 63.7047 22.5778 63.1474 22.4047C62.3965 22.1605 61.6554 21.9051 60.924 21.6386C60.2122 21.3498 59.501 21.0715 58.7905 20.8036C59.1853 20.2264 59.552 19.6419 59.8904 19.05L59.9578 18.9315C60.3134 18.2782 60.6384 17.6374 60.9327 17.0092C61.061 16.7278 61.1789 16.4471 61.2864 16.1671C61.4133 15.8648 61.5396 15.552 61.6652 15.2289C63.3792 14.8006 64.9931 14.1271 66.5067 13.2082C68.0399 12.2671 69.4297 11.0626 70.6761 9.59464C71.3472 8.80633 71.8266 8.04087 72.1143 7.29827L72.1278 7.26292C72.4094 6.52103 72.5316 5.83038 72.4945 5.19094L72.4926 5.16054ZM74.1979 24.2769L74.2151 24.5381L74.1524 24.5423C74.1329 24.5646 74.1022 24.5771 74.0604 24.5799L74.0372 24.5872C73.7956 24.6623 73.5128 24.7105 73.1888 24.732L73.1716 24.4707C73.4905 24.4496 73.759 24.4017 73.9803 24.3306L73.9935 24.3263L74.0392 24.3123L74.1979 24.2769ZM47.2545 23.0151C47.2172 22.4508 47.5275 21.9054 48.1854 21.3791C48.8434 20.8527 49.8307 20.546 51.1475 20.4589L51.2396 20.4532C52.1911 20.3979 53.1406 20.4609 54.088 20.6423C55.0647 20.8086 56.0246 21.039 56.9678 21.3335L56.9991 21.3314C56.2211 22.2646 55.3164 23.0276 54.2851 23.6207C53.2759 24.2332 52.1026 24.5837 50.7649 24.6722L50.7476 24.411C52.0491 24.3249 53.1806 23.9848 54.1492 23.3969L54.1519 23.3952L54.1545 23.3937C55.0419 22.8835 55.833 22.2439 56.5286 21.4741C55.713 21.2348 54.8849 21.0436 54.0441 20.9004L54.0415 20.8999L54.0388 20.8995C53.0824 20.7164 52.1246 20.6567 51.1648 20.7202C49.8734 20.8056 48.9475 21.1047 48.349 21.5835C47.7234 22.084 47.4865 22.5551 47.5158 22.9978C47.5395 23.3572 47.7575 23.697 48.2648 24.0072L48.2892 24.022L48.2909 24.023C48.8138 24.3415 49.6195 24.4856 50.7476 24.411L50.7649 24.6722C49.6333 24.7471 48.7725 24.6108 48.1826 24.2633L48.1547 24.2466C47.5952 23.9116 47.2957 23.5086 47.2562 23.0376L47.2545 23.0151ZM50.7047 11.8603C50.6611 11.2019 50.9531 10.5417 51.5806 9.87958L51.6107 9.84805C52.2681 9.16398 53.3722 8.62326 54.9232 8.22588L54.9974 8.20705C55.3068 8.12361 55.4525 7.94604 55.4345 7.67432C55.4248 7.52801 55.3538 7.40676 55.2215 7.31054C55.1122 7.19576 54.9774 7.14176 54.8171 7.14855L54.8015 7.14939L54.7842 6.88814C55.0188 6.87263 55.2289 6.94839 55.3943 7.11281C55.5703 7.2476 55.6809 7.43154 55.6958 7.65704C55.7083 7.84617 55.6638 8.02784 55.5412 8.17737C55.4224 8.32208 55.2528 8.40938 55.0656 8.45986L55.0634 8.46046L55.0612 8.46102C53.4892 8.85555 52.417 9.38693 51.7995 10.0295C51.1817 10.6706 50.9283 11.2731 50.9659 11.843C51.0035 12.411 51.2645 12.9281 51.7792 13.3985C52.3099 13.8438 53.0014 14.1242 53.8692 14.227L53.8723 14.2274L53.8755 14.2278C55.3636 14.4408 56.7979 14.5012 58.1787 14.4098L58.196 14.6711L58.1303 14.6753C56.7502 14.7618 55.3196 14.699 53.8384 14.487C52.9286 14.3792 52.1847 14.0821 51.6067 13.5955C51.0482 13.0866 50.7475 12.5082 50.7047 11.8603ZM71.04 5.25662C71.0035 4.70499 70.8156 4.29257 70.4927 3.99301L70.4872 3.98794L70.4821 3.98257C70.18 3.66851 69.7954 3.52309 69.3005 3.55582C68.9188 3.58107 68.4793 3.73842 67.9779 4.05278L67.9763 4.05378L67.9746 4.05476C67.5027 4.34126 66.9991 4.79409 66.4656 5.42494C65.898 6.11697 65.3767 6.9424 64.9031 7.90355L64.9025 7.90471L64.902 7.90585C64.4237 8.85287 63.9801 9.86084 63.5715 10.93L63.5711 10.9309L63.5708 10.9319C63.2262 11.8129 62.8957 12.6857 62.5794 13.5501C63.8101 13.1203 64.9838 12.5504 66.1007 11.8401C67.3654 11.0141 68.5261 9.98791 69.5824 8.76001C70.1527 8.08694 70.5413 7.45696 70.7594 6.8702C70.9814 6.24788 71.0701 5.71182 71.04 5.25662ZM71.3027 5.2629C71.3313 5.75889 71.2323 6.32435 71.0056 6.95928C70.774 7.58338 70.3661 8.24014 69.7819 8.92954C68.7098 10.176 67.5298 11.2197 66.2419 12.0607C64.9526 12.8807 63.5882 13.5167 62.1486 13.9688C62.4979 13.0011 62.8649 12.0229 63.2497 11.0343L63.3269 10.8365C63.7257 9.79328 64.1577 8.80698 64.6231 7.87758L64.6682 7.78781C65.1494 6.81132 65.6814 5.96792 66.2642 5.25761C66.7923 4.63293 67.3014 4.16711 67.7914 3.86016L67.8388 3.83094C68.3628 3.50238 68.8443 3.32359 69.2833 3.29456C69.8476 3.25723 70.3101 3.42607 70.6708 3.80107C71.051 4.15378 71.2611 4.63321 71.3012 5.23934L71.3027 5.2629Z" fill="#DC1111"/>
<path d="M27.1343 14.7302C26.883 14.7302 26.6525 14.6464 26.4431 14.4788C26.2546 14.2903 26.1603 14.0599 26.1603 13.7876C26.1603 13.4943 26.2546 13.2534 26.4431 13.0649C26.6316 12.8764 26.862 12.7821 27.1343 12.7821C27.4276 12.7821 27.6685 12.8764 27.857 13.0649C28.0455 13.2534 28.1398 13.4943 28.1398 13.7876C28.1398 14.0599 28.035 14.2903 27.8256 14.4788C27.637 14.6464 27.4066 14.7302 27.1343 14.7302ZM22.4841 24.1562C22.2118 24.1562 21.9919 24.0829 21.8243 23.9362C21.6568 23.7687 21.573 23.5068 21.573 23.1507C21.573 22.7109 21.6777 22.1767 21.8872 21.5483C22.0966 20.899 22.3689 20.2391 22.7041 19.5689C23.0392 18.8776 23.3953 18.2492 23.7724 17.6836C24.1704 17.0971 24.5474 16.6363 24.9035 16.3012C25.0501 16.1545 25.2282 16.0812 25.4376 16.0812C25.6052 16.0812 25.7518 16.1231 25.8775 16.2069C26.0032 16.2907 26.066 16.3954 26.066 16.5211C26.066 16.6258 26.0137 16.7306 25.9089 16.8353C25.7623 16.9819 25.5738 17.2228 25.3434 17.558C25.1339 17.8722 24.9244 18.2073 24.715 18.5634C24.5055 18.8986 24.3484 19.1813 24.2437 19.4118C24.0552 19.8097 23.8457 20.2601 23.6153 20.7628C23.3849 21.2655 23.2173 21.674 23.1125 21.9882C23.0497 22.1977 23.0183 22.3548 23.0183 22.4595C23.0183 22.6899 23.1021 22.8051 23.2696 22.8051C23.4163 22.8051 23.5838 22.7423 23.7724 22.6166C23.9609 22.47 24.1285 22.3443 24.2751 22.2396C24.7988 21.8206 25.2805 21.3807 25.7204 20.9199C26.1812 20.4381 26.6002 19.9878 26.9772 19.5689C27.061 19.4641 27.1657 19.4118 27.2914 19.4118C27.3962 19.4118 27.4904 19.4746 27.5742 19.6003C27.6789 19.705 27.7313 19.8412 27.7313 20.0087C27.7313 20.1973 27.6789 20.3544 27.5742 20.48C27.26 20.9199 26.8201 21.4122 26.2546 21.9568C25.7099 22.4804 25.2282 22.8994 24.8092 23.2136C24.5369 23.423 24.1704 23.6325 23.7095 23.842C23.2696 24.0515 22.8612 24.1562 22.4841 24.1562Z" fill="#DC1111"/>
<path d="M23.0183 22.4595C23.0183 22.3548 23.0497 22.1977 23.1125 21.9882C23.2173 21.674 23.3849 21.2655 23.6153 20.7628C23.8169 20.3229 24.0025 19.9232 24.172 19.5635L24.2437 19.4118C24.3484 19.1813 24.5055 18.8986 24.715 18.5634C24.9244 18.2073 25.1339 17.8722 25.3434 17.558C25.5738 17.2228 25.7623 16.9819 25.9089 16.8353C26.0137 16.7306 26.066 16.6258 26.066 16.5211C26.066 16.3994 26.0071 16.2973 25.8891 16.2148L25.8775 16.2069C25.7518 16.1231 25.6052 16.0812 25.4376 16.0812C25.2282 16.0812 25.0501 16.1545 24.9035 16.3012C24.5474 16.6363 24.1704 17.0971 23.7724 17.6836L23.7371 17.7369C23.3731 18.2886 23.0288 18.8992 22.7041 19.5689C22.3689 20.2391 22.0966 20.899 21.8872 21.5483C21.6777 22.1767 21.573 22.7109 21.573 23.1507C21.573 23.5068 21.6568 23.7687 21.8243 23.9362C21.9867 24.0783 22.1981 24.1515 22.4588 24.156L22.4841 24.1562C22.8612 24.1562 23.2696 24.0515 23.7095 23.842C24.1704 23.6325 24.5369 23.423 24.8092 23.2136C25.202 22.919 25.65 22.5324 26.1532 22.0537L26.2546 21.9568C26.8201 21.4122 27.26 20.9199 27.5742 20.48C27.6757 20.3583 27.728 20.207 27.7312 20.0263L27.7313 20.0087C27.7313 19.8412 27.6789 19.705 27.5742 19.6003C27.493 19.4785 27.402 19.4157 27.3012 19.4119L27.2914 19.4118C27.1657 19.4118 27.061 19.4641 26.9772 19.5689C26.6002 19.9878 26.1812 20.4381 25.7204 20.9199L25.6791 20.963C25.2504 21.4082 24.7824 21.8337 24.2751 22.2396C24.1285 22.3443 23.9609 22.47 23.7724 22.6166C23.5838 22.7423 23.4163 22.8051 23.2696 22.8051L23.2696 22.6218C23.3644 22.6218 23.4945 22.5806 23.6656 22.4674C23.8514 22.323 24.0177 22.1983 24.1643 22.0935C24.6805 21.6803 25.1549 21.2469 25.5878 20.7934C26.0465 20.3139 26.4633 19.8658 26.8382 19.4493C26.9537 19.3076 27.1081 19.2285 27.2914 19.2285C27.4756 19.2285 27.6157 19.3387 27.7167 19.4839C27.8515 19.6257 27.9146 19.8059 27.9146 20.0087C27.9146 20.2305 27.8528 20.4289 27.7199 20.5913C27.3972 21.0422 26.9501 21.5415 26.3817 22.0888C25.8338 22.6156 25.3461 23.04 24.9192 23.3602C24.6321 23.5807 24.2526 23.7965 23.7854 24.0088C23.3289 24.2258 22.8943 24.3395 22.4841 24.3395C22.1778 24.3395 21.9116 24.2562 21.7036 24.0742L21.699 24.0702L21.6947 24.0659C21.4788 23.85 21.3897 23.5313 21.3897 23.1507C21.3897 22.6839 21.5004 22.129 21.7133 21.4903C21.9257 20.8321 22.2014 20.1646 22.5398 19.4876C22.878 18.7903 23.2379 18.155 23.6199 17.582L23.6203 17.5813L23.6207 17.5807C24.0227 16.9884 24.4077 16.5163 24.7764 16.169C24.9574 15.9893 25.1813 15.8979 25.4376 15.8979C25.6373 15.8979 25.8202 15.9484 25.9792 16.0544C26.144 16.1643 26.2493 16.3212 26.2493 16.5211C26.2493 16.6916 26.1632 16.8402 26.0385 16.9649C25.9043 17.0991 25.7237 17.3283 25.4952 17.6606C25.288 17.9714 25.0806 18.3033 24.8729 18.6563L24.8717 18.6585L24.8704 18.6605C24.6631 18.9922 24.5106 19.2674 24.4105 19.4876L24.4093 19.4902C24.2212 19.8873 24.0121 20.337 23.7819 20.8392C23.5534 21.3378 23.3892 21.7385 23.2874 22.0433C23.2259 22.2487 23.2016 22.3834 23.2016 22.4595C23.2016 22.5579 23.2204 22.5987 23.2293 22.6109C23.2324 22.6151 23.2341 22.616 23.236 22.6169C23.239 22.6182 23.2486 22.6218 23.2696 22.6218L23.2696 22.8051C23.1073 22.8051 23.0236 22.697 23.0185 22.4808L23.0183 22.4595ZM28.1398 13.7876C28.1398 13.4943 28.0455 13.2534 27.857 13.0649C27.6744 12.8823 27.4426 12.7881 27.1617 12.7824L27.1343 12.7821C26.862 12.7821 26.6316 12.8764 26.4431 13.0649C26.2546 13.2534 26.1603 13.4943 26.1603 13.7876L26.1606 13.813C26.1663 14.0742 26.2604 14.2962 26.4431 14.4788C26.646 14.6411 26.8686 14.7248 27.1108 14.7299L27.1343 14.7302C27.4066 14.7302 27.637 14.6464 27.8256 14.4788C28.0285 14.2962 28.1331 14.0742 28.1394 13.813L28.1398 13.7876ZM28.323 13.7876C28.323 14.1139 28.1947 14.3931 27.9482 14.615L27.9478 14.6154L27.9473 14.6158C27.7225 14.8157 27.4476 14.9135 27.1343 14.9135C26.8384 14.9135 26.5682 14.8136 26.3286 14.6219L26.3206 14.6156L26.3135 14.6084C26.0898 14.3847 25.977 14.1073 25.977 13.7876C25.977 13.451 26.087 13.1618 26.3135 12.9353C26.5372 12.7116 26.8146 12.5988 27.1343 12.5988C27.4709 12.5988 27.7601 12.7088 27.9866 12.9353C28.2131 13.1618 28.323 13.451 28.323 13.7876Z" fill="#DC1111"/>
<path d="M25.5354 24.1617C25.3887 24.1617 25.2526 24.1094 25.1269 24.0046C25.0012 23.8999 24.9384 23.7742 24.9384 23.6276C24.9384 23.5857 24.9593 23.5019 25.0012 23.3762C25.4201 22.4755 25.8286 21.6586 26.2266 20.9255C26.6455 20.1714 27.0749 19.4382 27.5148 18.726C27.7033 18.4328 27.9128 18.0558 28.1432 17.5949C28.3946 17.1131 28.6355 16.6 28.8659 16.0553C29.0963 15.4898 29.2848 14.9556 29.4314 14.4529C29.599 13.9502 29.6828 13.5417 29.6828 13.2275C29.6828 13.06 29.6723 12.9448 29.6514 12.8819C29.6304 12.861 29.62 12.8191 29.62 12.7562C29.62 12.5887 29.6933 12.4525 29.8399 12.3478C30.0075 12.2221 30.1646 12.1592 30.3112 12.1592C30.4788 12.1592 30.6359 12.243 30.7825 12.4106C30.9291 12.5572 31.0024 12.8191 31.0024 13.1961C31.0024 13.5103 30.9291 13.9292 30.7825 14.4529C30.6568 14.9556 30.4369 15.5631 30.1227 16.2753C29.9551 16.6314 29.798 16.9665 29.6514 17.2807C29.5048 17.574 29.3581 17.8568 29.2115 18.1291C30.0284 17.2702 30.8663 16.5057 31.7251 15.8354C32.5839 15.1442 33.3485 14.5995 34.0188 14.2016C34.6891 13.8036 35.1394 13.6046 35.3698 13.6046C35.6212 13.6046 35.7992 13.6779 35.904 13.8245C36.0087 13.9711 36.0611 14.1387 36.0611 14.3272C36.0611 14.5995 35.9773 14.9137 35.8097 15.2698C35.6631 15.605 35.506 15.9087 35.3384 16.181C35.1708 16.4533 35.0556 16.6418 34.9928 16.7466C34.7624 17.1027 34.4482 17.6368 34.0502 18.349C33.6522 19.0612 33.3171 19.7524 33.0448 20.4227C32.961 20.6531 32.8772 20.894 32.7934 21.1454C32.7306 21.3758 32.6991 21.5748 32.6991 21.7424C32.6991 22.0147 32.8143 22.1508 33.0448 22.1508C33.2542 22.1508 33.5579 22.0461 33.9559 21.8366C34.4587 21.5643 34.9195 21.2187 35.3384 20.7998C35.7783 20.3599 36.1553 19.9829 36.4695 19.6686C36.4905 19.6477 36.5848 19.543 36.7523 19.3544C36.9408 19.1659 37.1189 18.9774 37.2865 18.7889C37.475 18.6004 37.5692 18.5061 37.5692 18.5061C37.653 18.4014 37.7578 18.349 37.8834 18.349C37.9882 18.349 38.0824 18.4118 38.1662 18.5375C38.271 18.6423 38.3233 18.7784 38.3233 18.946C38.3233 19.1345 38.271 19.2916 38.1662 19.4173C37.852 19.8572 37.4226 20.3389 36.878 20.8626C36.3334 21.3863 35.8516 21.8157 35.4327 22.1508C34.9928 22.486 34.5424 22.7583 34.0816 22.9678C33.6417 23.1563 33.2019 23.2505 32.762 23.2505C32.3849 23.2505 32.0707 23.1772 31.8194 23.0306C31.568 22.884 31.4423 22.4965 31.4423 21.8681C31.4423 21.0721 31.6413 20.2866 32.0393 19.5115C32.4582 18.7365 32.9191 17.972 33.4218 17.2179C33.9455 16.4638 34.3749 15.7516 34.71 15.0813C34.1864 15.3955 33.4846 15.8773 32.6049 16.5266C31.7461 17.176 30.8349 17.9405 29.8713 18.8203C28.9287 19.6791 28.0699 20.6217 27.2949 21.6481C27.1483 21.9204 26.9912 22.2137 26.8236 22.5279C26.656 22.8421 26.4884 23.1877 26.3209 23.5647C26.1323 23.9627 25.8705 24.1617 25.5354 24.1617Z" fill="#DC1111"/>
<path d="M38.3233 18.946C38.3233 18.7784 38.271 18.6423 38.1662 18.5375C38.0851 18.4158 37.9941 18.353 37.8932 18.3492L37.8834 18.349C37.7578 18.349 37.653 18.4014 37.5692 18.5061C37.5692 18.5061 37.475 18.6004 37.2865 18.7889L37.2231 18.8596C37.0742 19.0245 36.9173 19.1895 36.7523 19.3544L36.6404 19.4801C36.5422 19.5901 36.4853 19.6529 36.4695 19.6686L35.3384 20.7998L35.299 20.8388C34.8906 21.2402 34.4429 21.5728 33.9559 21.8366C33.5579 22.0461 33.2542 22.1508 33.0448 22.1508L33.0447 21.9675C33.206 21.9675 33.4753 21.8825 33.8706 21.6744C34.3564 21.411 34.8025 21.0765 35.2088 20.6702C35.6487 20.2303 36.0257 19.8533 36.3399 19.5391L36.3405 19.5385L36.342 19.5369C36.3433 19.5356 36.345 19.5338 36.3471 19.5315C36.3514 19.5269 36.357 19.5209 36.3639 19.5134C36.3778 19.4983 36.3963 19.4778 36.4197 19.4518C36.4665 19.3998 36.5316 19.3268 36.6153 19.2327L36.6189 19.2287L36.6227 19.2249C36.8088 19.0387 36.9844 18.8528 37.1495 18.6671L37.1531 18.6631L37.422 18.3942C37.4267 18.3894 37.4305 18.3856 37.4334 18.3828C37.5485 18.2435 37.7017 18.1657 37.8835 18.1657C38.0676 18.1657 38.2077 18.2759 38.3087 18.4211C38.4436 18.5629 38.5066 18.7431 38.5066 18.946C38.5066 19.1678 38.4448 19.3661 38.3119 19.5286C37.9895 19.9792 37.5529 20.4679 37.005 20.9947C36.4579 21.5208 35.9718 21.9543 35.5472 22.294L35.5455 22.2953L35.5438 22.2966C35.0939 22.6393 34.6319 22.919 34.1575 23.1346L34.1556 23.1354L34.1538 23.1362C33.6931 23.3337 33.2288 23.4338 32.762 23.4338C32.3619 23.4338 32.0135 23.356 31.727 23.1889C31.5493 23.0852 31.4334 22.906 31.3623 22.6865C31.2912 22.4674 31.2591 22.1922 31.2591 21.868C31.2591 21.0403 31.4663 20.2263 31.8763 19.4278L31.8772 19.4261L31.8781 19.4244C32.2998 18.6443 32.7635 17.8749 33.2693 17.1162L33.2703 17.1148L33.2712 17.1133C33.6344 16.5903 33.9511 16.0887 34.2217 15.6085C33.799 15.889 33.2969 16.2437 32.7149 16.6732C31.8616 17.3185 30.9549 18.0791 29.9949 18.9557C29.0641 19.8037 28.2156 20.7344 27.4495 21.7475C27.3049 22.016 27.1502 22.3049 26.9853 22.6141C26.8201 22.9239 26.6544 23.2655 26.4883 23.6392L26.4874 23.6412L26.4865 23.6432C26.279 24.0813 25.9644 24.345 25.5354 24.345C25.3408 24.345 25.1641 24.2742 25.0096 24.1454C24.8475 24.0104 24.7551 23.8353 24.7551 23.6276C24.7551 23.583 24.7651 23.5333 24.7763 23.4889C24.7883 23.4407 24.8056 23.3835 24.8273 23.3183L24.8306 23.3084L24.835 23.2989C25.2553 22.3954 25.6654 21.575 26.0655 20.838L26.0659 20.8372L26.0664 20.8364C26.4866 20.08 26.9175 19.3444 27.3589 18.6297L27.3598 18.6283L27.3606 18.6269C27.5444 18.3411 27.7506 17.9704 27.9793 17.513L27.98 17.5116L27.9807 17.5101C28.2296 17.0333 28.4683 16.5247 28.6969 15.9844C28.925 15.4244 29.111 14.8968 29.2555 14.4016L29.2565 14.3983L29.2576 14.395C29.4226 13.9 29.4995 13.5131 29.4995 13.2275C29.4995 13.0876 29.4916 13.0036 29.4829 12.9611C29.4661 12.9326 29.4561 12.9037 29.45 12.8792C29.4399 12.8388 29.4367 12.7965 29.4367 12.7562C29.4367 12.5256 29.5418 12.3367 29.7305 12.2007C29.9165 12.0614 30.1113 11.976 30.3112 11.976C30.5457 11.976 30.7479 12.0945 30.9164 12.2854C31.1133 12.4859 31.1857 12.8095 31.1857 13.1961C31.1857 13.5342 31.1076 13.9708 30.9598 14.4994C30.8306 15.0155 30.6065 15.6327 30.2904 16.3493L30.2895 16.3513L30.2885 16.3533C30.1533 16.6407 30.0249 16.9144 29.9033 17.1745C30.4628 16.6381 31.0322 16.1438 31.6113 15.6917C32.4739 14.9975 33.2454 14.4476 33.9252 14.044C34.2635 13.8431 34.5506 13.6898 34.7852 13.5862C35.0131 13.4855 35.2135 13.4213 35.3698 13.4213C35.6552 13.4213 35.9016 13.5058 36.0531 13.718C36.1811 13.8972 36.2444 14.1024 36.2444 14.3272C36.2444 14.6352 36.1502 14.9761 35.9765 15.3458C35.8273 15.6867 35.6667 15.9973 35.4945 16.2771C35.3269 16.5494 35.2122 16.7372 35.1499 16.8409L35.1484 16.8435L35.1467 16.8462C34.9196 17.1972 34.6077 17.7271 34.2102 18.4384C33.8161 19.1436 33.4848 19.8269 33.2159 20.4883C33.1337 20.7146 33.0513 20.9513 32.969 21.1983C32.9096 21.417 32.8824 21.5974 32.8824 21.7424C32.8824 21.8571 32.9073 21.9089 32.9255 21.9303C32.9386 21.9459 32.9666 21.9675 33.0447 21.9675L33.0448 22.1508C32.8216 22.1508 32.7065 22.0231 32.6995 21.7675L32.6991 21.7424C32.6991 21.5748 32.7306 21.3758 32.7934 21.1454C32.8772 20.894 32.961 20.6531 33.0448 20.4227C33.3086 19.7734 33.6313 19.1044 34.0131 18.4157L34.0502 18.349C34.4233 17.6813 34.7228 17.1701 34.9486 16.8154L34.9928 16.7466C35.0556 16.6418 35.1708 16.4533 35.3384 16.181C35.506 15.9087 35.6631 15.605 35.8097 15.2698C35.9773 14.9137 36.0611 14.5995 36.0611 14.3272C36.0611 14.1387 36.0087 13.9711 35.904 13.8245C35.8025 13.6825 35.6323 13.6092 35.3932 13.6048L35.3698 13.6046C35.1394 13.6046 34.6891 13.8036 34.0188 14.2016C33.3485 14.5995 32.5839 15.1442 31.7251 15.8354C30.8663 16.5057 30.0284 17.2702 29.2115 18.1291C29.3581 17.8568 29.5048 17.574 29.6514 17.2807C29.7614 17.0451 29.8772 16.7976 29.999 16.5384L30.1227 16.2753C30.4369 15.5631 30.6568 14.9556 30.7825 14.4529C30.9291 13.9292 31.0024 13.5103 31.0024 13.1961C31.0024 12.8191 30.9291 12.5572 30.7825 12.4106C30.6405 12.2483 30.4886 12.1646 30.3269 12.1595L30.3112 12.1592C30.1646 12.1592 30.0075 12.2221 29.8399 12.3478C29.6933 12.4525 29.62 12.5887 29.62 12.7562C29.62 12.8191 29.6304 12.861 29.6514 12.8819C29.6723 12.9448 29.6828 13.06 29.6828 13.2275L29.6826 13.2573C29.6775 13.5674 29.5938 13.9659 29.4314 14.4529C29.2848 14.9556 29.0963 15.4898 28.8659 16.0553C28.6355 16.6 28.3946 17.1131 28.1432 17.5949L28.1003 17.6803C27.8867 18.1025 27.6916 18.4511 27.5148 18.726L27.4325 18.8598C27.0213 19.53 26.6193 20.2185 26.2266 20.9255L26.1519 21.0639C25.7775 21.761 25.394 22.5318 25.0012 23.3762L24.9865 23.4214C24.9544 23.5222 24.9384 23.5909 24.9384 23.6276C24.9384 23.7742 25.0012 23.8999 25.1269 24.0046C25.2486 24.1061 25.3802 24.1584 25.5216 24.1616L25.5354 24.1617C25.8705 24.1617 26.1323 23.9627 26.3209 23.5647C26.4884 23.1877 26.656 22.8421 26.8236 22.5279C26.9912 22.2137 27.1483 21.9204 27.2949 21.6481C28.0457 20.6538 28.8751 19.7381 29.7832 18.9011L29.8713 18.8203C30.8349 17.9405 31.7461 17.176 32.6049 16.5266C33.4846 15.8773 34.1864 15.3955 34.71 15.0813C34.3749 15.7516 33.9455 16.4638 33.4218 17.2179L33.3748 17.2886C32.8903 18.0198 32.4452 18.7607 32.0393 19.5115L32.0208 19.5479C31.6352 20.3111 31.4423 21.0845 31.4423 21.8681L31.4427 21.9263C31.4503 22.5204 31.5759 22.8886 31.8194 23.0306C32.0707 23.1772 32.3849 23.2505 32.762 23.2505C33.1881 23.2505 33.6142 23.1621 34.0404 22.9852L34.0816 22.9678C34.5424 22.7583 34.9928 22.486 35.4327 22.1508C35.8254 21.8366 36.2734 21.4396 36.7766 20.9597L36.878 20.8626C37.4226 20.3389 37.852 19.8572 38.1662 19.4173C38.2677 19.2955 38.32 19.1443 38.3232 18.9636L38.3233 18.946Z" fill="#DC1111"/>
<path d="M39.381 23.3301C38.7316 23.3301 38.1765 23.1311 37.7157 22.7332C37.2758 22.3352 37.0559 21.6439 37.0559 20.6594C37.0559 19.9891 37.2235 19.2036 37.5586 18.3029C37.9147 17.4022 38.386 16.5329 38.9725 15.6951C39.559 14.8362 40.2084 14.1345 40.9205 13.5899C41.6327 13.0244 42.3554 12.7416 43.0885 12.7416C43.5703 12.7416 43.9264 12.9196 44.1568 13.2757C44.4082 13.6109 44.5339 14.0193 44.5339 14.5011C44.5339 15.2133 44.3034 15.9045 43.8426 16.5748C43.3818 17.2451 42.7953 17.7897 42.0831 18.2087C41.3918 18.6276 40.7006 18.8371 40.0094 18.8371C39.4438 18.8371 39.0144 18.659 38.7211 18.3029C38.5536 18.7219 38.4174 19.1303 38.3127 19.5283C38.2079 19.9263 38.1556 20.3033 38.1556 20.6594C38.1556 21.2669 38.2813 21.6963 38.5326 21.9477C38.8049 22.1781 39.1401 22.2933 39.5381 22.2933C40.0198 22.2933 40.554 22.1676 41.1405 21.9162C41.7479 21.6649 42.3135 21.3716 42.8372 21.0365C43.3608 20.6804 43.7484 20.3871 43.9997 20.1567C44.4186 19.8006 44.8166 19.4131 45.1937 18.9942C45.5917 18.5543 45.9373 18.1458 46.2305 17.7688C46.3353 17.6431 46.4505 17.5803 46.5762 17.5803C46.7018 17.5803 46.8066 17.6431 46.8904 17.7688C46.9951 17.8735 47.0475 18.0097 47.0475 18.1772C47.0475 18.3239 46.9951 18.4705 46.8904 18.6171C46.5552 19.0361 46.1363 19.5178 45.6336 20.0625C45.1518 20.5861 44.6072 21.0784 43.9997 21.5392C43.6646 21.8115 43.2352 22.0838 42.7115 22.3561C42.1878 22.6284 41.6327 22.8588 41.0462 23.0474C40.4807 23.2359 39.9256 23.3301 39.381 23.3301ZM39.9465 17.8316C40.3655 17.8316 40.8158 17.6955 41.2976 17.4232C41.8003 17.1509 42.2402 16.7948 42.6172 16.3549C43.0152 15.8941 43.2771 15.4018 43.4027 14.8781C43.4237 14.8362 43.4341 14.7839 43.4341 14.721C43.4341 14.6582 43.4341 14.6058 43.4341 14.5639C43.4341 14.1869 43.298 13.9984 43.0257 13.9984C42.5858 13.9984 42.125 14.166 41.6432 14.5011C41.1614 14.8153 40.7006 15.2447 40.2607 15.7893C39.8418 16.313 39.4647 16.889 39.1296 17.5174C39.2134 17.5803 39.2972 17.6431 39.381 17.7059C39.4647 17.7478 39.5485 17.7793 39.6323 17.8002C39.6742 17.8212 39.7266 17.8316 39.7894 17.8316C39.8523 17.8316 39.9046 17.8316 39.9465 17.8316Z" fill="#DC1111"/>
<path d="M38.1556 20.6594C38.1556 20.3145 38.2047 19.9498 38.303 19.5656L38.3127 19.5283C38.4174 19.1303 38.5536 18.7219 38.7211 18.3029C39.0144 18.659 39.4438 18.8371 40.0094 18.8371C40.7006 18.8371 41.3918 18.6276 42.0831 18.2087C42.7841 17.7963 43.3634 17.2621 43.8209 16.6062L43.8426 16.5748C44.2962 15.915 44.5266 15.2349 44.5337 14.5345L44.5339 14.5011C44.5339 14.0193 44.4082 13.6109 44.1568 13.2757C43.93 12.9252 43.5814 12.7472 43.111 12.7417L43.0885 12.7416C42.3554 12.7416 41.6327 13.0244 40.9205 13.5899C40.2084 14.1345 39.559 14.8362 38.9725 15.6951C38.386 16.5329 37.9147 17.4022 37.5586 18.3029L37.5277 18.387C37.2131 19.2526 37.0559 20.0101 37.0559 20.6594L37.056 20.7054C37.0628 21.6655 37.2827 22.3414 37.7157 22.7332C38.1693 23.1249 38.7143 23.3239 39.3506 23.33L39.381 23.3301C39.9256 23.3301 40.4807 23.2359 41.0462 23.0474C41.6144 22.8647 42.1531 22.6428 42.6623 22.3815L42.7115 22.3561C43.2352 22.0838 43.6646 21.8115 43.9997 21.5392C44.6072 21.0784 45.1518 20.5861 45.6336 20.0625C46.1049 19.5519 46.5025 19.0965 46.8265 18.6964L46.8904 18.6171C46.9951 18.4705 47.0475 18.3239 47.0475 18.1772C47.0475 18.0097 46.9951 17.8735 46.8904 17.7688C46.8066 17.6431 46.7018 17.5803 46.5762 17.5803C46.4505 17.5803 46.3353 17.6431 46.2305 17.7688L46.1749 17.8398C45.8939 18.197 45.5668 18.5818 45.1937 18.9942C44.8166 19.4131 44.4186 19.8006 43.9997 20.1567L43.9758 20.1785C43.724 20.4055 43.3445 20.6915 42.8372 21.0365C42.3135 21.3716 41.7479 21.6649 41.1405 21.9162L41.0857 21.9394C40.5207 22.1753 40.0048 22.2933 39.5381 22.2933L39.5381 22.0314C39.9749 22.0314 40.4734 21.9173 41.0373 21.6756L41.0388 21.6749L41.0404 21.6743C41.6332 21.429 42.1839 21.1434 42.6929 20.8179C43.2118 20.4649 43.586 20.1808 43.8228 19.9637L43.8264 19.9604L43.8301 19.9572C44.24 19.6089 44.6296 19.2295 44.9991 18.819L44.9995 18.8185C45.3941 18.3823 45.7354 17.9789 46.0239 17.608L46.0266 17.6046L46.0294 17.6012C46.1678 17.4351 46.3507 17.3184 46.5761 17.3184C46.7988 17.3184 46.9729 17.4324 47.0937 17.6025C47.2415 17.7601 47.3093 17.9589 47.3093 18.1772C47.3093 18.3899 47.2325 18.5886 47.1034 18.7693L47.0993 18.7751L47.0948 18.7807C46.7547 19.2059 46.3314 19.6925 45.826 20.24C45.3338 20.7749 44.7787 21.2766 44.1611 21.7454C43.8088 22.0311 43.3645 22.3117 42.8323 22.5884C42.2958 22.8674 41.7279 23.1031 41.129 23.2957C40.5393 23.4923 39.9562 23.592 39.381 23.592C38.6733 23.592 38.0563 23.3732 37.5446 22.9313L37.5423 22.9293L37.54 22.9273C37.0181 22.4551 36.794 21.671 36.794 20.6594C36.794 19.9476 36.9715 19.1299 37.3132 18.2116L37.3141 18.2091L37.3151 18.2067C37.6791 17.2859 38.1604 16.3986 38.758 15.5449C39.3571 14.6681 40.0241 13.9459 40.7606 13.3825C41.5068 12.7908 42.2842 12.4797 43.0885 12.4797C43.6416 12.4797 44.0853 12.6891 44.3714 13.1255C44.6582 13.5112 44.7957 13.9746 44.7957 14.5011C44.7957 15.2735 44.5448 16.0156 44.0584 16.7232C43.5755 17.4255 42.9605 17.9963 42.2158 18.4343C41.4916 18.8727 40.755 19.0989 40.0094 19.0989C39.5478 19.0989 39.1478 18.9899 38.8275 18.7593C38.7249 19.0437 38.6377 19.3222 38.5659 19.5949C38.466 19.9745 38.4174 20.329 38.4174 20.6594C38.4174 21.2349 38.537 21.5752 38.71 21.7546C38.9281 21.9359 39.1986 22.0314 39.5381 22.0314L39.5381 22.2933C39.1401 22.2933 38.8049 22.1781 38.5326 21.9477C38.2891 21.7042 38.1635 21.2935 38.1559 20.7159L38.1556 20.6594ZM39.9465 17.5698L39.9465 17.8316H39.7894L39.7894 17.5698H39.9465ZM43.1723 14.721V14.5639C43.1723 14.3991 43.1411 14.3227 43.1198 14.2931C43.1098 14.2793 43.0942 14.2602 43.0257 14.2602C42.6545 14.2602 42.2451 14.4014 41.7927 14.716L41.7895 14.7183L41.7862 14.7204C41.3321 15.0166 40.8912 15.4256 40.4652 15.9529L40.427 16.0009C40.0776 16.4431 39.7579 16.924 39.468 17.4439L39.5179 17.4813C39.5705 17.5064 39.6218 17.5257 39.6718 17.5398L39.6958 17.5462L39.7237 17.5532L39.7494 17.566C39.7447 17.5637 39.754 17.5698 39.7894 17.5698L39.7894 17.8316L39.7778 17.8315C39.7201 17.8303 39.6716 17.8198 39.6323 17.8002C39.5485 17.7793 39.4647 17.7478 39.381 17.7059C39.2972 17.6431 39.2134 17.5803 39.1296 17.5174C39.4647 16.889 39.8418 16.313 40.2607 15.7893C40.6869 15.2617 41.1327 14.8422 41.5981 14.5309L41.6432 14.5011C42.125 14.166 42.5858 13.9984 43.0257 13.9984C43.298 13.9984 43.4341 14.1869 43.4341 14.5639V14.721C43.4341 14.7839 43.4237 14.8362 43.4027 14.8781L43.3967 14.9027C43.2688 15.4172 43.009 15.9013 42.6172 16.3549C42.2402 16.7948 41.8003 17.1509 41.2976 17.4232C40.8158 17.6955 40.3655 17.8316 39.9465 17.8316L39.9465 17.5698C40.3081 17.5698 40.7141 17.4522 41.1687 17.1952L41.1708 17.1941L41.1729 17.1929C41.6471 16.9361 42.0619 16.6004 42.4184 16.1845L42.4187 16.1841L42.4191 16.1837C42.7933 15.7504 43.0334 15.295 43.1481 14.817L43.1551 14.7879L43.1685 14.761C43.1662 14.7657 43.1723 14.7565 43.1723 14.721Z" fill="#DC1111"/>
<path d="M68.989 22.1933C68.3396 22.1933 67.7845 21.9943 67.3237 21.5963C66.8838 21.1984 66.6639 20.5071 66.6639 19.5226C66.6639 18.8523 66.8315 18.0668 67.1666 17.1661C67.5227 16.2654 67.994 15.3961 68.5805 14.5582C69.167 13.6994 69.8164 12.9977 70.5286 12.4531C71.2408 11.8875 71.9634 11.6048 72.6966 11.6048C73.1783 11.6048 73.5344 11.7828 73.7648 12.1389C74.0162 12.474 74.1419 12.8825 74.1419 13.3643C74.1419 14.0765 73.9115 14.7677 73.4506 15.438C72.9898 16.1083 72.4033 16.6529 71.6911 17.0719C70.9999 17.4908 70.3086 17.7003 69.6174 17.7003C69.0518 17.7003 68.6224 17.5222 68.3292 17.1661C68.1616 17.585 68.0254 17.9935 67.9207 18.3915C67.816 18.7895 67.7636 19.1665 67.7636 19.5226C67.7636 20.1301 67.8893 20.5595 68.1406 20.8108C68.4129 21.0413 68.7481 21.1565 69.1461 21.1565C69.6279 21.1565 70.162 21.0308 70.7485 20.7794C71.356 20.5281 71.9215 20.2348 72.4452 19.8997C72.9689 19.5436 73.3564 19.2503 73.6077 19.0199C74.0267 18.6638 74.4247 18.2763 74.8017 17.8574C75.1997 17.4175 75.5453 17.009 75.8386 16.632C75.9433 16.5063 76.0585 16.4434 76.1842 16.4434C76.3099 16.4434 76.4146 16.5063 76.4984 16.632C76.6031 16.7367 76.6555 16.8729 76.6555 17.0404C76.6555 17.1871 76.6031 17.3337 76.4984 17.4803C76.1632 17.8992 75.7443 18.381 75.2416 18.9256C74.7598 19.4493 74.2152 19.9416 73.6077 20.4024C73.2726 20.6747 72.8432 20.947 72.3195 21.2193C71.7958 21.4916 71.2408 21.722 70.6542 21.9105C70.0887 22.0991 69.5336 22.1933 68.989 22.1933ZM69.5545 16.6948C69.9735 16.6948 70.4238 16.5587 70.9056 16.2863C71.4083 16.014 71.8482 15.6579 72.2253 15.2181C72.6232 14.7572 72.8851 14.265 73.0108 13.7413C73.0317 13.6994 73.0422 13.6471 73.0422 13.5842C73.0422 13.5214 73.0422 13.469 73.0422 13.4271C73.0422 13.0501 72.906 12.8616 72.6337 12.8616C72.1938 12.8616 71.733 13.0291 71.2512 13.3643C70.7694 13.6785 70.3086 14.1079 69.8687 14.6525C69.4498 15.1762 69.0728 15.7522 68.7376 16.3806C68.8214 16.4434 68.9052 16.5063 68.989 16.5691C69.0728 16.611 69.1566 16.6424 69.2403 16.6634C69.2822 16.6843 69.3346 16.6948 69.3974 16.6948C69.4603 16.6948 69.5127 16.6948 69.5545 16.6948Z" fill="#DC1111"/>
<path d="M67.7636 19.5226C67.7636 19.1777 67.8127 18.813 67.911 18.4288L67.9207 18.3915C68.0254 17.9935 68.1616 17.585 68.3292 17.1661C68.6224 17.5222 69.0518 17.7003 69.6174 17.7003C70.3086 17.7003 70.9999 17.4908 71.6911 17.0719C72.3922 16.6595 72.9714 16.1253 73.4289 15.4693L73.4506 15.438C73.9043 14.7782 74.1346 14.0981 74.1417 13.3977L74.1419 13.3643C74.1419 12.8825 74.0162 12.474 73.7648 12.1389C73.538 11.7884 73.1894 11.6104 72.719 11.6049L72.6966 11.6048C71.9634 11.6048 71.2408 11.8875 70.5286 12.4531C69.8164 12.9977 69.167 13.6994 68.5805 14.5582C67.994 15.3961 67.5227 16.2654 67.1666 17.1661L67.1357 17.2502C66.8212 18.1158 66.6639 18.8733 66.6639 19.5226L66.664 19.5685C66.6708 20.5286 66.8907 21.2046 67.3237 21.5963C67.7773 21.9881 68.3223 22.1871 68.9586 22.1932L68.989 22.1933C69.5336 22.1933 70.0887 22.0991 70.6542 21.9105C71.2224 21.7279 71.7611 21.506 72.2703 21.2447L72.3195 21.2193C72.8432 20.947 73.2726 20.6747 73.6077 20.4024C74.2152 19.9416 74.7598 19.4493 75.2416 18.9256C75.7129 18.4151 76.1105 17.9597 76.4345 17.5596L76.4984 17.4803C76.6031 17.3337 76.6555 17.1871 76.6555 17.0404C76.6555 16.8729 76.6031 16.7367 76.4984 16.632C76.4146 16.5063 76.3099 16.4434 76.1842 16.4434C76.0585 16.4434 75.9433 16.5063 75.8386 16.632L75.783 16.703C75.5019 17.0602 75.1748 17.445 74.8017 17.8574C74.4247 18.2763 74.0267 18.6638 73.6077 19.0199L73.5838 19.0417C73.332 19.2687 72.9525 19.5547 72.4452 19.8997C71.9215 20.2348 71.356 20.5281 70.7485 20.7794L70.6937 20.8026C70.1287 21.0385 69.6128 21.1565 69.1461 21.1565L69.1461 20.8946C69.5829 20.8946 70.0814 20.7805 70.6454 20.5388L70.6469 20.5381L70.6484 20.5375C71.2412 20.2922 71.7919 20.0066 72.301 19.6811C72.8199 19.3281 73.194 19.044 73.4308 18.8269L73.4344 18.8236L73.4382 18.8204C73.848 18.472 74.2376 18.0927 74.6071 17.6822L74.6075 17.6817C75.0022 17.2455 75.3434 16.8421 75.6319 16.4712L75.6346 16.4677L75.6374 16.4644C75.7758 16.2983 75.9587 16.1816 76.1842 16.1816C76.4068 16.1816 76.581 16.2956 76.7017 16.4656C76.8495 16.6232 76.9173 16.8221 76.9173 17.0404C76.9173 17.2531 76.8405 17.4518 76.7114 17.6325L76.7073 17.6383L76.7028 17.6439C76.3627 18.0691 75.9394 18.5557 75.434 19.1032C74.9419 19.6381 74.3867 20.1398 73.7691 20.6086C73.4168 20.8943 72.9725 21.1749 72.4403 21.4516C71.9038 21.7306 71.3359 21.9662 70.737 22.1589C70.1473 22.3555 69.5643 22.4552 68.989 22.4552C68.2813 22.4552 67.6643 22.2364 67.1526 21.7945L67.1503 21.7925L67.1481 21.7905C66.6262 21.3183 66.4021 20.5342 66.4021 19.5226C66.4021 18.8108 66.5795 17.9931 66.9212 17.0748L66.9221 17.0723L66.9231 17.0699C67.2871 16.1491 67.7684 15.2618 68.366 14.4081C68.9651 13.5313 69.6321 12.8091 70.3687 12.2457C71.1148 11.654 71.8923 11.3429 72.6966 11.3429C73.2496 11.3429 73.6933 11.5523 73.9794 11.9887C74.2662 12.3744 74.4037 12.8378 74.4037 13.3643C74.4037 14.1367 74.1528 14.8788 73.6664 15.5863C73.1835 16.2887 72.5685 16.8595 71.8239 17.2975C71.0997 17.7358 70.3631 17.9621 69.6174 17.9621C69.1558 17.9621 68.7559 17.853 68.4356 17.6225C68.3329 17.9068 68.2457 18.1854 68.1739 18.4581C68.074 18.8377 68.0254 19.1922 68.0254 19.5226C68.0254 20.0981 68.145 20.4384 68.318 20.6178C68.5361 20.799 68.8066 20.8946 69.1461 20.8946L69.1461 21.1565C68.7481 21.1565 68.4129 21.0413 68.1406 20.8108C67.8971 20.5673 67.7716 20.1567 67.764 19.579L67.7636 19.5226ZM69.5546 16.433L69.5545 16.6948H69.3974L69.3974 16.433H69.5546ZM72.7803 13.5842V13.4271C72.7803 13.2623 72.7492 13.1858 72.7278 13.1562C72.7178 13.1424 72.7022 13.1234 72.6337 13.1234C72.2625 13.1234 71.8531 13.2646 71.4008 13.5792L71.3975 13.5814L71.3943 13.5836C70.9401 13.8798 70.4992 14.2888 70.0732 14.8161L70.035 14.8641C69.6856 15.3063 69.3659 15.7872 69.076 16.3071L69.1259 16.3445C69.1786 16.3696 69.2298 16.3889 69.2798 16.403L69.3038 16.4094L69.3317 16.4163L69.3574 16.4292C69.3527 16.4269 69.362 16.433 69.3974 16.433L69.3974 16.6948L69.3858 16.6947C69.3281 16.6935 69.2796 16.683 69.2403 16.6634C69.1566 16.6424 69.0728 16.611 68.989 16.5691C68.9052 16.5063 68.8214 16.4434 68.7376 16.3806C69.0728 15.7522 69.4498 15.1762 69.8687 14.6525C70.2949 14.1249 70.7407 13.7054 71.2061 13.3941L71.2512 13.3643C71.733 13.0291 72.1938 12.8616 72.6337 12.8616C72.906 12.8616 73.0422 13.0501 73.0422 13.4271V13.5842C73.0422 13.6471 73.0317 13.6994 73.0108 13.7413L73.0047 13.7659C72.8768 14.2804 72.617 14.7644 72.2253 15.2181C71.8482 15.6579 71.4083 16.014 70.9056 16.2863C70.4238 16.5587 69.9735 16.6948 69.5545 16.6948L69.5546 16.433C69.9161 16.433 70.3221 16.3154 70.7768 16.0584L70.7788 16.0572L70.7809 16.0561C71.2551 15.7993 71.67 15.4636 72.0265 15.0477L72.0268 15.0473L72.0271 15.0469C72.4014 14.6136 72.6414 14.1582 72.7561 13.6802L72.7631 13.651L72.7766 13.6242C72.7742 13.6289 72.7803 13.6196 72.7803 13.5842Z" fill="#DC1111"/>
<path d="M76.4105 21.2452C75.8827 21.2452 75.4868 21.0836 75.2229 20.7604C74.9778 20.417 74.8553 19.9928 74.8553 19.4877C74.8553 18.9221 75.0061 18.2656 75.3077 17.5182C75.6282 16.7506 76.0429 15.9628 76.5519 15.1548C77.0609 14.3467 77.617 13.5993 78.2202 12.9125C78.8423 12.2055 79.4644 11.6399 80.0865 11.2157C80.7086 10.7713 81.2836 10.5491 81.8115 10.5491C82.1696 10.5491 82.5184 10.6097 82.8577 10.7309C83.197 10.8319 83.4704 11.044 83.6777 11.3672C83.904 11.6904 84.0171 12.1651 84.0171 12.7913C84.0171 13.0135 83.9605 13.1751 83.8474 13.2761C83.7343 13.3771 83.6306 13.4276 83.5364 13.4276C83.329 13.4276 83.2253 13.3468 83.2253 13.1852C83.1311 12.5388 82.9331 12.1146 82.6315 11.9126C82.3487 11.7106 82.0754 11.6096 81.8115 11.6096C81.4344 11.6096 80.9914 11.8116 80.4824 12.2156C79.9734 12.6196 79.455 13.1347 78.9272 13.7609C78.3993 14.3871 77.8998 15.0639 77.4285 15.7911C76.9761 16.4981 76.6084 17.1849 76.3257 17.8515C76.0429 18.4979 75.9015 19.0332 75.9015 19.4574C75.9015 19.6594 75.9298 19.8413 75.9863 20.0029C76.0618 20.1645 76.1749 20.2453 76.3257 20.2453C76.6084 20.2453 76.9761 20.0837 77.4285 19.7605C77.8809 19.4372 78.3616 19.0231 78.8706 18.5181C79.3985 17.9929 79.9169 17.4475 80.4259 16.8819C80.9349 16.3163 81.3967 15.781 81.8115 15.276C82.2262 14.7709 82.2522 14.775 82.4975 14.4901C82.682 14.2869 82.7812 14.2363 82.9509 14.2363C83.0828 14.2363 83.2054 14.2868 83.3185 14.3878C83.4316 14.4888 83.4882 14.6201 83.4882 14.7817C83.4882 14.8625 83.4696 14.994 83.413 15.095C83.3056 15.3216 83.2565 15.394 83.1688 15.5487C82.9991 15.9527 82.82 16.387 82.6315 16.8516C82.4618 17.3162 82.311 17.7505 82.179 18.1545C82.0659 18.5383 82.0094 18.8312 82.0094 19.0332C82.0094 19.2352 82.0754 19.3362 82.2073 19.3362C82.3016 19.3362 82.4147 19.2857 82.5467 19.1847C82.6975 19.0837 82.8294 18.9928 82.9425 18.912C83.395 18.508 83.8286 18.0838 84.2433 17.6394C84.658 17.1748 85.0351 16.7405 85.3744 16.3365C85.4498 16.2355 85.544 16.185 85.6571 16.185C85.7514 16.185 85.8362 16.2456 85.9116 16.3668C86.0059 16.4678 86.053 16.5991 86.053 16.7607C86.053 16.9425 86.0059 17.094 85.9116 17.2152C85.61 17.6394 85.2141 18.1141 84.724 18.6393C84.2339 19.1443 83.8003 19.5483 83.4232 19.8514C83.1782 20.0332 82.886 20.215 82.5467 20.3968C82.2262 20.5584 81.9151 20.6392 81.6135 20.6392C81.3873 20.6392 81.1988 20.5685 81.048 20.4271C80.8972 20.2655 80.8217 19.9928 80.8217 19.6089C80.8217 19.3059 80.8689 18.9625 80.9631 18.5787C81.0574 18.1949 81.1705 17.801 81.3025 17.397C80.7746 18.003 80.2091 18.5989 79.6058 19.1847C79.0026 19.7705 78.4182 20.2655 77.8526 20.6695C77.306 21.0533 76.8252 21.2452 76.4105 21.2452Z" fill="#DC1111"/>
<path d="M75.9015 19.4574C75.9015 19.0465 76.0342 18.5313 76.2996 17.9118L76.3257 17.8515C76.6084 17.1849 76.9761 16.4981 77.4285 15.7911C77.885 15.0866 78.3682 14.4295 78.8778 13.8198L78.9272 13.7609C79.455 13.1347 79.9734 12.6196 80.4824 12.2156C80.9914 11.8116 81.4344 11.6096 81.8115 11.6096L81.8362 11.6099C82.0925 11.616 82.3575 11.7169 82.6315 11.9126C82.9331 12.1146 83.1311 12.5388 83.2253 13.1852L83.2256 13.2001C83.2317 13.3469 83.3289 13.4227 83.5172 13.4274L83.5364 13.4276C83.6247 13.4276 83.7214 13.3832 83.8263 13.2945L83.8474 13.2761C83.957 13.1783 84.0135 13.0235 84.0169 12.812L84.0171 12.7913C84.0171 12.1651 83.904 11.6904 83.6777 11.3672C83.4704 11.044 83.197 10.8319 82.8577 10.7309C82.529 10.6134 82.1914 10.5529 81.845 10.5492L81.8115 10.5491C81.2836 10.5491 80.7086 10.7713 80.0865 11.2157L80.0282 11.2559C79.4256 11.6754 78.8229 12.2276 78.2202 12.9125C77.617 13.5993 77.0609 14.3467 76.5519 15.1548L76.5045 15.2304C76.0171 16.012 75.6182 16.7746 75.3077 17.5182L75.2799 17.588C74.9968 18.3066 74.8553 18.9398 74.8553 19.4877L74.8556 19.5348C74.863 20.0192 74.9854 20.4277 75.2229 20.7604C75.4827 21.0785 75.8703 21.2401 76.3859 21.2451L76.4105 21.2452C76.8123 21.2452 77.276 21.0651 77.8016 20.7049L77.8526 20.6695C78.4005 20.2781 78.9661 19.8014 79.5493 19.2394L79.6058 19.1847C80.2091 18.5989 80.7746 18.003 81.3025 17.397C81.1705 17.801 81.0574 18.1949 80.9631 18.5787C80.8689 18.9625 80.8217 19.3059 80.8217 19.6089L80.822 19.6446C80.8265 20.0097 80.9019 20.2705 81.048 20.4271C81.1941 20.5641 81.3755 20.6347 81.5924 20.639L81.6135 20.6392C81.9057 20.6392 82.2068 20.5633 82.5166 20.4117L82.5467 20.3968C82.886 20.215 83.1782 20.0332 83.4232 19.8514C83.8003 19.5483 84.2339 19.1443 84.724 18.6393C85.2141 18.1141 85.61 17.6394 85.9116 17.2152C86.0029 17.0978 86.05 16.9519 86.0529 16.7776L86.053 16.7607C86.053 16.5991 86.0059 16.4678 85.9116 16.3668C85.8362 16.2456 85.7514 16.185 85.6571 16.185C85.544 16.185 85.4498 16.2355 85.3744 16.3365C85.0351 16.7405 84.658 17.1748 84.2433 17.6394C83.8286 18.0838 83.395 18.508 82.9425 18.912C82.8294 18.9928 82.6975 19.0837 82.5467 19.1847L82.5221 19.2031C82.4006 19.2919 82.2957 19.3362 82.2073 19.3362L82.1951 19.3359C82.0753 19.33 82.0135 19.2353 82.0096 19.0519L82.0094 19.0332C82.0094 18.8312 82.0659 18.5383 82.179 18.1545C82.311 17.7505 82.4618 17.3162 82.6315 16.8516C82.82 16.387 82.9991 15.9527 83.1688 15.5487C83.2565 15.394 83.3056 15.3216 83.413 15.095C83.466 15.0003 83.4857 14.8789 83.4879 14.7975L83.4882 14.7817C83.4882 14.6252 83.4351 14.4971 83.3289 14.3974L83.3185 14.3878C83.2089 14.29 83.0905 14.2396 82.9632 14.2365L82.9509 14.2363C82.7812 14.2363 82.682 14.2869 82.4975 14.4901L82.4539 14.5403C82.2474 14.7765 82.2003 14.8025 81.8115 15.276L81.7331 15.371C81.3388 15.848 80.903 16.3516 80.4259 16.8819C79.9169 17.4475 79.3985 17.9929 78.8706 18.5181L78.823 18.5652C78.3316 19.0489 77.8668 19.4473 77.4285 19.7605L77.3863 19.7903C76.9532 20.0936 76.5996 20.2453 76.3257 20.2453V19.9834C76.522 19.9834 76.8322 19.8646 77.2763 19.5474C77.7145 19.2343 78.1845 18.83 78.6862 18.3323C79.2105 17.8106 79.7255 17.2688 80.2312 16.7067C80.738 16.1436 81.1972 15.6113 81.6091 15.1098C82.0188 14.6109 82.077 14.5772 82.299 14.3193L82.3013 14.3167L82.3036 14.3141C82.4008 14.207 82.4953 14.1172 82.6034 14.0577C82.7217 13.9926 82.8356 13.9745 82.9509 13.9745C83.1567 13.9745 83.3394 14.0555 83.4929 14.1925C83.6656 14.3468 83.75 14.5511 83.75 14.7817C83.75 14.8865 83.7284 15.062 83.6465 15.2136C83.5391 15.4395 83.4831 15.5261 83.404 15.6647C83.2372 16.0621 83.0611 16.4891 82.8759 16.9455C82.7083 17.4045 82.5595 17.8332 82.4293 18.2315C82.3184 18.6084 82.2712 18.8707 82.2712 19.0332C82.2712 19.0398 82.2714 19.0461 82.2715 19.0519C82.3 19.0376 82.3384 19.0144 82.3875 18.9768L82.3941 18.9718L82.401 18.9672C82.545 18.8707 82.6708 18.7841 82.7787 18.7073C83.2206 18.3121 83.6443 17.8974 84.0497 17.4631C84.461 17.0023 84.8346 16.572 85.1706 16.1719C85.2886 16.0181 85.4546 15.9232 85.6571 15.9232L85.6676 15.9233C85.8772 15.9276 86.0246 16.062 86.1205 16.2076C86.2553 16.362 86.3149 16.5535 86.3149 16.7607C86.3149 16.9872 86.2558 17.1962 86.1226 17.3704C85.8126 17.8059 85.4094 18.2886 84.9154 18.818L84.9137 18.8198L84.9119 18.8217C84.4173 19.3313 83.9755 19.7434 83.5873 20.0554L83.5833 20.0586L83.5792 20.0616C83.3217 20.2527 83.0181 20.4412 82.6703 20.6275L82.6674 20.6291L82.6646 20.6306C82.3144 20.8071 81.9632 20.901 81.6135 20.901C81.3276 20.901 81.073 20.8094 80.8689 20.6181L80.8625 20.6121L80.8566 20.6057C80.6371 20.3706 80.5599 20.0142 80.5599 19.6089C80.5599 19.2797 80.611 18.9147 80.7089 18.5163C80.7173 18.4818 80.726 18.4473 80.7347 18.4127C80.4301 18.7357 80.1146 19.0557 79.7882 19.3726C79.1775 19.9657 78.583 20.4695 78.0048 20.8825L78.0031 20.8838C77.437 21.2812 76.9029 21.507 76.4105 21.507C75.8267 21.507 75.3465 21.3257 75.0201 20.926L75.0147 20.9194L75.0097 20.9125C74.7271 20.5165 74.5934 20.0363 74.5934 19.4877C74.5934 18.8775 74.7556 18.1866 75.0649 17.4202L75.0655 17.4188L75.0661 17.4173C75.3929 16.6345 75.8147 15.8338 76.3303 15.0152C76.8464 14.196 77.4107 13.4374 78.0235 12.7397C78.6559 12.0211 79.2934 11.4399 79.9367 11.001C80.5833 10.5395 81.2102 10.2872 81.8115 10.2872C82.1975 10.2872 82.5738 10.3523 82.9391 10.482C83.3391 10.6028 83.6588 10.8547 83.8954 11.2215C84.1634 11.6074 84.2789 12.143 84.2789 12.7913C84.2789 13.0528 84.2123 13.3013 84.0218 13.4714C83.8883 13.5906 83.7242 13.6895 83.5364 13.6895C83.4059 13.6895 83.2598 13.6653 83.1421 13.5735C83.0189 13.4775 82.9689 13.3416 82.9639 13.2077C82.8717 12.5902 82.69 12.2669 82.4858 12.1301L82.4825 12.1279L82.4793 12.1256C82.227 11.9454 82.0058 11.8714 81.8115 11.8714C81.5231 11.8714 81.1381 12.0294 80.6452 12.4207C80.1528 12.8115 79.6467 13.3135 79.1274 13.9297C78.6073 14.5467 78.1144 15.2141 77.649 15.9322C77.2033 16.6287 76.8429 17.3026 76.5667 17.9538L76.5662 17.9551L76.5656 17.9565C76.2889 18.5889 76.1633 19.0856 76.1633 19.4574C76.1633 19.6293 76.1867 19.777 76.2291 19.9035C76.2508 19.9465 76.2699 19.9644 76.2799 19.9716C76.2883 19.9776 76.3 19.9834 76.3257 19.9834V20.2453C76.1749 20.2453 76.0618 20.1645 75.9863 20.0029C75.9333 19.8514 75.9052 19.6821 75.9018 19.4951L75.9015 19.4574Z" fill="#DC1111"/>
<path d="M86.6633 19.5839C86.1355 19.5839 85.7396 19.4228 85.4757 19.1004C85.2306 18.7579 85.1081 18.3348 85.1081 17.8311C85.1081 17.267 85.2589 16.6122 85.5605 15.8668C85.881 15.1012 86.2957 14.3154 86.8047 13.5096C87.3137 12.7037 87.8698 11.9582 88.4731 11.2732C89.0952 10.5681 89.7173 10.0039 90.3394 9.58085C90.9615 9.13761 91.5364 8.91599 92.0643 8.91599C92.4413 8.91599 92.8089 8.9865 93.1671 9.12753C93.5441 9.24842 93.8269 9.51033 94.0154 9.91328C94.4867 8.74474 95.0522 7.58627 95.712 6.43788C96.3718 5.26934 97.0505 4.22168 97.748 3.29491C98.4643 2.36814 99.143 1.67306 99.7839 1.20967C100.255 0.867167 100.679 0.695916 101.056 0.695916C101.358 0.695916 101.594 0.806726 101.763 1.02834C101.952 1.22982 102.046 1.5421 102.046 1.96519C102.046 2.77108 101.839 3.62734 101.424 4.53396C101.028 5.44059 100.5 6.34722 99.8405 7.25384C99.1807 8.16047 98.4643 9.04694 97.6914 9.91328C96.9374 10.7595 96.2022 11.5553 95.4858 12.3007C94.7695 13.026 94.1473 13.6607 93.6195 14.2046C93.3179 14.7486 93.0257 15.3833 92.7429 16.1086C92.479 16.8137 92.347 17.408 92.347 17.8916C92.347 18.4356 92.545 18.7075 92.9409 18.7075C93.2613 18.7075 93.7421 18.5464 94.383 18.224C95.0428 17.8815 95.6838 17.4181 96.3058 16.8339C96.6829 16.4913 97.0316 16.1287 97.3521 15.7459C97.6726 15.3631 97.9742 15.0105 98.257 14.6882C98.3324 14.5874 98.4266 14.5371 98.5397 14.5371C98.634 14.5371 98.7188 14.5975 98.7942 14.7184C98.8885 14.8191 98.9356 14.9501 98.9356 15.1113C98.9356 15.2926 98.8885 15.4437 98.7942 15.5646C98.5115 15.9877 98.1156 16.4611 97.6066 16.985C97.1165 17.4886 96.6829 17.8916 96.3058 18.1938C95.5895 18.7579 94.8166 19.181 93.9871 19.4631C93.4781 19.6444 93.0257 19.7351 92.6298 19.7351C91.593 19.7351 91.0746 19.181 91.0746 18.0729C91.0746 17.6095 91.1688 17.0857 91.3573 16.5014C91.3573 16.4813 91.3668 16.4611 91.3856 16.441C90.8012 16.9648 90.198 17.4685 89.5759 17.952C88.9726 18.4356 88.4071 18.8284 87.8792 19.1306C87.3514 19.4328 86.9461 19.5839 86.6633 19.5839ZM94.0719 12.1496C94.2605 11.9884 94.5904 11.6661 95.0617 11.1826C95.5329 10.699 96.0702 10.1248 96.6734 9.45996C97.2955 8.77496 97.9082 8.03958 98.5115 7.25384C99.1147 6.4681 99.6426 5.68236 100.095 4.89661C100.547 4.11087 100.858 3.3755 101.028 2.69049C101.047 2.6099 101.056 2.50917 101.056 2.38828C101.056 2.08607 100.943 1.93497 100.717 1.93497C100.434 1.93497 100.104 2.13644 99.7274 2.53939C98.9922 3.30498 98.2758 4.23176 97.5783 5.31971C96.8997 6.38751 96.2587 7.51575 95.6555 8.70444C95.0711 9.87298 94.5432 11.0214 94.0719 12.1496ZM86.5785 18.5867C86.8424 18.5867 87.1817 18.4557 87.5965 18.1938C88.0301 17.9319 88.4919 17.5994 88.982 17.1965C89.4722 16.7936 89.9529 16.3705 90.4242 15.9272C90.9143 15.484 91.3479 15.071 91.7249 14.6882C92.102 14.3054 92.3847 14.0132 92.5733 13.8118L93.4216 11.243C93.2896 10.7192 93.0917 10.3767 92.8278 10.2155C92.5638 10.0543 92.3093 9.97372 92.0643 9.97372C91.6872 9.97372 91.2442 10.1752 90.7352 10.5781C90.2263 10.9811 89.7078 11.4948 89.18 12.1194C88.6522 12.744 88.1526 13.4189 87.6813 14.1442C87.2289 14.8493 86.8613 15.5344 86.5785 16.1992C86.2957 16.8439 86.1543 17.3778 86.1543 17.8009C86.1543 18.0024 86.1826 18.1837 86.2392 18.3449C86.3146 18.5061 86.4277 18.5867 86.5785 18.5867Z" fill="#DC1111"/>
<path d="M92.347 17.8916C92.347 17.408 92.479 16.8137 92.7429 16.1086C93.0257 15.3833 93.3179 14.7486 93.6195 14.2046C94.1473 13.6607 94.7695 13.026 95.4858 12.3007C96.2022 11.5553 96.9374 10.7595 97.6914 9.91328C98.4402 9.07402 99.1359 8.21585 99.7785 7.33878L99.8405 7.25384C100.5 6.34722 101.028 5.44059 101.424 4.53396C101.832 3.64151 102.04 2.79786 102.046 2.00302L102.046 1.96519C102.046 1.5421 101.952 1.22982 101.763 1.02834C101.599 0.813652 101.373 0.702958 101.084 0.696248L101.056 0.695916C100.679 0.695916 100.255 0.867167 99.7839 1.20967L99.7539 1.23155C99.1218 1.69482 98.4531 2.38261 97.748 3.29491L97.6827 3.38214C97.0081 4.28728 96.3512 5.30585 95.712 6.43788C95.0522 7.58627 94.4867 8.74474 94.0154 9.91328C93.8269 9.51033 93.5441 9.24842 93.1671 9.12753C92.8201 8.99091 92.4643 8.92047 92.0996 8.9162L92.0643 8.91599C91.5364 8.91599 90.9615 9.13761 90.3394 9.58085C89.7173 10.0039 89.0952 10.5681 88.4731 11.2732C87.8698 11.9582 87.3137 12.7037 86.8047 13.5096C86.2957 14.3154 85.881 15.1012 85.5605 15.8668L85.5327 15.9364C85.2496 16.6531 85.1081 17.2846 85.1081 17.8311C85.1081 18.3348 85.2306 18.7579 85.4757 19.1004C85.7355 19.4177 86.1231 19.5789 86.6387 19.5838L86.6633 19.5839C86.9373 19.5839 87.3262 19.4421 87.8301 19.1585L87.8792 19.1306C88.4071 18.8284 88.9726 18.4356 89.5759 17.952C90.198 17.4685 90.8012 16.9648 91.3856 16.441C91.3668 16.4611 91.3573 16.4813 91.3573 16.5014C91.1688 17.0857 91.0746 17.6095 91.0746 18.0729L91.075 18.1244C91.0908 19.1897 91.601 19.7265 92.6056 19.735L92.6298 19.7351C93.0257 19.7351 93.4781 19.6444 93.9871 19.4631C94.8036 19.1854 95.5653 18.7711 96.2722 18.2201L96.3058 18.1938C96.6593 17.9105 97.0625 17.5386 97.5154 17.0782L97.6066 16.985C98.1156 16.4611 98.5115 15.9877 98.7942 15.5646C98.8885 15.4437 98.9356 15.2926 98.9356 15.1113C98.9356 14.9501 98.8885 14.8191 98.7942 14.7184C98.7188 14.5975 98.634 14.5371 98.5397 14.5371C98.4266 14.5371 98.3324 14.5874 98.257 14.6882C97.9742 15.0105 97.6726 15.3631 97.3521 15.7459L97.322 15.7817C97.0098 16.1513 96.6711 16.5021 96.3058 16.8339L96.2475 16.8883C95.6437 17.447 95.0222 17.8922 94.383 18.224C93.7421 18.5464 93.2613 18.7075 92.9409 18.7075L92.9409 18.4457C93.1939 18.4457 93.6253 18.3118 94.263 17.9913C94.8983 17.6614 95.5197 17.213 96.1266 16.643L96.1282 16.6415L96.1298 16.64C96.4982 16.3054 96.8387 15.9513 97.1513 15.5778C97.4708 15.1963 97.7718 14.8443 98.0545 14.522C98.1725 14.3692 98.3381 14.2752 98.5397 14.2752L98.5502 14.2753C98.7594 14.2797 98.9068 14.4135 99.0029 14.5589C99.1377 14.713 99.1975 14.9043 99.1975 15.1113C99.1975 15.3361 99.139 15.5437 99.0073 15.7169C98.7132 16.1557 98.3074 16.6394 97.7944 17.1674C97.2998 17.6757 96.8579 18.0869 96.4696 18.3981L96.4687 18.3988L96.4678 18.3995C95.7302 18.9804 94.9323 19.4177 94.075 19.7097C93.5474 19.8977 93.0644 19.9969 92.6298 19.9969C92.0664 19.9969 91.597 19.8455 91.2722 19.4984C90.9505 19.1546 90.8127 18.6631 90.8127 18.0729C90.8127 17.8015 90.8428 17.514 90.9016 17.2111C90.5212 17.5348 90.1333 17.8503 89.7378 18.1578C89.1273 18.647 88.5511 19.0477 88.0093 19.3579C87.4777 19.6622 87.0203 19.8458 86.6633 19.8458C86.0798 19.8458 85.5996 19.6651 85.2731 19.2663L85.2677 19.2597L85.2628 19.2528C84.9801 18.8577 84.8462 18.3785 84.8462 17.8311C84.8463 17.2223 85.0085 16.533 85.3178 15.7686L85.3184 15.7671L85.319 15.7657C85.6458 14.9849 86.0677 14.1862 86.5833 13.3697C87.0994 12.5526 87.6638 11.796 88.2766 11.1002C88.9092 10.3831 89.5469 9.80337 90.1904 9.36549C90.8368 8.90553 91.4635 8.65416 92.0643 8.65416C92.4721 8.65416 92.8696 8.7301 93.2552 8.88086C93.5385 8.97328 93.775 9.13273 93.9647 9.35181C94.3997 8.32931 94.9061 7.31507 95.484 6.30914C96.1486 5.13214 96.8334 4.07467 97.5388 3.13747L97.5398 3.13611L97.5408 3.13478C98.2546 2.21139 98.9403 1.5032 99.5992 1.02029L99.6305 0.997485C100.124 0.639294 100.601 0.434082 101.056 0.434082C101.428 0.434085 101.74 0.573769 101.963 0.859102C102.21 1.12901 102.308 1.51542 102.308 1.9652C102.308 2.81617 102.089 3.70931 101.663 4.64184C101.258 5.56695 100.721 6.48896 100.052 7.40792C99.3872 8.32176 98.6653 9.21491 97.8869 10.0874C97.1308 10.9359 96.3934 11.7341 95.6746 12.4822L95.6734 12.4834L95.6721 12.4847C94.9671 13.1985 94.3537 13.8242 93.8318 14.3619C93.5431 14.8865 93.2614 15.4996 92.9873 16.2024C92.7295 16.8918 92.6089 17.4523 92.6089 17.8916C92.6089 18.1396 92.6554 18.2783 92.7072 18.3495C92.7478 18.4052 92.8098 18.4457 92.9409 18.4457L92.9409 18.7075C92.5512 18.7075 92.3533 18.444 92.3472 17.9169L92.347 17.8916ZM86.1543 17.8009C86.1543 17.3778 86.2957 16.8439 86.5785 16.1992C86.8613 15.5344 87.2289 14.8493 87.6813 14.1442C88.1379 13.4416 88.6209 12.7862 89.1306 12.1781L89.18 12.1194C89.7078 11.4948 90.2263 10.9811 90.7352 10.5781C91.2442 10.1752 91.6872 9.97372 92.0643 9.97372L92.0873 9.97394C92.3253 9.97883 92.5721 10.0593 92.8278 10.2155C93.0917 10.3767 93.2896 10.7192 93.4216 11.243L92.5733 13.8118C92.3847 14.0132 92.102 14.3054 91.7249 14.6882C91.3479 15.071 90.9143 15.484 90.4242 15.9272L90.3357 16.0101C89.8928 16.4233 89.4416 16.8187 88.982 17.1965C88.4919 17.5994 88.0301 17.9319 87.5965 18.1938L87.5578 18.218C87.1606 18.4638 86.8342 18.5867 86.5785 18.5867V18.3248C86.7662 18.3248 87.0532 18.2272 87.4567 17.9724L87.4589 17.971L87.4611 17.9697C87.8816 17.7157 88.3331 17.3911 88.8158 16.9942C89.3013 16.5951 89.7777 16.1758 90.2448 15.7365L90.2467 15.7347L90.2486 15.733C90.7358 15.2924 91.1656 14.8829 91.5384 14.5044C91.8895 14.148 92.1573 13.8716 92.3428 13.6746L93.1486 11.2346C93.0237 10.7788 92.8574 10.5404 92.6913 10.439C92.4578 10.2964 92.2501 10.2355 92.0643 10.2355C91.7757 10.2355 91.3906 10.3932 90.8978 10.7834C90.4054 11.1732 89.8993 11.6739 89.38 12.2884C88.8596 12.9041 88.3665 13.5702 87.9008 14.2869C87.4555 14.9811 87.0955 15.6527 86.8194 16.3017L86.8189 16.303L86.8183 16.3044C86.5417 16.9351 86.4162 17.4303 86.4162 17.8009C86.4162 17.9722 86.4395 18.1194 86.4819 18.2454C86.5035 18.288 86.5225 18.3058 86.5325 18.313C86.5408 18.3189 86.5526 18.3248 86.5785 18.3248V18.5867L86.5645 18.5864C86.4206 18.5815 86.3122 18.501 86.2392 18.3449C86.1862 18.1938 86.158 18.025 86.1547 17.8385L86.1543 17.8009ZM100.795 2.38827C100.795 2.26227 100.77 2.21548 100.762 2.20519C100.76 2.2026 100.76 2.20288 100.759 2.20248C100.757 2.2014 100.745 2.19681 100.717 2.19681C100.551 2.19681 100.288 2.32358 99.9186 2.71828L99.9174 2.71953L99.9162 2.72076C99.1953 3.47155 98.4893 4.38392 97.7993 5.46012C97.1256 6.52003 96.4891 7.64048 95.8896 8.82154C95.5164 9.56778 95.1665 10.3056 94.8399 11.0349C94.8512 11.0233 94.8626 11.0116 94.8742 10.9998C95.3427 10.5191 95.8778 9.94727 96.4795 9.28402C97.0965 8.60471 97.7046 7.87481 98.3038 7.09438C98.9006 6.31697 99.4219 5.54081 99.8681 4.76595C100.311 3.99638 100.611 3.28444 100.774 2.62927C100.786 2.57498 100.795 2.49633 100.795 2.38827ZM101.056 2.41072C101.055 2.52168 101.046 2.61494 101.028 2.69049C100.858 3.3755 100.547 4.11087 100.095 4.89661C99.6426 5.68236 99.1147 6.4681 98.5115 7.25384L98.4549 7.32735C97.8699 8.08549 97.2761 8.79636 96.6734 9.45996L96.5611 9.58357C96.0033 10.1962 95.5035 10.7292 95.0617 11.1826L94.975 11.2713C94.5497 11.7058 94.2487 11.9985 94.0719 12.1496C94.5432 11.0214 95.0711 9.87298 95.6555 8.70444C96.2587 7.51575 96.8997 6.38751 97.5783 5.31971C98.254 4.26575 98.9474 3.36305 99.6585 2.61163L99.7274 2.53939C100.104 2.13644 100.434 1.93497 100.717 1.93497L100.728 1.93508C100.947 1.93972 101.056 2.0908 101.056 2.38828L101.056 2.41072Z" fill="#DC1111"/>
<path d="M28.3398 28.1529C27.3156 28.2206 26.1432 28.1093 24.8224 27.8188C23.524 27.5478 22.167 27.1862 20.7516 26.734C19.3571 26.2804 18.003 25.8032 16.6893 25.3023C15.377 24.8223 14.2054 24.4065 13.1745 24.0548C12.3017 25.1412 11.2709 26.0596 10.082 26.81C8.89441 27.5813 7.5064 28.0194 5.91792 28.1245C4.39214 28.2254 3.23299 27.9977 2.44046 27.4413C1.64793 26.885 1.22609 26.2201 1.17494 25.4468C1.139 24.9034 1.29254 24.3684 1.63558 23.8419C1.99814 23.2931 2.55503 22.8259 3.30625 22.4403C4.05747 22.0548 5.00786 21.824 6.15742 21.7479C7.34878 21.6691 8.48711 21.7408 9.57242 21.9629C10.6563 22.1641 11.7235 22.4294 12.7739 22.7588C13.2731 22.054 13.7368 21.2886 14.165 20.4626C14.5918 19.6156 14.997 18.7596 15.3806 17.8945C14.6951 18.0029 13.997 18.0805 13.2863 18.1275C11.8232 18.2243 10.308 18.1671 8.74058 17.9559C7.44765 17.7685 6.44395 17.3521 5.72949 16.7066C5.03456 16.0388 4.66013 15.2973 4.60622 14.4822C4.54262 13.5207 4.93117 12.5714 5.77185 11.6341C6.61115 10.6759 7.93938 9.96875 9.75656 9.51267L9.88196 9.50438C10.0492 9.49332 10.1892 9.54704 10.302 9.66553C10.4343 9.76174 10.5053 9.883 10.515 10.0293C10.5329 10.301 10.3872 10.4786 10.0779 10.562C8.48785 10.9611 7.35894 11.5081 6.69116 12.203C6.0429 12.8757 5.7409 13.5464 5.78513 14.2153C5.82799 14.8632 6.12866 15.4416 6.68713 15.9505C7.26512 16.437 8.00901 16.7342 8.91881 16.842C10.4235 17.0573 11.8761 17.1187 13.2764 17.0261C14.1752 16.9666 15.0384 16.8466 15.8662 16.6659C16.3517 15.4372 16.8275 14.2196 17.2935 13.0132C17.7595 11.8068 18.2415 10.6833 18.7395 9.64275C19.2569 8.57989 19.8266 7.67103 20.4484 6.91615C21.1107 6.13761 21.7756 5.55832 22.4432 5.17828C23.1108 4.79824 23.7373 4.58887 24.3225 4.55016C25.2003 4.4921 25.9415 4.74747 26.5459 5.31627C27.1698 5.86279 27.5122 6.59587 27.573 7.51552C27.6159 8.16345 27.4943 8.86425 27.2083 9.6179C26.9222 10.3716 26.4383 11.1488 25.7566 11.9496C24.5102 13.4176 23.1204 14.6221 21.5872 15.5632C20.0735 16.482 18.4597 17.1556 16.7456 17.5838C16.62 17.907 16.4938 18.2198 16.3668 18.5221C16.2594 18.8021 16.1415 19.0828 16.0132 19.3642C15.7188 19.9924 15.3939 20.6332 15.0382 21.2865C14.6812 21.9189 14.2921 22.5429 13.871 23.1586C14.5815 23.4264 15.2926 23.7048 16.0045 23.9936C16.7359 24.2601 17.477 24.5155 18.2279 24.7597C18.7851 24.9328 19.4824 25.1595 20.3197 25.44C21.1569 25.7205 22.0464 25.9976 22.9882 26.2712C23.9509 26.5434 24.8885 26.7543 25.801 26.9038C26.7359 27.0729 27.5586 27.134 28.2693 27.087C28.6037 27.0648 28.8942 27.0141 29.1409 26.9348C29.1827 26.9321 29.2134 26.9195 29.2329 26.8973C29.2538 26.8959 29.2747 26.8945 29.2956 26.8931C29.4628 26.8821 29.5923 26.9365 29.6842 27.0563C29.797 27.1748 29.8583 27.3072 29.868 27.4535C29.8859 27.7253 29.7507 27.9021 29.4622 27.9842C29.1319 28.069 28.7578 28.1253 28.3398 28.1529ZM21.3447 7.6126C20.7619 8.32291 20.2299 9.16631 19.7487 10.1428C19.2661 11.0984 18.819 12.1146 18.4074 13.1915C17.9944 14.2474 17.6016 15.2915 17.2291 16.3238C18.6686 15.8717 20.0331 15.2357 21.3223 14.4156C22.6102 13.5747 23.7903 12.531 24.8624 11.2845C25.4466 10.5951 25.8545 9.93837 26.0861 9.31426C26.3163 8.66926 26.4149 8.09595 26.3817 7.59432C26.3416 6.98819 26.1314 6.50877 25.7512 6.15605C25.3906 5.78105 24.928 5.61221 24.3637 5.64954C23.9248 5.67857 23.4433 5.85737 22.9192 6.18593C22.4147 6.4922 21.8898 6.96776 21.3447 7.6126ZM2.33495 25.3701C2.36675 25.8508 2.6668 26.2613 3.23511 26.6016C3.82571 26.9614 4.69578 27.1032 5.84534 27.0272C7.18301 26.9387 8.3564 26.5882 9.3655 25.9757C10.3969 25.3826 11.3016 24.6195 12.0796 23.6864L12.0482 23.6885C11.1051 23.394 10.1452 23.1636 9.1685 22.9973C8.19046 22.81 7.21027 22.7489 6.22792 22.8139C4.91115 22.901 3.9238 23.2077 3.26587 23.7341C2.60793 24.2604 2.29762 24.8057 2.33495 25.3701Z" fill="#DC1111"/>
<path d="M13.1745 24.0548C14.2054 24.4065 15.377 24.8223 16.6893 25.3023C18.003 25.8032 19.3571 26.2804 20.7516 26.734C22.167 27.1862 23.524 27.5478 24.8224 27.8188C26.1225 28.1047 27.279 28.2171 28.2917 28.156L28.3398 28.1529C28.7447 28.1261 29.1085 28.0725 29.4311 27.9921L29.4622 27.9842C29.7462 27.9034 29.8817 27.7308 29.8687 27.4662L29.868 27.4535C29.8583 27.3072 29.797 27.1748 29.6842 27.0563C29.5923 26.9365 29.4628 26.8821 29.2956 26.8931L29.2783 26.6319C29.5167 26.6161 29.7314 26.6959 29.8826 26.8852C30.0272 27.0407 30.1153 27.2259 30.1292 27.4363C30.1414 27.6207 30.1022 27.7996 29.988 27.949C29.876 28.0956 29.7137 28.1849 29.5339 28.2361L29.5306 28.237L29.5274 28.2378C29.1783 28.3275 28.7877 28.3857 28.3571 28.4142C27.3021 28.4839 26.1044 28.3688 24.767 28.0747C23.4593 27.8017 22.0942 27.4378 20.6719 26.9834L20.6706 26.983C19.2727 26.5283 17.9149 26.0498 16.5975 25.5475C15.3599 25.0948 14.2482 24.6996 13.2622 24.3616C12.397 25.4077 11.3842 26.2973 10.2246 27.0296L10.1668 27.0667C8.95022 27.8421 7.53726 28.2798 5.9352 28.3858C4.38223 28.4885 3.1527 28.2613 2.29002 27.6556C1.45036 27.0662 0.971339 26.3358 0.913681 25.4641C0.87344 24.8557 1.04718 24.2653 1.4162 23.699L1.41713 23.6976C1.81057 23.102 2.40654 22.6078 3.18669 22.2074C3.97905 21.8007 4.96713 21.5643 6.14014 21.4867C7.35209 21.4065 8.51309 21.4791 9.62224 21.7058C10.6528 21.8972 11.6683 22.146 12.6689 22.4522C13.1192 21.8015 13.5402 21.0988 13.9317 20.3437C14.2848 19.643 14.623 18.9361 14.9463 18.223C14.4061 18.2968 13.8585 18.3521 13.3036 18.3888C11.8218 18.4868 10.289 18.4287 8.70563 18.2154L8.70431 18.2152L8.70302 18.215C7.37656 18.0228 6.31848 17.5916 5.55396 16.9008L5.55099 16.8981L5.54809 16.8954C4.81507 16.191 4.40394 15.3912 4.34496 14.4995C4.27541 13.4479 4.70425 12.4322 5.57693 11.4592C6.46436 10.4474 7.84849 9.72161 9.69282 9.25872L9.7157 9.25298L9.86468 9.24313L9.88196 9.50438L9.75656 9.51267C7.93938 9.96875 6.61115 10.6759 5.77185 11.6341C4.93117 12.5714 4.54262 13.5207 4.60622 14.4822L4.60898 14.5203C4.67191 15.3205 5.04541 16.0492 5.72949 16.7066C6.44395 17.3521 7.44765 17.7685 8.74058 17.9559C10.308 18.1671 11.8232 18.2243 13.2863 18.1275C13.997 18.0805 14.6951 18.0029 15.3806 17.8945C14.997 18.7596 14.5918 19.6156 14.165 20.4626C13.7368 21.2886 13.2731 22.054 12.7739 22.7588C11.7235 22.4294 10.6563 22.1641 9.57242 21.9629C8.50407 21.7443 7.38434 21.6714 6.21323 21.7444L6.15742 21.7479C5.00786 21.824 4.05747 22.0548 3.30625 22.4403C2.55503 22.8259 1.99814 23.2931 1.63558 23.8419C1.29254 24.3684 1.139 24.9034 1.17494 25.4468C1.22609 26.2201 1.64793 26.885 2.44046 27.4413C3.23299 27.9977 4.39214 28.2254 5.91792 28.1245C7.5064 28.0194 8.89441 27.5813 10.082 26.81C11.2709 26.0596 12.3017 25.1412 13.1745 24.0548ZM27.573 7.51552C27.5122 6.59587 27.1698 5.86279 26.5459 5.31627C25.9415 4.74747 25.2003 4.4921 24.3225 4.55016C23.7373 4.58887 23.1108 4.79824 22.4432 5.17828L22.4119 5.19625C21.7548 5.57648 21.1003 6.14977 20.4484 6.91615C19.8266 7.67103 19.2569 8.57989 18.7395 9.64275C18.2415 10.6833 17.7595 11.8068 17.2935 13.0132C16.8275 14.2196 16.3517 15.4372 15.8662 16.6659C15.0384 16.8466 14.1752 16.9666 13.2764 17.0261L13.2592 16.7648C14.0964 16.7094 14.9014 16.6007 15.6742 16.4391C16.1416 15.2553 16.6 14.0819 17.0492 12.9189C17.5174 11.7069 18.002 10.5771 18.5033 9.52974L18.504 9.52815C19.0287 8.45046 19.609 7.52337 20.2463 6.74969L20.2476 6.74809L20.249 6.74651C20.9249 5.95197 21.6124 5.34993 22.3137 4.95074L22.3785 4.9143C23.047 4.54299 23.6901 4.32959 24.3052 4.2889C25.2491 4.22647 26.0617 4.5028 26.722 5.12247C27.4019 5.7197 27.7696 6.51946 27.8343 7.49825C27.8802 8.19157 27.7493 8.93029 27.4531 9.71081C27.1538 10.4995 26.6516 11.3021 25.9561 12.1191C24.6931 13.6066 23.2825 14.8298 21.7241 15.7864L21.7236 15.7867L21.723 15.787C20.2257 16.6959 18.6313 17.3685 16.9405 17.8044C16.8308 18.0841 16.7205 18.3559 16.6096 18.62C16.5007 18.9038 16.3812 19.1881 16.2514 19.4728L16.2503 19.4752C15.9535 20.1086 15.6262 20.7541 15.2682 21.4117L15.2672 21.4134L15.2662 21.4152C14.9586 21.9601 14.6274 22.4987 14.2729 23.0309C14.8808 23.2627 15.4892 23.502 16.0981 23.749C16.8247 24.0137 17.561 24.2675 18.3071 24.5101C18.8666 24.6839 19.5653 24.9112 20.4028 25.1918C21.2358 25.4709 22.1214 25.7467 23.0594 26.0192C23.9835 26.2805 24.8833 26.4845 25.7588 26.6314L25.8434 26.6455L25.8455 26.6458L25.8476 26.6462C26.768 26.8126 27.5685 26.8709 28.252 26.8257L28.2693 27.087L28.2023 27.091C27.5071 27.13 26.7067 27.0676 25.801 26.9038C24.917 26.7589 24.0094 26.5565 23.0784 26.2965L22.9882 26.2712C22.0464 25.9976 21.1569 25.7205 20.3197 25.44C19.4824 25.1595 18.7851 24.9328 18.2279 24.7597C17.477 24.5155 16.7359 24.2601 16.0045 23.9936C15.2926 23.7048 14.5815 23.4264 13.871 23.1586C14.2658 22.5814 14.6324 21.9969 14.9709 21.405L15.0382 21.2865C15.3939 20.6332 15.7188 19.9924 16.0132 19.3642C16.1415 19.0828 16.2594 18.8021 16.3668 18.5221C16.4938 18.2198 16.62 17.907 16.7456 17.5838C18.4597 17.1556 20.0735 16.482 21.5872 15.5632C23.1204 14.6221 24.5102 13.4176 25.7566 11.9496C26.4277 11.1613 26.9071 10.3959 27.1947 9.65325L27.2083 9.6179C27.4898 8.87602 27.6121 8.18536 27.5749 7.54592L27.573 7.51552ZM29.2783 26.6319L29.2956 26.8931L29.2329 26.8973C29.2134 26.9195 29.1827 26.9321 29.1409 26.9348L29.1177 26.9422C28.876 27.0173 28.5932 27.0655 28.2693 27.087L28.252 26.8257C28.5709 26.8046 28.8394 26.7567 29.0608 26.6856L29.0739 26.6813L29.1127 26.67L29.2783 26.6319ZM2.33495 25.3701C2.29762 24.8057 2.60793 24.2604 3.26587 23.7341C3.9238 23.2077 4.91115 22.901 6.22792 22.8139L6.32 22.8082C7.27152 22.7529 8.22103 22.8159 9.1685 22.9973C10.1452 23.1636 11.1051 23.394 12.0482 23.6885L12.0796 23.6864C11.3016 24.6195 10.3969 25.3826 9.3655 25.9757C8.3564 26.5882 7.18301 26.9387 5.84534 27.0272L5.82806 26.7659C7.12951 26.6799 8.2611 26.3398 9.22964 25.7518L9.2323 25.7502L9.23499 25.7487C10.1223 25.2385 10.9135 24.5989 11.609 23.8291C10.7935 23.5898 9.96533 23.3985 9.12456 23.2554L9.12191 23.2549L9.11927 23.2544C8.16288 23.0714 7.20504 23.0117 6.24521 23.0752C4.95384 23.1606 4.02798 23.4597 3.42943 23.9385C2.80387 24.439 2.56694 24.9101 2.59622 25.3528C2.62 25.7122 2.83798 26.052 3.34524 26.3622L3.36962 26.3769L3.37132 26.378C3.89427 26.6965 4.69993 26.8406 5.82806 26.7659L5.84534 27.0272C4.71375 27.1021 3.85298 26.9657 3.26301 26.6183L3.23511 26.6016C2.67569 26.2666 2.37618 25.8636 2.33662 25.3926L2.33495 25.3701ZM5.78513 14.2153C5.74159 13.5569 6.03355 12.8966 6.66103 12.2346L6.69116 12.203C7.34851 11.519 8.45268 10.9782 10.0037 10.5809L10.0779 10.562C10.3872 10.4786 10.5329 10.301 10.515 10.0293C10.5053 9.883 10.4343 9.76174 10.302 9.66553C10.1927 9.55075 10.0579 9.49675 9.89756 9.50354L9.88196 9.50438L9.86468 9.24313C10.0992 9.22761 10.3094 9.30338 10.4747 9.46779C10.6508 9.60259 10.7613 9.78652 10.7762 10.012C10.7887 10.2012 10.7443 10.3828 10.6216 10.5324C10.5029 10.6771 10.3332 10.7644 10.146 10.8148L10.1438 10.8154L10.1416 10.816C8.56967 11.2105 7.49741 11.7419 6.87997 12.3845C6.2621 13.0256 6.00871 13.6281 6.04639 14.198C6.08397 14.766 6.34495 15.2831 6.85967 15.7534C7.39039 16.1988 8.08182 16.4792 8.94961 16.582L8.95276 16.5823L8.95591 16.5828C10.4441 16.7958 11.8784 16.8561 13.2592 16.7648L13.2764 17.0261L13.2108 17.0303C11.8307 17.1168 10.4 17.054 8.91881 16.842C8.00901 16.7342 7.26512 16.437 6.68713 15.9505C6.12866 15.4416 5.82799 14.8632 5.78513 14.2153ZM26.1204 7.61161C26.0839 7.05997 25.896 6.64755 25.5731 6.348L25.5677 6.34293L25.5625 6.33756C25.2604 6.02349 24.8759 5.87807 24.381 5.9108C23.9993 5.93605 23.5597 6.09341 23.0583 6.40776L23.0567 6.40877L23.0551 6.40974C22.5831 6.69625 22.0796 7.14908 21.5461 7.77992C20.9785 8.47195 20.4572 9.29739 19.9835 10.2585L19.983 10.2597L19.9824 10.2608C19.5041 11.2079 19.0606 12.2158 18.6519 13.2849L18.6516 13.2859L18.6512 13.2868C18.3066 14.1679 17.9762 15.0407 17.6598 15.9051C18.8906 15.4753 20.0643 14.9054 21.1812 14.1951C22.4459 13.369 23.6065 12.3429 24.6628 11.115C25.2331 10.4419 25.6217 9.81195 25.8398 9.22518C26.0619 8.60286 26.1505 8.0668 26.1204 7.61161ZM26.3832 7.61788C26.4118 8.11388 26.3127 8.67934 26.0861 9.31426C25.8545 9.93837 25.4466 10.5951 24.8624 11.2845C23.7903 12.531 22.6102 13.5747 21.3223 14.4156C20.0331 15.2357 18.6686 15.8717 17.2291 16.3238C17.5783 15.356 17.9454 14.3779 18.3302 13.3893L18.4074 13.1915C18.8061 12.1483 19.2382 11.162 19.7035 10.2326L19.7487 10.1428C20.2299 9.16631 20.7619 8.32291 21.3447 7.6126C21.8728 6.98791 22.3818 6.52209 22.8719 6.21514L22.9192 6.18593C23.4433 5.85737 23.9248 5.67857 24.3637 5.64954C24.928 5.61221 25.3906 5.78105 25.7512 6.15605C26.1314 6.50877 26.3416 6.98819 26.3817 7.59432L26.3832 7.61788Z" fill="#DC1111"/>
</svg>
