<svg width="269" height="81" viewBox="0 0 269 81" fill="none" xmlns="http://www.w3.org/2000/svg">
<path fill-rule="evenodd" clip-rule="evenodd" d="M63.9448 73.0463C60.5166 72.3309 56.9341 71.4453 53.1971 70.2515C49.5153 69.054 45.9403 67.794 42.4719 66.4715C39.0072 65.2042 35.914 64.1064 33.1922 63.1779C30.8878 66.0461 28.1662 68.4708 25.0272 70.452C21.8918 72.4884 18.2272 73.6453 14.0333 73.9227C10.005 74.1891 6.94461 73.5879 4.85218 72.119C2.75975 70.6501 1.64601 68.8948 1.51096 66.853C1.41606 65.4183 1.82146 64.0058 2.72715 62.6158C3.68437 61.1668 5.15466 59.9334 7.13803 58.9154C9.12139 57.8974 11.6306 57.2881 14.6656 57.0873C17.8111 56.8793 20.8165 57.0685 23.6819 57.6549C26.5437 58.1861 29.3612 58.8865 32.1345 59.7561C33.4525 57.8954 34.6767 55.8746 35.8072 53.6937C36.9341 51.4576 38.0039 49.1976 39.0167 46.9136C37.2067 47.1996 35.3635 47.4047 33.4873 47.5288C29.6245 47.7843 25.624 47.6332 21.4857 47.0756C18.0721 46.5808 15.4222 45.4813 13.5359 43.7771C11.7011 42.0141 10.7125 40.0565 10.5702 37.9043C10.4023 35.3659 11.4281 32.8594 13.6477 30.3848C15.8636 27.855 19.3704 25.988 24.1681 24.7839L24.4992 24.762C24.9406 24.7328 25.3103 24.8746 25.6081 25.1875C25.9574 25.4415 26.1449 25.7616 26.1704 26.1479C26.2179 26.8653 25.8332 27.3341 25.0164 27.5544C20.8184 28.608 17.8379 30.0522 16.0749 31.887C14.3633 33.6629 13.566 35.4338 13.6828 37.1996C13.7959 38.9103 14.5897 40.4374 16.0642 41.7809C17.5902 43.0656 19.5542 43.8501 21.9563 44.1347C25.929 44.7033 29.764 44.8653 33.4612 44.6207C35.8341 44.4638 38.1132 44.1468 40.2986 43.6697C41.5805 40.4257 42.8366 37.2111 44.067 34.026C45.2973 30.8409 46.5699 27.8746 47.8846 25.1273C49.2509 22.3212 50.7549 19.9216 52.3966 17.9286C54.1451 15.8731 55.9007 14.3436 57.6633 13.3403C59.4259 12.3369 61.0798 11.7841 62.6249 11.6819C64.9426 11.5286 66.8993 12.2028 68.4951 13.7046C70.1424 15.1475 71.0464 17.083 71.207 19.511C71.3201 21.2217 70.9991 23.0719 70.244 25.0617C69.4888 27.0515 68.2112 29.1036 66.4112 31.2179C63.1204 35.0936 59.451 38.2737 55.4032 40.7585C51.4068 43.1843 47.1459 44.9626 42.6205 46.0933C42.289 46.9466 41.9556 47.7723 41.6204 48.5704C41.3368 49.3097 41.0255 50.0508 40.6867 50.7937C39.9096 52.4524 39.0516 54.1442 38.1126 55.869C37.17 57.5387 36.1428 59.1862 35.031 60.8116C36.9068 61.5189 38.7844 62.2538 40.6638 63.0163C42.5948 63.7199 44.5515 64.3941 46.534 65.0389C48.0052 65.4959 49.8461 66.0946 52.0566 66.8352C54.2672 67.5758 56.6156 68.1689 59.1021 68.8913C61.6437 69.6099 62.1197 69.8284 64.5088 70.3708L63.9448 73.0463ZM50.5492 26.4475C51.8197 23.8694 53.2243 21.6427 54.763 19.7673C56.2022 18.0648 57.5879 16.8093 58.92 16.0006C60.3037 15.1332 61.5749 14.6611 62.7338 14.5845C64.2237 14.4859 65.4448 14.9317 66.3971 15.9218C67.4009 16.853 67.9557 18.1188 68.0616 19.7191C68.1492 21.0435 67.889 22.5571 67.2812 24.26C66.6696 25.9078 65.5927 27.6418 64.0504 29.4619C61.2197 32.7529 58.1042 35.5085 54.7039 37.7287C51.3 39.8937 47.6976 41.573 43.8969 42.7666C44.8805 40.0411 45.9175 37.2845 47.0079 34.4966C48.0946 31.6535 49.275 28.9705 50.5492 26.4475ZM6.95021 69.9018C5.44976 69.0034 4.65756 67.9196 4.57361 66.6504C4.47506 65.1605 5.29432 63.7207 7.0314 62.3311C8.76849 60.9414 11.3753 60.1316 14.8518 59.9017C17.4454 59.7301 20.0333 59.8915 22.6155 60.3858C25.194 60.8249 27.7284 61.4332 30.2185 62.2107L30.3012 62.2052C28.2472 64.6689 25.8587 66.6836 23.1356 68.2493C20.4714 69.8666 17.3734 70.792 13.8417 71.0256C10.8067 71.2263 8.50949 70.8517 6.95021 69.9018Z" fill="#DC1111"/>
<path d="M62.5793 10.9921C65.0713 10.8273 67.2169 11.5569 68.96 13.1929C70.7551 14.7697 71.7259 16.8812 71.8968 19.4654C72.0179 21.2959 71.6723 23.2463 70.8903 25.307C70.1 27.3892 68.7743 29.5083 66.938 31.6653L66.9381 31.6653C63.6034 35.5928 59.8791 38.8221 55.7648 41.3476L55.7633 41.3485L55.7619 41.3494C51.8086 43.7491 47.599 45.5248 43.1351 46.6757C42.8455 47.414 42.5543 48.1317 42.2615 48.829C41.9738 49.5782 41.6585 50.3288 41.3157 51.0806L41.3127 51.087C40.5293 52.7591 39.6649 54.4634 38.7198 56.1996L38.7172 56.2042L38.7146 56.2088C37.9024 57.6475 37.028 59.0694 36.0921 60.4746C37.6971 61.0865 39.3034 61.7184 40.9109 62.3705C42.8293 63.0694 44.7734 63.7393 46.7432 64.3801C48.2204 64.8389 50.0651 65.4389 52.2762 66.1797C54.4704 66.9148 56.7753 67.4954 59.2949 68.2274C61.8657 68.9544 62.2972 69.1598 64.6618 69.6966L65.3255 69.8473L64.479 73.864L63.8036 73.723C60.3579 73.0039 56.7515 72.1127 52.9867 70.91L52.9833 70.9089C49.2924 69.7084 45.7077 68.4451 42.2294 67.1188C38.962 65.9237 36.0268 64.8802 33.4238 63.9878C31.1393 66.7499 28.4652 69.0984 25.4037 71.0318L25.2512 71.1299C22.0392 73.1771 18.3087 74.3327 14.079 74.6125C9.97881 74.8837 6.73262 74.2837 4.45499 72.6848C2.23812 71.1285 0.973408 69.2002 0.821178 66.8986C0.714936 65.2924 1.17366 63.7337 2.14792 62.2384L2.15038 62.2347C3.18913 60.6624 4.76263 59.3576 6.82238 58.3004C8.91434 57.2267 11.5231 56.6024 14.62 56.3975C17.8199 56.1859 20.8853 56.3776 23.8138 56.9762C26.5345 57.4815 29.2156 58.1384 31.8572 58.9466C33.0461 57.2287 34.1576 55.3734 35.1912 53.3798C36.1234 51.5299 37.0163 49.6636 37.8701 47.7809C36.4438 47.9756 34.9981 48.1216 33.5329 48.2185C29.6207 48.4773 25.5738 48.324 21.3934 47.7606L21.3899 47.7602L21.3865 47.7597C17.8844 47.2522 15.0909 46.1137 13.0724 44.2901L13.0646 44.2829L13.0569 44.2756C11.1216 42.4159 10.0361 40.3042 9.88043 37.9499C9.6968 35.1737 10.829 32.492 13.1331 29.9232C15.476 27.2517 19.1304 25.3355 23.9998 24.1134L24.0602 24.0982L24.4535 24.0722C25.0727 24.0313 25.6276 24.2313 26.0642 24.6654C26.529 25.0213 26.8208 25.5069 26.8602 26.1023C26.8932 26.6016 26.7759 27.0812 26.452 27.476C26.1385 27.8581 25.6905 28.0886 25.1964 28.2219L25.1905 28.2235L25.1847 28.2249C21.0345 29.2666 18.2035 30.6695 16.5733 32.366L16.573 32.3663L16.5726 32.3667C14.9414 34.0594 14.273 35.6495 14.3725 37.154C14.4717 38.6537 15.1608 40.0189 16.5197 41.2607C17.9209 42.4364 19.7465 43.1768 22.0376 43.4482L22.0459 43.4492L22.0542 43.4504C25.9833 44.0127 29.7701 44.172 33.4156 43.9309C35.6262 43.7847 37.7514 43.4977 39.7917 43.071C41.0257 39.9455 42.236 36.8475 43.4222 33.7769C44.6582 30.577 45.9377 27.5942 47.2611 24.8289L47.2631 24.8247C48.6484 21.9794 50.1804 19.5317 51.8631 17.4891L51.8665 17.4849L51.8701 17.4807C53.6545 15.3829 55.4699 13.7934 57.3213 12.7395L57.4923 12.6433C59.2574 11.663 60.9552 11.0995 62.5793 10.9921ZM62.6249 11.6819C61.0798 11.7841 59.4259 12.3369 57.6633 13.3403C55.9007 14.3436 54.1451 15.8731 52.3966 17.9286C50.7549 19.9216 49.2509 22.3212 47.8846 25.1273C46.5699 27.8746 45.2973 30.8409 44.067 34.026C42.8366 37.2111 41.5805 40.4257 40.2986 43.6697C38.1132 44.1468 35.8341 44.4638 33.4612 44.6207C29.764 44.8653 25.929 44.7033 21.9563 44.1347C19.5542 43.8501 17.5902 43.0656 16.0642 41.7809C14.5897 40.4374 13.7959 38.9103 13.6828 37.1996C13.566 35.4338 14.3633 33.6629 16.0749 31.887C17.8379 30.0522 20.8184 28.608 25.0164 27.5544C25.8332 27.3341 26.2179 26.8653 26.1704 26.1479C26.1449 25.7616 25.9574 25.4415 25.6081 25.1875C25.3103 24.8746 24.9406 24.7328 24.4992 24.762L24.1681 24.7839C19.3704 25.988 15.8636 27.855 13.6477 30.3848C11.4281 32.8594 10.4023 35.3659 10.5702 37.9043C10.7125 40.0565 11.7011 42.0141 13.5359 43.7771C15.4222 45.4813 18.0721 46.5808 21.4857 47.0756C25.624 47.6332 29.6245 47.7843 33.4873 47.5288C35.3635 47.4047 37.2067 47.1996 39.0167 46.9136C38.0039 49.1976 36.9341 51.4576 35.8072 53.6937C34.6767 55.8746 33.4525 57.8954 32.1345 59.7561C29.3612 58.8865 26.5437 58.1861 23.6819 57.6549C20.8165 57.0685 17.8111 56.8793 14.6656 57.0873C11.6306 57.2881 9.12139 57.8974 7.13803 58.9154C5.15466 59.9334 3.68437 61.1668 2.72715 62.6158C1.82146 64.0058 1.41606 65.4183 1.51096 66.853C1.64601 68.8948 2.75975 70.6501 4.85218 72.119C6.94461 73.5879 10.005 74.1891 14.0333 73.9227C18.2272 73.6453 21.8918 72.4884 25.0272 70.452C28.1662 68.4708 30.8878 66.0461 33.1922 63.1779C35.914 64.1064 39.0072 65.2042 42.4719 66.4715C45.9403 67.794 49.5153 69.054 53.1971 70.2515C56.9341 71.4453 60.5166 72.3309 63.9448 73.0463L64.5088 70.3708C62.1197 69.8284 61.6437 69.6099 59.1021 68.8913C56.6156 68.1689 54.2672 67.5758 52.0566 66.8352C49.8461 66.0946 48.0052 65.4959 46.534 65.0389C44.5515 64.3941 42.5948 63.7199 40.6638 63.0163C38.7844 62.2538 36.9068 61.5189 35.031 60.8116C36.1428 59.1862 37.17 57.5387 38.1126 55.869C39.0516 54.1442 39.9096 52.4524 40.6867 50.7937C41.0255 50.0508 41.3368 49.3097 41.6204 48.5704C41.9556 47.7723 42.289 46.9466 42.6205 46.0933C47.1459 44.9626 51.4068 43.1843 55.4032 40.7585C59.451 38.2737 63.1204 35.0936 66.4112 31.2179C68.2112 29.1036 69.4888 27.0515 70.244 25.0617C70.9991 23.0719 71.3201 21.2217 71.207 19.511C71.0464 17.083 70.1424 15.1475 68.4951 13.7046C66.8993 12.2028 64.9426 11.5286 62.6249 11.6819ZM14.8518 59.9017C17.4454 59.7301 20.0333 59.8915 22.6155 60.3858C25.194 60.8249 27.7284 61.4332 30.2185 62.2107L30.3012 62.2052C28.2472 64.6689 25.8587 66.6836 23.1356 68.2493C20.4714 69.8666 17.3734 70.792 13.8417 71.0256C10.8067 71.2263 8.50949 70.8517 6.95021 69.9018C5.44976 69.0034 4.65756 67.9196 4.57361 66.6504C4.47506 65.1605 5.29432 63.7207 7.0314 62.3311C8.76849 60.9414 11.3753 60.1316 14.8518 59.9017ZM14.8974 60.5915C11.488 60.817 9.04353 61.6067 7.46324 62.8709C5.81164 64.1921 5.18611 65.436 5.26342 66.6048C5.32618 67.5538 5.90171 68.4509 7.24097 69.2698L7.30532 69.3088L7.30983 69.3114C8.69051 70.1526 10.8176 70.5328 13.7961 70.3358C17.2322 70.1085 20.2198 69.2106 22.7769 67.6584L22.7839 67.6541L22.791 67.6501C25.1337 66.3031 27.2225 64.6145 29.059 62.5819C26.9057 61.9502 24.7193 61.4452 22.4995 61.0672L22.4925 61.0661L22.4855 61.0648C19.9605 60.5814 17.4316 60.4239 14.8974 60.5915ZM62.7338 14.5845C64.2237 14.4859 65.4448 14.9317 66.3971 15.9218C67.4009 16.853 67.9557 18.1188 68.0616 19.7191C68.1492 21.0435 67.889 22.5571 67.2812 24.26C66.6696 25.9078 65.5927 27.6418 64.0504 29.4619C61.2197 32.7529 58.1042 35.5085 54.7039 37.7287C51.3 39.8937 47.6976 41.573 43.8969 42.7666C44.8805 40.0411 45.9175 37.2845 47.0079 34.4966C48.0946 31.6535 49.275 28.9705 50.5492 26.4475C51.8197 23.8694 53.2243 21.6427 54.763 19.7673C56.2022 18.0648 57.5879 16.8093 58.92 16.0006C60.3037 15.1332 61.5749 14.6611 62.7338 14.5845ZM62.7794 15.2743C61.7716 15.3409 60.6111 15.7564 59.2873 16.5863L59.283 16.589L59.2787 16.5916C58.0326 17.348 56.7032 18.5435 55.2946 20.2091C53.796 22.0362 52.4198 24.2155 51.1693 26.7531L51.1678 26.7562L51.1663 26.7592C49.9035 29.2595 48.7325 31.9207 47.6536 34.7434L47.6527 34.7459L47.6517 34.7484C46.7419 37.0746 45.8694 39.3789 45.0342 41.6612C48.2836 40.5264 51.3824 39.0217 54.3313 37.1463C57.6703 34.9654 60.7346 32.2562 63.5235 29.0143C65.0292 27.2373 66.0551 25.574 66.631 24.0249C67.2172 22.3818 67.4512 20.9665 67.3718 19.7647C67.2754 18.3083 66.7794 17.2194 65.9269 16.4285L65.9125 16.4152L65.8988 16.401C65.1013 15.5718 64.0859 15.1878 62.7794 15.2743Z" fill="#DC1111"/>
<path d="M192.112 67.8599C189.408 68.0388 186.313 67.7447 182.826 66.9777C179.398 66.2622 175.815 65.3076 172.078 64.1137C168.396 62.9162 164.821 61.6562 161.353 60.3338C157.888 59.0665 154.795 57.9686 152.073 57.0402C149.769 59.9084 147.047 62.3331 143.908 64.3143C140.773 66.3506 137.108 67.5075 132.914 67.7849C128.886 68.0514 125.825 67.4502 123.733 65.9813C121.641 64.5124 120.527 62.757 120.392 60.7153C120.297 59.2805 120.702 57.8681 121.608 56.478C122.565 55.0291 124.036 53.7956 126.019 52.7777C128.002 51.7597 130.511 51.1503 133.547 50.9496C136.692 50.7415 139.697 50.9307 142.563 51.5171C145.425 52.0483 148.242 52.7488 151.015 53.6184C152.333 51.7577 153.558 49.7368 154.688 47.5559C155.815 45.3199 156.885 43.0598 157.898 40.7759C156.088 41.0619 154.244 41.2669 152.368 41.391C148.505 41.6465 144.505 41.4955 140.367 40.9378C136.953 40.4431 134.303 39.3436 132.417 37.6394C130.582 35.8763 129.593 33.9187 129.451 31.7666C129.283 29.2282 130.309 26.7217 132.529 24.247C134.744 21.7172 138.251 19.8503 143.049 18.6461L143.38 18.6242C143.822 18.595 144.191 18.7369 144.489 19.0497C144.838 19.3037 145.026 19.6239 145.051 20.0101C145.099 20.7275 144.714 21.1964 143.897 21.4167C139.699 22.4703 136.719 23.9144 134.956 25.7492C133.244 27.5251 132.447 29.296 132.564 31.0619C132.677 32.7726 133.471 34.2996 134.945 35.6431C136.471 36.9278 138.435 37.7124 140.837 37.9969C144.81 38.5655 148.645 38.7275 152.342 38.483C154.715 38.326 156.994 38.009 159.18 37.5319C160.461 34.2879 161.718 31.0734 162.948 27.8883C164.178 24.7031 165.451 21.7369 166.766 18.9896C168.132 16.1834 169.636 13.7838 171.278 11.7908C173.026 9.73532 174.782 8.20589 176.544 7.20251C178.307 6.19914 179.961 5.64635 181.506 5.54415C183.823 5.39085 185.78 6.06508 187.376 7.56683C189.023 9.00975 189.927 10.9452 190.088 13.3733C190.201 15.0839 189.88 16.9342 189.125 18.924C188.37 20.9138 187.092 22.9658 185.292 25.0802C182.001 28.9558 178.332 32.136 174.284 34.6207C170.288 37.0466 166.027 38.8249 161.501 39.9556C161.17 40.8088 160.836 41.6346 160.501 42.4327C160.218 43.1719 159.906 43.913 159.568 44.656C158.791 46.3147 157.932 48.0064 156.994 49.7313C156.051 51.4009 155.024 53.0484 153.912 54.6739C155.788 55.3812 157.665 56.116 159.545 56.8785C161.476 57.5822 163.432 58.2564 165.415 58.9012C166.886 59.3581 168.727 59.9569 170.938 60.6974C173.148 61.438 175.497 62.1695 177.983 62.8918C180.525 63.6105 183 64.1672 185.409 64.5621C187.878 65.0085 190.05 65.1697 191.926 65.0456C192.809 64.9872 193.576 64.8533 194.227 64.644C194.338 64.6367 194.419 64.6036 194.47 64.5448C194.525 64.5411 194.581 64.5375 194.636 64.5338C195.077 64.5046 195.419 64.6483 195.662 64.9648C195.96 65.2776 196.121 65.6272 196.147 66.0135C196.194 66.7308 195.837 67.1978 195.076 67.4145C194.204 67.6384 193.216 67.7869 192.112 67.8599ZM173.644 13.6296C172.105 15.5049 170.701 17.7317 169.43 20.3098C168.156 22.8327 166.975 25.5157 165.889 28.3588C164.798 31.1467 163.761 33.9034 162.778 36.6288C166.579 35.4352 170.181 33.7559 173.585 31.5909C176.985 29.3707 180.101 26.6152 182.931 23.3242C184.474 21.504 185.551 19.77 186.162 18.1223C186.77 16.4194 187.03 14.9057 186.942 13.5813C186.837 11.981 186.282 10.7153 185.278 9.78401C184.326 8.79394 183.105 8.34818 181.615 8.44673C180.456 8.52338 179.185 8.99543 177.801 9.86289C176.469 10.6715 175.083 11.9271 173.644 13.6296ZM123.454 60.5127C123.538 61.7819 124.331 62.8657 125.831 63.7641C127.39 64.714 129.688 65.0886 132.723 64.8878C136.254 64.6542 139.352 63.7288 142.016 62.1116C144.74 60.5458 147.128 58.5312 149.182 56.0675L149.099 56.0729C146.609 55.2954 144.075 54.6871 141.496 54.248C138.914 53.7537 136.326 53.5924 133.733 53.7639C130.256 53.9939 127.649 54.8037 125.912 56.1933C124.175 57.583 123.356 59.0228 123.454 60.5127Z" fill="#DC1111"/>
<path d="M152.073 57.0402C154.795 57.9686 157.888 59.0665 161.353 60.3338C164.821 61.6562 168.396 62.9162 172.078 64.1137C175.815 65.3076 179.398 66.2622 182.826 66.9777C186.258 67.7327 189.311 68.0295 191.985 67.868L192.112 67.8599C193.181 67.7892 194.142 67.6477 194.994 67.4353L195.076 67.4145C195.825 67.2012 196.183 66.7454 196.149 66.0469L196.147 66.0135C196.121 65.6272 195.96 65.2776 195.662 64.9648C195.419 64.6483 195.077 64.5046 194.636 64.5338L194.59 63.844C195.219 63.8024 195.786 64.0131 196.186 64.5128C196.567 64.9234 196.8 65.4125 196.837 65.9678C196.869 66.4547 196.765 66.9272 196.464 67.3217C196.168 67.7085 195.74 67.9443 195.265 68.0794L195.256 68.0818L195.248 68.0841C194.326 68.3207 193.295 68.4745 192.158 68.5497C189.373 68.7339 186.21 68.4298 182.679 67.6533C179.227 66.9326 175.623 65.9719 171.868 64.7722L171.864 64.7711C168.173 63.5707 164.589 62.3073 161.11 60.9811C157.843 59.786 154.908 58.7424 152.305 57.85C150.02 60.6121 147.346 62.9607 144.285 64.894L144.132 64.9921C140.92 67.0393 137.19 68.195 132.96 68.4747C128.86 68.7459 125.613 68.146 123.336 66.547C121.119 64.9908 119.854 63.0624 119.702 60.7609C119.596 59.1546 120.055 57.596 121.029 56.1006L121.031 56.097C122.07 54.5246 123.644 53.2198 125.703 52.1626C127.795 51.0889 130.404 50.4646 133.501 50.2598C136.701 50.0481 139.766 50.2399 142.694 50.8385C145.415 51.3437 148.096 52.0006 150.738 52.8089C151.927 51.0909 153.038 49.2356 154.072 47.242C155.004 45.3922 155.897 43.5258 156.751 41.6431C155.325 41.8378 153.879 41.9839 152.414 42.0808C148.502 42.3396 144.455 42.1862 140.274 41.6229L140.271 41.6224L140.267 41.622C136.765 41.1144 133.972 39.976 131.953 38.1523L131.945 38.1452L131.938 38.1378C130.002 36.2782 128.917 34.1665 128.761 31.8122C128.578 29.036 129.71 26.3543 132.014 23.7854C134.357 21.114 138.011 19.1978 142.881 17.9757L142.941 17.9605L143.334 17.9345L143.38 18.6242L143.049 18.6461C138.251 19.8503 134.744 21.7172 132.529 24.247C130.309 26.7217 129.283 29.2282 129.451 31.7666L129.458 31.8673C129.625 33.9798 130.611 35.9038 132.417 37.6394C134.303 39.3436 136.953 40.4431 140.367 40.9378C144.505 41.4955 148.505 41.6465 152.368 41.391C154.244 41.2669 156.088 41.0619 157.898 40.7759C156.885 43.0598 155.815 45.3199 154.688 47.5559C153.558 49.7368 152.333 51.7577 151.015 53.6184C148.242 52.7488 145.425 52.0483 142.563 51.5171C139.742 50.9399 136.786 50.7476 133.694 50.9402L133.547 50.9496C130.511 51.1503 128.002 51.7597 126.019 52.7777C124.036 53.7956 122.565 55.0291 121.608 56.478C120.702 57.8681 120.297 59.2805 120.392 60.7153C120.527 62.757 121.641 64.5124 123.733 65.9813C125.825 67.4502 128.886 68.0514 132.914 67.7849C137.108 67.5075 140.773 66.3506 143.908 64.3143C147.047 62.3331 149.769 59.9084 152.073 57.0402ZM190.088 13.3733C189.927 10.9452 189.023 9.00975 187.376 7.56683C185.78 6.06508 183.823 5.39085 181.506 5.54415C179.961 5.64635 178.307 6.19914 176.544 7.20251L176.462 7.24994C174.727 8.25383 172.999 9.76744 171.278 11.7908C169.636 13.7838 168.132 16.1834 166.766 18.9896C165.451 21.7369 164.178 24.7031 162.948 27.8883C161.718 31.0734 160.461 34.2879 159.18 37.5319C156.994 38.009 154.715 38.326 152.342 38.483L152.297 37.7932C154.507 37.647 156.632 37.36 158.673 36.9332C159.907 33.8078 161.117 30.7098 162.303 27.6392C163.539 24.4393 164.819 21.4565 166.142 18.6912L166.144 18.687C167.529 15.8417 169.061 13.394 170.744 11.3513L170.747 11.3471L170.751 11.343C172.535 9.24519 174.351 7.6557 176.202 6.60177L176.373 6.50554C178.138 5.52522 179.836 4.9618 181.46 4.85438C183.952 4.68954 186.098 5.41912 187.841 7.05517C189.636 8.63196 190.607 10.7435 190.778 13.3277C190.899 15.1582 190.553 17.1085 189.771 19.1693C188.981 21.2515 187.655 23.3706 185.819 25.5275L185.819 25.5276C182.484 29.455 178.76 32.6844 174.646 35.2099L174.644 35.2108L174.643 35.2116C170.69 37.6113 166.48 39.387 162.016 40.538C161.726 41.2762 161.435 41.994 161.142 42.6912C160.855 43.4405 160.539 44.191 160.197 44.9428L160.194 44.9492C159.41 46.6214 158.546 48.3256 157.601 50.0618L157.598 50.0665L157.596 50.0711C156.783 51.5098 155.909 52.9317 154.973 54.3369C156.578 54.9488 158.184 55.5807 159.792 56.2328C161.71 56.9317 163.654 57.6016 165.624 58.2423C167.101 58.7011 168.946 59.3012 171.157 60.0419C173.356 60.7788 175.694 61.507 178.171 62.2266C180.611 62.9165 182.986 63.455 185.298 63.8429L185.521 63.88L185.527 63.8809L185.532 63.8819C187.962 64.3213 190.076 64.4752 191.88 64.3558L191.926 65.0456L191.749 65.0564C189.914 65.1593 187.801 64.9946 185.409 64.5621C183.075 64.1796 180.679 63.6451 178.221 62.9587L177.983 62.8918C175.497 62.1695 173.148 61.438 170.938 60.6974C168.727 59.9569 166.886 59.3581 165.415 58.9012C163.432 58.2564 161.476 57.5822 159.545 56.8785C157.665 56.116 155.788 55.3812 153.912 54.6739C154.954 53.15 155.922 51.6068 156.816 50.0441L156.994 49.7313C157.932 48.0064 158.791 46.3147 159.568 44.656C159.906 43.913 160.218 43.1719 160.501 42.4327C160.836 41.6346 161.17 40.8088 161.501 39.9556C166.027 38.8249 170.288 37.0466 174.284 34.6207C178.332 32.136 182.001 28.9558 185.292 25.0802C187.064 22.9989 188.33 20.9779 189.089 19.0173L189.125 18.924C189.868 16.9652 190.191 15.1418 190.093 13.4535L190.088 13.3733ZM194.59 63.844L194.636 64.5338L194.47 64.5448C194.419 64.6036 194.338 64.6367 194.227 64.644L194.166 64.6634C193.528 64.8616 192.781 64.989 191.926 65.0456L191.88 64.3558C192.722 64.3001 193.431 64.1737 194.016 63.9859L194.051 63.9747L194.139 63.8739L194.59 63.844ZM123.454 60.5127C123.356 59.0228 124.175 57.583 125.912 56.1933C127.649 54.8037 130.256 53.9939 133.733 53.7639L133.976 53.7488C136.488 53.6028 138.995 53.7692 141.496 54.248C144.075 54.6871 146.609 55.2954 149.099 56.0729L149.182 56.0675C147.128 58.5312 144.74 60.5458 142.016 62.1116C139.352 63.7288 136.254 64.6542 132.723 64.8878L132.677 64.1981C136.113 63.9708 139.101 63.0729 141.658 61.5206L141.665 61.5164L141.672 61.5123C144.015 60.1653 146.103 58.4767 147.94 56.4442C145.787 55.8125 143.6 55.3075 141.38 54.9295L141.373 54.9283L141.366 54.927C138.841 54.4437 136.312 54.2861 133.778 54.4537C130.369 54.6792 127.924 55.4689 126.344 56.7331C124.693 58.0544 124.067 59.2983 124.144 60.4671C124.207 61.416 124.783 62.3131 126.122 63.132L126.186 63.171L126.191 63.1737C127.571 64.0148 129.698 64.3951 132.677 64.1981L132.723 64.8878C129.735 65.0855 127.462 64.7256 125.905 63.8082L125.831 63.7641C124.354 62.8797 123.563 61.8157 123.459 60.5721L123.454 60.5127ZM132.564 31.0619C132.449 29.3236 133.219 27.5805 134.876 25.8324L134.956 25.7492C136.691 23.9431 139.606 22.5155 143.701 21.4664L143.897 21.4167C144.714 21.1964 145.099 20.7275 145.051 20.0101C145.026 19.6239 144.838 19.3037 144.489 19.0497C144.2 18.7467 143.845 18.6041 143.421 18.622L143.38 18.6242L143.334 17.9345C143.954 17.8935 144.508 18.0936 144.945 18.5276C145.41 18.8835 145.702 19.3691 145.741 19.9645C145.774 20.4639 145.657 20.9435 145.333 21.3383C145.019 21.7203 144.571 21.9508 144.077 22.0841L144.071 22.0857L144.066 22.0872C139.915 23.1288 137.084 24.5318 135.454 26.2282L135.454 26.2286L135.454 26.2289C133.822 27.9216 133.154 29.5117 133.253 31.0162C133.353 32.5159 134.042 33.8811 135.401 35.123C136.802 36.2987 138.627 37.039 140.918 37.3104L140.927 37.3114L140.935 37.3126C144.864 37.875 148.651 38.0343 152.297 37.7932L152.342 38.483L152.169 38.4942C148.525 38.7224 144.748 38.5566 140.837 37.9969C138.435 37.7124 136.471 36.9278 134.945 35.6431C133.471 34.2996 132.677 32.7726 132.564 31.0619ZM186.253 13.627C186.156 12.1705 185.66 11.0817 184.808 10.2908L184.793 10.2774L184.78 10.2632C183.982 9.43403 182.967 9.0501 181.66 9.13652C180.653 9.20318 179.492 9.61863 178.168 10.4486L178.164 10.4512L178.16 10.4538C176.913 11.2102 175.584 12.4058 174.176 14.0713C172.677 15.8984 171.301 18.0777 170.05 20.6154L170.049 20.6184L170.047 20.6214C168.784 23.1217 167.613 25.783 166.534 28.6057L166.534 28.6081L166.533 28.6106C165.623 30.9369 164.75 33.2412 163.915 35.5234C167.164 34.3886 170.263 32.884 173.212 31.0086C176.551 28.8277 179.615 26.1185 182.404 22.8766C183.91 21.0995 184.936 19.4363 185.512 17.8871C186.098 16.2441 186.332 14.8288 186.253 13.627ZM186.946 13.6435C187.022 14.953 186.76 16.446 186.162 18.1223C185.551 19.77 184.474 21.504 182.931 23.3242C180.101 26.6152 176.985 29.3707 173.585 31.5909C170.181 33.7559 166.579 35.4352 162.778 36.6288C163.7 34.0737 164.669 31.4912 165.685 28.8812L165.889 28.3588C166.942 25.6046 168.082 23.0006 169.311 20.5468L169.43 20.3098C170.701 17.7317 172.105 15.5049 173.644 13.6296C175.038 11.9803 176.382 10.7504 177.676 9.94002L177.801 9.86289C179.185 8.99543 180.456 8.52338 181.615 8.44673C183.105 8.34818 184.326 8.79394 185.278 9.78401C186.282 10.7153 186.837 11.981 186.942 13.5813L186.946 13.6435Z" fill="#DC1111"/>
<path d="M70.3334 38.6389C69.6697 38.6389 69.0614 38.4177 68.5084 37.9753C68.0106 37.4775 67.7618 36.8692 67.7618 36.1503C67.7618 35.376 68.0106 34.74 68.5084 34.2423C69.0061 33.7446 69.6144 33.4957 70.3334 33.4957C71.1076 33.4957 71.7436 33.7446 72.2413 34.2423C72.7391 34.74 72.9879 35.376 72.9879 36.1503C72.9879 36.8692 72.7114 37.4775 72.1584 37.9753C71.6606 38.4177 71.0523 38.6389 70.3334 38.6389ZM58.056 63.5254C57.3371 63.5254 56.7564 63.3318 56.314 62.9447C55.8715 62.5023 55.6503 61.811 55.6503 60.8708C55.6503 59.7095 55.9268 58.2992 56.4799 56.6401C57.0329 54.9257 57.7518 53.1837 58.6367 51.414C59.5216 49.589 60.4617 47.9299 61.4572 46.4367C62.5079 44.8882 63.5034 43.6715 64.4436 42.7867C64.8307 42.3995 65.3008 42.206 65.8538 42.206C66.2962 42.206 66.6833 42.3166 67.0152 42.5378C67.347 42.759 67.5129 43.0355 67.5129 43.3673C67.5129 43.6439 67.3746 43.9204 67.0981 44.1969C66.711 44.584 66.2133 45.22 65.6049 46.1049C65.0519 46.9344 64.4989 47.8193 63.9458 48.7594C63.3928 49.6443 62.978 50.3909 62.7015 50.9992C62.2038 52.05 61.6507 53.239 61.0424 54.5663C60.4341 55.8936 59.9916 56.972 59.7151 57.8015C59.5492 58.3545 59.4663 58.7693 59.4663 59.0458C59.4663 59.6542 59.6875 59.9583 60.1299 59.9583C60.517 59.9583 60.9594 59.7924 61.4572 59.4606C61.9549 59.0735 62.3973 58.7417 62.7845 58.4652C64.167 57.3591 65.439 56.1977 66.6004 54.981C67.8171 53.7091 68.9231 52.52 69.9186 51.414C70.1398 51.1375 70.4163 50.9992 70.7481 50.9992C71.0247 50.9992 71.2735 51.1651 71.4947 51.4969C71.7712 51.7734 71.9095 52.1329 71.9095 52.5753C71.9095 53.0731 71.7712 53.4879 71.4947 53.8197C70.6652 54.981 69.5038 56.2807 68.0106 57.7186C66.5727 59.1011 65.3008 60.2072 64.1947 61.0368C63.4757 61.5898 62.5079 62.1428 61.2913 62.6959C60.1299 63.2489 59.0515 63.5254 58.056 63.5254Z" fill="#DC1111"/>
<path d="M59.4663 59.0458C59.4663 58.7693 59.5492 58.3545 59.7151 57.8015C59.9916 56.972 60.4341 55.8936 61.0424 54.5663C61.5747 53.4049 62.0647 52.3494 62.5123 51.3997L62.7015 50.9992C62.978 50.3909 63.3928 49.6443 63.9458 48.7594C64.4989 47.8193 65.0519 46.9344 65.6049 46.1049C66.2133 45.22 66.711 44.584 67.0981 44.1969C67.3746 43.9204 67.5129 43.6439 67.5129 43.3673C67.5129 43.0459 67.3572 42.7763 67.0458 42.5587L67.0152 42.5378C66.6833 42.3166 66.2962 42.206 65.8538 42.206C65.3008 42.206 64.8307 42.3995 64.4436 42.7867C63.5034 43.6715 62.5079 44.8882 61.4572 46.4367L61.364 46.5772C60.403 48.0337 59.4939 49.646 58.6367 51.414C57.7518 53.1837 57.0329 54.9257 56.4799 56.6401C55.9268 58.2992 55.6503 59.7095 55.6503 60.8708C55.6503 61.811 55.8715 62.5023 56.314 62.9447C56.7426 63.3198 57.3009 63.5131 57.989 63.5248L58.056 63.5254C59.0515 63.5254 60.1299 63.2489 61.2913 62.6959C62.5079 62.1428 63.4757 61.5898 64.1947 61.0368C65.2316 60.2591 66.4144 59.2383 67.7429 57.9746L68.0106 57.7186C69.5038 56.2807 70.6652 54.981 71.4947 53.8197C71.7626 53.4982 71.9007 53.0989 71.9091 52.6218L71.9095 52.5753C71.9095 52.1329 71.7712 51.7734 71.4947 51.4969C71.2804 51.1755 71.0402 51.0097 70.7739 50.9997L70.7481 50.9992C70.4163 50.9992 70.1398 51.1375 69.9186 51.414C68.9231 52.52 67.8171 53.7091 66.6004 54.981L66.4912 55.0949C65.3594 56.2702 64.1238 57.3936 62.7845 58.4652C62.3973 58.7417 61.9549 59.0735 61.4572 59.4606C60.9594 59.7924 60.517 59.9583 60.1299 59.9583L60.1299 59.4744C60.38 59.4744 60.7235 59.3656 61.1753 59.0667C61.6658 58.6855 62.1048 58.3562 62.4919 58.0794C63.8547 56.9885 65.1074 55.8443 66.2504 54.6469L66.2507 54.6466C67.4616 53.3807 68.5618 52.1979 69.5516 51.0984C69.8564 50.7243 70.2641 50.5153 70.7482 50.5153C71.2343 50.5153 71.6043 50.8063 71.8708 51.1896C72.2269 51.5639 72.3934 52.0397 72.3934 52.5753C72.3934 53.1608 72.2302 53.6846 71.8794 54.1135C71.0275 55.3039 69.8469 56.6221 68.3463 58.0671L68.346 58.0674C66.8995 59.4582 65.6121 60.5786 64.485 61.4239C63.7271 62.0061 62.7251 62.5757 61.4915 63.1364C60.2863 63.7093 59.139 64.0093 58.056 64.0093C57.2471 64.0093 56.5445 63.7895 55.9953 63.3089L55.9832 63.2983L55.9718 63.2869C55.4018 62.7169 55.1664 61.8756 55.1664 60.8708C55.1664 59.6382 55.4588 58.1732 56.0208 56.4871C56.5817 54.7493 57.3094 52.9867 58.203 51.1994C59.0957 49.3585 60.046 47.681 61.0545 46.1683L61.0556 46.1666L61.0568 46.165C62.118 44.601 63.1346 43.3548 64.1081 42.4378C64.5858 41.9633 65.177 41.7221 65.8538 41.7221C66.3809 41.7221 66.8637 41.8552 67.2836 42.1352C67.7188 42.4253 67.9968 42.8395 67.9968 43.3673C67.9968 43.8174 67.7695 44.2098 67.4403 44.5391C67.0859 44.8935 66.609 45.4986 66.0057 46.3759C65.4588 47.1965 64.9111 48.0728 64.3629 49.0048L64.3597 49.0104L64.3561 49.0159C63.8089 49.8915 63.4063 50.6181 63.1421 51.1994L63.1388 51.2063C62.6421 52.2549 62.09 53.442 61.4823 54.7679C60.879 56.0842 60.4454 57.1422 60.1767 57.947C60.0143 58.4892 59.9502 58.8449 59.9502 59.0458C59.9502 59.3057 60 59.4132 60.0235 59.4456C60.0315 59.4566 60.0361 59.4591 60.0412 59.4614C60.0489 59.4649 60.0744 59.4744 60.1299 59.4744L60.1299 59.9583C59.7013 59.9583 59.4803 59.6729 59.4669 59.102L59.4663 59.0458ZM72.9879 36.1503C72.9879 35.376 72.7391 34.74 72.2413 34.2423C71.7592 33.7601 71.1472 33.5115 70.4056 33.4964L70.3334 33.4957C69.6144 33.4957 69.0061 33.7446 68.5084 34.2423C68.0106 34.74 67.7618 35.376 67.7618 36.1503L67.7625 36.2173C67.7776 36.9071 68.0262 37.4931 68.5084 37.9753C69.0441 38.4039 69.6317 38.6249 70.2713 38.6383L70.3334 38.6389C71.0523 38.6389 71.6606 38.4177 72.1584 37.9753C72.6941 37.4931 72.9704 36.9071 72.9871 36.2173L72.9879 36.1503ZM73.4718 36.1503C73.4718 37.0117 73.133 37.7491 72.4821 38.3349L72.481 38.336L72.4798 38.337C71.8862 38.8646 71.1606 39.1228 70.3334 39.1228C69.5522 39.1228 68.8387 38.8592 68.206 38.3531L68.1851 38.3364L68.1661 38.3175C67.5755 37.7268 67.2779 36.9945 67.2779 36.1503C67.2779 35.2618 67.5682 34.4981 68.1661 33.9001C68.7568 33.3095 69.4892 33.0118 70.3334 33.0118C71.2219 33.0118 71.9856 33.3022 72.5835 33.9001C73.1815 34.4981 73.4718 35.2618 73.4718 36.1503Z" fill="#DC1111"/>
<path d="M66.1118 63.54C65.7247 63.54 65.3652 63.4018 65.0334 63.1253C64.7016 62.8487 64.5356 62.5169 64.5356 62.1298C64.5356 62.0192 64.591 61.798 64.7016 61.4662C65.8076 59.0881 66.886 56.9313 67.9368 54.9957C69.0429 53.0047 70.1766 51.0691 71.338 49.1888C71.8357 48.4146 72.3887 47.4191 72.9971 46.2024C73.6607 44.9305 74.2967 43.5755 74.905 42.1376C75.5134 40.6444 76.0111 39.2342 76.3982 37.9069C76.8406 36.5796 77.0619 35.5012 77.0619 34.6717C77.0619 34.2293 77.0342 33.9251 76.9789 33.7592C76.9236 33.7039 76.8959 33.5933 76.8959 33.4274C76.8959 32.9849 77.0895 32.6255 77.4766 32.3489C77.9191 32.0171 78.3338 31.8512 78.721 31.8512C79.1634 31.8512 79.5782 32.0724 79.9653 32.5148C80.3524 32.902 80.546 33.5933 80.546 34.5887C80.546 35.4183 80.3524 36.5243 79.9653 37.9069C79.6335 39.2342 79.0528 40.838 78.2232 42.7183C77.7808 43.6585 77.366 44.5433 76.9789 45.3729C76.5918 46.1471 76.2047 46.8937 75.8175 47.6127C77.9744 45.3452 80.1865 43.3267 82.4539 41.5569C84.7214 39.7319 86.7399 38.294 88.5097 37.2433C90.2794 36.1925 91.4684 35.6671 92.0767 35.6671C92.7404 35.6671 93.2104 35.8607 93.487 36.2478C93.7635 36.6349 93.9017 37.0774 93.9017 37.5751C93.9017 38.294 93.6805 39.1236 93.2381 40.0638C92.851 40.9486 92.4362 41.7505 91.9938 42.4695C91.5513 43.1884 91.2472 43.6861 91.0813 43.9626C90.4729 44.9028 89.6434 46.313 88.5926 48.1933C87.5418 50.0737 86.657 51.8987 85.9381 53.6684C85.7168 54.2767 85.4956 54.9127 85.2744 55.5763C85.1085 56.1847 85.0255 56.7101 85.0255 57.1525C85.0255 57.8714 85.3297 58.2309 85.9381 58.2309C86.4911 58.2309 87.293 57.9544 88.3437 57.4014C89.671 56.6824 90.8877 55.7699 91.9938 54.6638C93.1551 53.5025 94.1506 52.507 94.9801 51.6775C95.0354 51.6222 95.2843 51.3456 95.7267 50.8479C96.2245 50.3502 96.6945 49.8524 97.137 49.3547C97.6347 48.857 97.8836 48.6081 97.8836 48.6081C98.1048 48.3316 98.3813 48.1933 98.7131 48.1933C98.9896 48.1933 99.2385 48.3593 99.4597 48.6911C99.7362 48.9676 99.8745 49.3271 99.8745 49.7695C99.8745 50.2672 99.7362 50.682 99.4597 51.0138C98.6302 52.1752 97.4964 53.4472 96.0586 54.8298C94.6207 56.2123 93.3487 57.3461 92.2426 58.2309C91.0813 59.1158 89.8922 59.8347 88.6756 60.3877C87.5142 60.8855 86.3528 61.1343 85.1915 61.1343C84.196 61.1343 83.3664 60.9408 82.7028 60.5536C82.0392 60.1665 81.7073 59.1434 81.7073 57.4843C81.7073 55.3828 82.2327 53.3089 83.2835 51.2627C84.3896 49.2165 85.6062 47.1979 86.9335 45.207C88.3161 43.216 89.4498 41.3357 90.3347 39.566C88.9521 40.3956 87.0994 41.6676 84.7767 43.382C82.5092 45.0964 80.1035 47.1149 77.5596 49.4377C75.0709 51.7051 72.8035 54.1938 70.7573 56.9036C70.3702 57.6226 69.9554 58.3968 69.5129 59.2264C69.0705 60.0559 68.6281 60.9684 68.1857 61.9639C67.6879 63.0146 66.9967 63.54 66.1118 63.54Z" fill="#DC1111"/>
<path d="M99.8745 49.7695C99.8745 49.3271 99.7362 48.9676 99.4597 48.6911C99.2454 48.3696 99.0051 48.2039 98.7389 48.1938L98.7131 48.1933C98.3813 48.1933 98.1048 48.3316 97.8836 48.6081C97.8836 48.6081 97.6347 48.857 97.137 49.3547L96.9698 49.5414C96.5766 49.9769 96.1623 50.4124 95.7267 50.8479L95.4312 51.1797C95.172 51.47 95.0216 51.6359 94.9801 51.6775L91.9938 54.6638L91.8897 54.767C90.8116 55.8268 89.6295 56.7049 88.3437 57.4014C87.293 57.9544 86.4911 58.2309 85.9381 58.2309L85.938 57.747C86.3637 57.747 87.0747 57.5224 88.1184 56.9731C89.4011 56.2776 90.5787 55.3945 91.6516 54.3216C92.8129 53.1603 93.8084 52.1649 94.638 51.3353C94.638 51.3353 94.6385 51.3348 94.6395 51.3338C94.6404 51.3328 94.6417 51.3315 94.6434 51.3297C94.6469 51.3261 94.6513 51.3214 94.6569 51.3154C94.6682 51.3034 94.6829 51.2875 94.7012 51.2675C94.7378 51.2276 94.7868 51.1735 94.8486 51.1049C94.972 50.9677 95.1441 50.775 95.365 50.5264L95.3745 50.5158L95.3845 50.5058C95.8759 50.0144 96.3395 49.5235 96.7753 49.0333L96.7848 49.0226L97.4947 48.3126C97.5073 48.3 97.5173 48.29 97.5248 48.2825C97.8287 47.9147 98.2334 47.7095 98.7131 47.7095C99.1993 47.7095 99.5693 48.0004 99.8358 48.3837C100.192 48.7581 100.358 49.2339 100.358 49.7695C100.358 50.355 100.195 50.8788 99.8444 51.3077C98.9931 52.4973 97.8404 53.7877 96.3939 55.1786C94.9494 56.5676 93.666 57.7119 92.5449 58.6088L92.5405 58.6124L92.5359 58.6158C91.3483 59.5206 90.1283 60.2589 88.8758 60.8283L88.871 60.8304L88.8662 60.8325C87.6499 61.3538 86.4239 61.6182 85.1914 61.6182C84.1351 61.6182 83.2154 61.4129 82.4589 60.9716C81.9897 60.6979 81.6839 60.2248 81.4959 59.6453C81.3083 59.0668 81.2235 58.3402 81.2235 57.4843C81.2235 55.2988 81.7705 53.1497 82.853 51.0416L82.8554 51.0371L82.8578 51.0326C83.9711 48.9729 85.1956 46.9415 86.5309 44.9386L86.5334 44.9347L86.536 44.9309C87.4949 43.5502 88.331 42.2258 89.0455 40.9578C87.9295 41.6984 86.6038 42.6348 85.0672 43.769C82.8142 45.4725 80.4205 47.4808 77.8859 49.795L77.8855 49.7954C75.428 52.0344 73.1881 54.4911 71.1655 57.1661C70.7838 57.875 70.3753 58.6377 69.9399 59.4541C69.5037 60.272 69.0663 61.1739 68.6278 62.1604L68.6255 62.1658L68.623 62.171C68.0751 63.3278 67.2445 64.024 66.1118 64.024C65.5982 64.024 65.1316 63.837 64.7236 63.497C64.2959 63.1405 64.0517 62.6783 64.0517 62.1298C64.0517 62.012 64.0783 61.881 64.1076 61.7636C64.1394 61.6364 64.1851 61.4853 64.2425 61.3131L64.2512 61.287L64.2628 61.2621C65.3723 58.8766 66.4552 56.7106 67.5115 54.7648L67.5127 54.7627L67.5138 54.7606C68.6234 52.7634 69.7608 50.8213 70.9262 48.9345L70.9285 48.9308L70.9309 48.9271C71.416 48.1726 71.9604 47.1937 72.5642 45.986L72.5661 45.9823L72.5681 45.9786C73.225 44.7195 73.8553 43.3769 74.4588 41.9504C75.061 40.4719 75.5523 39.079 75.9337 37.7714L75.9362 37.7626L75.9391 37.7539C76.3748 36.447 76.578 35.4256 76.578 34.6717C76.578 34.3023 76.5569 34.0806 76.5341 33.9684C76.4896 33.893 76.4634 33.8168 76.4472 33.7521C76.4205 33.6454 76.412 33.5336 76.412 33.4273C76.412 32.8184 76.6895 32.3196 77.1878 31.9607C77.6787 31.5928 78.1933 31.3673 78.721 31.3673C79.3402 31.3673 79.8739 31.6804 80.3189 32.1844C80.8385 32.7136 81.0298 33.5679 81.0298 34.5887C81.0298 35.4814 80.8236 36.6342 80.4333 38.0296C80.0922 39.3922 79.5006 41.0218 78.666 42.9136L78.6636 42.919L78.6611 42.9244C78.304 43.6831 77.965 44.4058 77.644 45.0923C79.1213 43.6763 80.6244 42.3712 82.1535 41.1776C84.4309 39.3447 86.4678 37.8929 88.2626 36.8272C89.1557 36.297 89.9139 35.8922 90.5331 35.6185C91.1349 35.3526 91.664 35.1832 92.0767 35.1832C92.8302 35.1833 93.4806 35.4065 93.8807 35.9666C94.2187 36.4397 94.3856 36.9815 94.3856 37.5751C94.3856 38.3882 94.1371 39.2883 93.6785 40.2642C93.2845 41.1642 92.8605 41.9843 92.4059 42.7231C91.9634 43.4421 91.6605 43.9377 91.4962 44.2116L91.492 44.2186L91.4875 44.2255C90.8879 45.1523 90.0644 46.5515 89.015 48.4294C87.9746 50.2912 87.0999 52.0952 86.39 53.8414C86.1728 54.439 85.9554 55.0638 85.7379 55.716C85.5813 56.2933 85.5095 56.7697 85.5095 57.1525C85.5095 57.4553 85.5752 57.5922 85.6231 57.6487C85.6579 57.6898 85.7316 57.747 85.938 57.747L85.9381 58.2309C85.3487 58.2309 85.0449 57.8935 85.0264 57.2189L85.0255 57.1525C85.0255 56.7101 85.1085 56.1847 85.2744 55.5763C85.4956 54.9127 85.7168 54.2767 85.9381 53.6684C86.6345 51.954 87.4867 50.1876 88.4946 48.3694L88.5926 48.1933C89.5777 46.4306 90.3684 45.0809 90.9646 44.1445L91.0813 43.9626C91.2472 43.6861 91.5513 43.1884 91.9938 42.4695C92.4362 41.7505 92.851 40.9486 93.2381 40.0638C93.6805 39.1236 93.9017 38.294 93.9017 37.5751C93.9017 37.0774 93.7635 36.6349 93.487 36.2478C93.2191 35.8728 92.7695 35.6794 92.1384 35.6677L92.0767 35.6671C91.4684 35.6671 90.2794 36.1925 88.5097 37.2433C86.7399 38.294 84.7214 39.7319 82.4539 41.5569C80.1865 43.3267 77.9744 45.3452 75.8175 47.6127C76.2047 46.8937 76.5918 46.1471 76.9789 45.3729C77.2692 44.7507 77.5752 44.0974 77.8966 43.4131L78.2232 42.7183C79.0528 40.838 79.6335 39.2342 79.9653 37.9069C80.3524 36.5243 80.546 35.4183 80.546 34.5887C80.546 33.5933 80.3524 32.902 79.9653 32.5148C79.5903 32.0863 79.1893 31.8653 78.7624 31.8519L78.721 31.8512C78.3338 31.8512 77.9191 32.0171 77.4766 32.3489C77.0895 32.6255 76.8959 32.9849 76.8959 33.4274C76.8959 33.5933 76.9236 33.7039 76.9789 33.7592C77.0342 33.9251 77.0619 34.2293 77.0619 34.6717L77.0612 34.7502C77.0478 35.5689 76.8268 36.6211 76.3982 37.9069C76.0111 39.2342 75.5134 40.6444 74.905 42.1376C74.2967 43.5755 73.6607 44.9305 72.9971 46.2024L72.8837 46.4279C72.3198 47.5427 71.8046 48.463 71.338 49.1888L71.1205 49.542C70.035 51.3113 68.9737 53.1292 67.9368 54.9957L67.7395 55.3612C66.7512 57.2018 65.7385 59.2367 64.7016 61.4662L64.6627 61.5854C64.578 61.8515 64.5356 62.033 64.5356 62.1298C64.5356 62.5169 64.7016 62.8487 65.0334 63.1253C65.3548 63.3931 65.7022 63.5313 66.0756 63.5396L66.1118 63.54C66.9967 63.54 67.6879 63.0146 68.1857 61.9639C68.6281 60.9684 69.0705 60.0559 69.5129 59.2264C69.9554 58.3968 70.3702 57.6226 70.7573 56.9036C72.7396 54.2784 74.9294 51.8609 77.3269 49.6509L77.5596 49.4377C80.1035 47.1149 82.5092 45.0964 84.7767 43.382C87.0994 41.6676 88.9521 40.3956 90.3347 39.566C89.4498 41.3357 88.3161 43.216 86.9335 45.207L86.8094 45.3937C85.5303 47.3241 84.355 49.2804 83.2835 51.2627L83.2346 51.3586C82.2164 53.3737 81.7073 55.4156 81.7073 57.4843L81.7083 57.638C81.7284 59.2067 82.0599 60.1786 82.7028 60.5536C83.3664 60.9408 84.196 61.1343 85.1915 61.1343C86.3165 61.1343 87.4416 60.9008 88.5667 60.4337L88.6756 60.3877C89.8922 59.8347 91.0813 59.1158 92.2426 58.2309C93.2796 57.4014 94.4623 56.353 95.7909 55.086L96.0586 54.8298C97.4964 53.4472 98.6302 52.1752 99.4597 51.0138C99.7276 50.6924 99.8657 50.2931 99.8741 49.8159L99.8745 49.7695Z" fill="#DC1111"/>
<path d="M102.667 61.3445C100.952 61.3445 99.4869 60.8191 98.2702 59.7684C97.1089 58.7176 96.5282 56.8926 96.5282 54.2933C96.5282 52.5236 96.9706 50.4497 97.8555 48.0717C98.7956 45.6937 100.04 43.3986 101.588 41.1864C103.137 38.919 104.851 37.0663 106.732 35.6284C108.612 34.1353 110.52 33.3887 112.456 33.3887C113.728 33.3887 114.668 33.8587 115.276 34.7989C115.94 35.6837 116.271 36.7622 116.271 38.0341C116.271 39.9145 115.663 41.7395 114.446 43.5092C113.23 45.2789 111.681 46.7168 109.801 47.8228C107.976 48.9289 106.151 49.4819 104.326 49.4819C102.833 49.4819 101.699 49.0119 100.925 48.0717C100.482 49.1778 100.123 50.2562 99.8464 51.3069C99.5698 52.3577 99.4316 53.3532 99.4316 54.2933C99.4316 55.8971 99.7634 57.0308 100.427 57.6945C101.146 58.3028 102.031 58.607 103.082 58.607C104.354 58.607 105.764 58.2752 107.312 57.6115C108.916 56.9479 110.409 56.1736 111.792 55.2888C113.174 54.3486 114.198 53.5744 114.861 52.966C115.967 52.0259 117.018 51.0028 118.014 49.8967C119.064 48.7353 119.977 47.6569 120.751 46.6615C121.028 46.3296 121.332 46.1637 121.664 46.1637C121.995 46.1637 122.272 46.3296 122.493 46.6615C122.77 46.938 122.908 47.2975 122.908 47.7399C122.908 48.127 122.77 48.5141 122.493 48.9012C121.608 50.0073 120.502 51.2793 119.175 52.7172C117.903 54.0998 116.465 55.3994 114.861 56.6161C113.976 57.335 112.843 58.054 111.46 58.7729C110.077 59.4918 108.612 60.1002 107.063 60.5979C105.57 61.0956 104.105 61.3445 102.667 61.3445ZM104.16 46.8274C105.266 46.8274 106.455 46.4679 107.727 45.749C109.054 45.03 110.216 44.0899 111.211 42.9285C112.262 41.7118 112.953 40.4122 113.285 39.0296C113.34 38.919 113.368 38.7807 113.368 38.6148C113.368 38.4489 113.368 38.3107 113.368 38.2001C113.368 37.2046 113.009 36.7069 112.29 36.7069C111.128 36.7069 109.912 37.1493 108.64 38.0341C107.368 38.8637 106.151 39.9974 104.99 41.4353C103.884 42.8179 102.888 44.3387 102.003 45.9978C102.224 46.1637 102.446 46.3296 102.667 46.4956C102.888 46.6062 103.109 46.6891 103.33 46.7444C103.441 46.7997 103.579 46.8274 103.745 46.8274C103.911 46.8274 104.049 46.8274 104.16 46.8274Z" fill="#DC1111"/>
<path d="M99.4316 54.2933C99.4316 53.3826 99.5613 52.4199 99.8208 51.4053L99.8464 51.3069C100.123 50.2562 100.482 49.1778 100.925 48.0717C101.699 49.0119 102.833 49.4819 104.326 49.4819C106.151 49.4819 107.976 48.9289 109.801 47.8228C111.652 46.7341 113.181 45.3237 114.389 43.5919L114.446 43.5092C115.644 41.7671 116.252 39.9715 116.271 38.1223L116.271 38.0341C116.271 36.7622 115.94 35.6837 115.276 34.7989C114.677 33.8734 113.757 33.4035 112.515 33.389L112.456 33.3887C110.52 33.3887 108.612 34.1353 106.732 35.6284C104.851 37.0663 103.137 38.919 101.588 41.1864C100.04 43.3986 98.7956 45.6937 97.8555 48.0717L97.7738 48.2938C96.9434 50.5791 96.5282 52.5789 96.5282 54.2933L96.5286 54.4146C96.5464 56.9494 97.127 58.734 98.2702 59.7684C99.4679 60.8027 100.907 61.328 102.587 61.3441L102.667 61.3445C104.105 61.3445 105.57 61.0956 107.063 60.5979C108.564 60.1157 109.986 59.5297 111.33 58.8399L111.46 58.7729C112.843 58.054 113.976 57.335 114.861 56.6161C116.465 55.3994 117.903 54.0998 119.175 52.7172C120.419 51.3692 121.469 50.1669 122.325 49.1106L122.493 48.9012C122.77 48.5141 122.908 48.127 122.908 47.7399C122.908 47.2975 122.77 46.938 122.493 46.6615C122.272 46.3296 121.995 46.1637 121.664 46.1637C121.332 46.1637 121.028 46.3296 120.751 46.6615L120.604 46.8491C119.862 47.792 118.999 48.8079 118.014 49.8967C117.018 51.0028 115.967 52.0259 114.861 52.966L114.798 53.0236C114.133 53.6229 113.131 54.378 111.792 55.2888C110.409 56.1736 108.916 56.9479 107.312 57.6115L107.168 57.6728C105.676 58.2956 104.314 58.607 103.082 58.607L103.082 57.9157C104.235 57.9157 105.551 57.6143 107.04 56.9762L107.044 56.9744L107.048 56.9728C108.613 56.3252 110.067 55.5711 111.411 54.7116C112.781 53.7798 113.769 53.0296 114.394 52.4564L114.404 52.4477L114.414 52.4394C115.496 51.5196 116.524 50.518 117.5 49.4343L117.501 49.4329C118.543 48.2814 119.444 47.2162 120.205 46.237L120.213 46.2279L120.22 46.2189C120.585 45.7806 121.068 45.4724 121.664 45.4724C122.251 45.4724 122.711 45.7734 123.03 46.2223C123.42 46.6384 123.599 47.1635 123.599 47.7398C123.599 48.3013 123.396 48.826 123.056 49.3031L123.045 49.3184L123.033 49.3331C122.135 50.4557 121.017 51.7404 119.683 53.1861L119.683 53.186C118.384 54.5982 116.918 55.9228 115.287 57.1605C114.357 57.9147 113.184 58.6555 111.779 59.3862C110.363 60.1228 108.863 60.745 107.282 61.2537C105.725 61.7727 104.186 62.0358 102.667 62.0358C100.798 62.0358 99.1694 61.4583 97.8184 60.2915L97.8123 60.2863L97.8064 60.281C96.4285 59.0343 95.8369 56.964 95.8369 54.2933C95.8369 52.414 96.3054 50.2552 97.2076 47.8306L97.21 47.824L97.2126 47.8176C98.1737 45.3865 99.4443 43.0439 101.022 40.79C102.604 38.4751 104.365 36.5684 106.309 35.0809C108.28 33.5186 110.332 32.6974 112.456 32.6974C113.916 32.6974 115.087 33.2501 115.842 34.4022C116.6 35.4206 116.963 36.6442 116.963 38.0342C116.963 40.0735 116.3 42.0328 115.016 43.9008C113.741 45.7551 112.117 47.2622 110.151 48.4187C108.239 49.5759 106.295 50.1732 104.326 50.1732C103.107 50.1732 102.051 49.8853 101.206 49.2767C100.935 50.0274 100.704 50.7627 100.515 51.4829C100.251 52.4849 100.123 53.4209 100.123 54.2933C100.123 55.8126 100.438 56.711 100.895 57.1847C101.471 57.6633 102.185 57.9157 103.082 57.9157L103.082 58.607C102.031 58.607 101.146 58.3028 100.427 57.6945C99.7841 57.0516 99.4526 55.9675 99.4325 54.4423L99.4316 54.2933ZM104.16 46.1361L104.16 46.8274H103.745L103.745 46.1361H104.16ZM112.677 38.6148V38.2C112.677 37.7648 112.594 37.563 112.538 37.4849C112.512 37.4484 112.47 37.3981 112.29 37.3981C111.31 37.3981 110.229 37.7709 109.034 38.6016L109.026 38.6075L109.017 38.6132C107.818 39.3952 106.654 40.475 105.529 41.8672L105.429 41.9939C104.506 43.1615 103.662 44.4312 102.897 45.8037L103.028 45.9025C103.167 45.9687 103.303 46.0198 103.435 46.0569L103.498 46.0738L103.572 46.0922L103.64 46.1261C103.627 46.1199 103.652 46.1361 103.745 46.1361L103.745 46.8274L103.714 46.8271C103.562 46.8238 103.434 46.7963 103.33 46.7444C103.109 46.6891 102.888 46.6062 102.667 46.4956C102.446 46.3296 102.224 46.1637 102.003 45.9978C102.888 44.3387 103.884 42.8179 104.99 41.4353C106.115 40.0423 107.292 38.9348 108.521 38.1128L108.64 38.0341C109.912 37.1493 111.128 36.7069 112.29 36.7069C113.009 36.7069 113.368 37.2046 113.368 38.2001V38.6148C113.368 38.7807 113.34 38.919 113.285 39.0296L113.269 39.0944C112.932 40.4528 112.246 41.7308 111.211 42.9285C110.216 44.0899 109.054 45.03 107.727 45.749C106.455 46.4679 105.266 46.8274 104.16 46.8274L104.16 46.1361C105.115 46.1361 106.186 45.8257 107.387 45.1472L107.392 45.1441L107.398 45.1411C108.65 44.4629 109.745 43.5767 110.686 42.4786L110.687 42.4776L110.688 42.4766C111.676 41.3325 112.31 40.1302 112.613 38.8683L112.631 38.7913L112.667 38.7204C112.661 38.7329 112.677 38.7084 112.677 38.6148Z" fill="#DC1111"/>
<path d="M180.838 58.3431C179.123 58.3431 177.658 57.8177 176.441 56.7669C175.28 55.7162 174.699 53.8912 174.699 51.2919C174.699 49.5222 175.141 47.4483 176.026 45.0703C176.966 42.6922 178.211 40.3971 179.759 38.185C181.308 35.9176 183.022 34.0649 184.902 32.627C186.783 31.1338 188.691 30.3872 190.626 30.3872C191.898 30.3872 192.838 30.8573 193.447 31.7975C194.11 32.6823 194.442 33.7607 194.442 35.0327C194.442 36.913 193.834 38.738 192.617 40.5078C191.401 42.2775 189.852 43.7154 187.972 44.8214C186.147 45.9275 184.322 46.4805 182.497 46.4805C181.004 46.4805 179.87 46.0104 179.096 45.0703C178.653 46.1763 178.294 47.2548 178.017 48.3055C177.741 49.3563 177.602 50.3518 177.602 51.2919C177.602 52.8957 177.934 54.0294 178.598 54.6931C179.317 55.3014 180.202 55.6056 181.252 55.6056C182.524 55.6056 183.935 55.2737 185.483 54.6101C187.087 53.9465 188.58 53.1722 189.963 52.2874C191.345 51.3472 192.368 50.573 193.032 49.9646C194.138 49.0245 195.189 48.0014 196.184 46.8953C197.235 45.7339 198.148 44.6555 198.922 43.66C199.198 43.3282 199.503 43.1623 199.834 43.1623C200.166 43.1623 200.443 43.3282 200.664 43.66C200.94 43.9366 201.079 44.296 201.079 44.7385C201.079 45.1256 200.94 45.5127 200.664 45.8998C199.779 47.0059 198.673 48.2779 197.346 49.7158C196.074 51.0983 194.636 52.398 193.032 53.6146C192.147 54.3336 191.013 55.0525 189.631 55.7715C188.248 56.4904 186.783 57.0988 185.234 57.5965C183.741 58.0942 182.276 58.3431 180.838 58.3431ZM182.331 43.826C183.437 43.826 184.626 43.4665 185.898 42.7475C187.225 42.0286 188.387 41.0884 189.382 39.9271C190.433 38.7104 191.124 37.4108 191.456 36.0282C191.511 35.9176 191.539 35.7793 191.539 35.6134C191.539 35.4475 191.539 35.3092 191.539 35.1986C191.539 34.2032 191.179 33.7054 190.46 33.7054C189.299 33.7054 188.082 34.1479 186.81 35.0327C185.538 35.8623 184.322 36.996 183.16 38.4339C182.054 39.8165 181.059 41.3373 180.174 42.9964C180.395 43.1623 180.616 43.3282 180.838 43.4941C181.059 43.6047 181.28 43.6877 181.501 43.743C181.612 43.7983 181.75 43.826 181.916 43.826C182.082 43.826 182.22 43.826 182.331 43.826Z" fill="#DC1111"/>
<path d="M177.602 51.2919C177.602 50.3811 177.732 49.4185 177.992 48.4039L178.017 48.3055C178.294 47.2548 178.653 46.1763 179.096 45.0703C179.87 46.0104 181.004 46.4805 182.497 46.4805C184.322 46.4805 186.147 45.9275 187.972 44.8214C189.823 43.7326 191.352 42.3223 192.56 40.5905L192.617 40.5078C193.815 38.7657 194.423 36.9701 194.442 35.1208L194.442 35.0327C194.442 33.7607 194.11 32.6823 193.447 31.7975C192.848 30.872 191.928 30.402 190.686 30.3876L190.626 30.3872C188.691 30.3872 186.783 31.1338 184.902 32.627C183.022 34.0649 181.308 35.9176 179.759 38.185C178.211 40.3971 176.966 42.6922 176.026 45.0703L175.945 45.2923C175.114 47.5777 174.699 49.5775 174.699 51.2919L174.699 51.4132C174.717 53.948 175.298 55.7326 176.441 56.7669C177.639 57.8013 179.078 58.3266 180.758 58.3427L180.838 58.3431C182.276 58.3431 183.741 58.0942 185.234 57.5965C186.734 57.1143 188.157 56.5283 189.501 55.8385L189.631 55.7715C191.013 55.0525 192.147 54.3336 193.032 53.6146C194.636 52.398 196.074 51.0983 197.346 49.7158C198.59 48.3677 199.64 47.1655 200.495 46.1091L200.664 45.8998C200.94 45.5127 201.079 45.1256 201.079 44.7385C201.079 44.296 200.94 43.9366 200.664 43.66C200.443 43.3282 200.166 43.1623 199.834 43.1623C199.503 43.1623 199.198 43.3282 198.922 43.66L198.775 43.8477C198.033 44.7906 197.169 45.8065 196.184 46.8953C195.189 48.0014 194.138 49.0245 193.032 49.9646L192.969 50.0222C192.304 50.6215 191.302 51.3766 189.963 52.2874C188.58 53.1722 187.087 53.9465 185.483 54.6101L185.338 54.6714C183.847 55.2942 182.485 55.6056 181.252 55.6056L181.252 54.9143C182.406 54.9143 183.722 54.6129 185.211 53.9747L185.215 53.973L185.219 53.9714C186.784 53.3237 188.238 52.5697 189.582 51.7102C190.952 50.7784 191.94 50.0281 192.565 49.455L192.574 49.4463L192.584 49.4379C193.666 48.5182 194.695 47.5166 195.671 46.4328L195.672 46.4315C196.714 45.2799 197.615 44.2148 198.376 43.2356L198.383 43.2264L198.391 43.2175C198.756 42.7792 199.239 42.471 199.834 42.471C200.422 42.471 200.882 42.772 201.201 43.2209C201.591 43.637 201.77 44.1621 201.77 44.7384C201.77 45.2998 201.567 45.8245 201.226 46.3017L201.216 46.317L201.204 46.3317C200.306 47.4542 199.188 48.7389 197.854 50.1847L197.854 50.1846C196.554 51.5967 195.089 52.9214 193.458 54.1591C192.528 54.9133 191.355 55.6541 189.95 56.3848C188.533 57.1213 187.034 57.7436 185.453 58.2522C183.896 58.7713 182.357 59.0344 180.838 59.0344C178.969 59.0344 177.34 58.4569 175.989 57.2901L175.983 57.2849L175.977 57.2796C174.599 56.0329 174.008 53.9626 174.008 51.2919C174.008 49.4126 174.476 47.2538 175.378 44.8292L175.381 44.8226L175.383 44.8161C176.345 42.3851 177.615 40.0425 179.193 37.7886C180.775 35.4737 182.536 33.5669 184.48 32.0795C186.45 30.5171 188.503 29.696 190.626 29.696C192.086 29.696 193.258 30.2487 194.013 31.4008C194.771 32.4192 195.134 33.6428 195.134 35.0327C195.134 37.0721 194.471 39.0314 193.187 40.8994C191.912 42.7537 190.288 44.2608 188.322 45.4172C186.41 46.5745 184.465 47.1718 182.497 47.1718C181.278 47.1718 180.222 46.8839 179.377 46.2753C179.105 47.0259 178.875 47.7613 178.686 48.4815C178.422 49.4835 178.294 50.4195 178.294 51.2919C178.294 52.8112 178.609 53.7096 179.066 54.1833C179.642 54.6619 180.356 54.9143 181.252 54.9143L181.252 55.6056C180.202 55.6056 179.317 55.3014 178.598 54.6931C177.955 54.0502 177.623 52.9661 177.603 51.4409L177.602 51.2919ZM182.331 43.1347L182.331 43.826H181.916L181.916 43.1347H182.331ZM190.848 35.6134V35.1986C190.848 34.7634 190.765 34.5616 190.709 34.4835C190.682 34.447 190.641 34.3967 190.46 34.3967C189.48 34.3967 188.399 34.7695 187.205 35.6002L187.197 35.6061L187.188 35.6118C185.989 36.3938 184.825 37.4736 183.7 38.8658L183.599 38.9925C182.677 40.1601 181.833 41.4297 181.067 42.8023L181.199 42.9011C181.338 42.9672 181.474 43.0184 181.606 43.0555L181.669 43.0724L181.743 43.0907L181.81 43.1247C181.798 43.1185 181.823 43.1347 181.916 43.1347L181.916 43.826L181.885 43.8256C181.733 43.8224 181.605 43.7948 181.501 43.743C181.28 43.6877 181.059 43.6047 180.838 43.4941C180.616 43.3282 180.395 43.1623 180.174 42.9964C181.059 41.3373 182.054 39.8165 183.16 38.4339C184.285 37.0409 185.462 35.9334 186.691 35.1114L186.81 35.0327C188.082 34.1479 189.299 33.7054 190.46 33.7054C191.179 33.7054 191.539 34.2032 191.539 35.1986V35.6134C191.539 35.7793 191.511 35.9176 191.456 36.0282L191.44 36.093C191.102 37.4514 190.416 38.7294 189.382 39.9271C188.387 41.0884 187.225 42.0286 185.898 42.7475C184.626 43.4665 183.437 43.826 182.331 43.826L182.331 43.1347C183.285 43.1347 184.357 42.8243 185.558 42.1458L185.563 42.1426L185.569 42.1397C186.821 41.4615 187.916 40.5753 188.857 39.4772L188.858 39.4762L188.859 39.4752C189.847 38.3311 190.481 37.1288 190.784 35.8669L190.802 35.7898L190.838 35.719C190.831 35.7314 190.848 35.7069 190.848 35.6134Z" fill="#DC1111"/>
<path d="M200.432 55.8398C199.038 55.8398 197.993 55.4131 197.296 54.5598C196.649 53.6532 196.326 52.5332 196.326 51.1998C196.326 49.7065 196.724 47.9732 197.52 45.9999C198.366 43.9732 199.461 41.8932 200.805 39.7599C202.149 37.6266 203.617 35.6533 205.21 33.84C206.852 31.9733 208.495 30.48 210.137 29.36C211.78 28.1867 213.298 27.6 214.691 27.6C215.637 27.6 216.558 27.76 217.454 28.08C218.35 28.3467 219.071 28.9067 219.619 29.76C220.216 30.6133 220.515 31.8666 220.515 33.52C220.515 34.1066 220.365 34.5333 220.067 34.7999C219.768 35.0666 219.494 35.1999 219.246 35.1999C218.698 35.1999 218.424 34.9866 218.424 34.56C218.175 32.8533 217.653 31.7333 216.856 31.2C216.11 30.6666 215.388 30.4 214.691 30.4C213.696 30.4 212.526 30.9333 211.183 32C209.839 33.0666 208.47 34.4266 207.076 36.0799C205.683 37.7333 204.364 39.5199 203.12 41.4399C201.925 43.3066 200.955 45.1199 200.208 46.8799C199.461 48.5865 199.088 49.9998 199.088 51.1198C199.088 51.6532 199.163 52.1332 199.312 52.5598C199.511 52.9865 199.81 53.1998 200.208 53.1998C200.955 53.1998 201.925 52.7732 203.12 51.9198C204.314 51.0665 205.583 49.9732 206.927 48.6399C208.321 47.2532 209.689 45.8132 211.033 44.3199C212.377 42.8266 213.596 41.4132 214.691 40.0799C215.786 38.7466 215.855 38.7574 216.503 38.0051C216.99 37.4686 217.252 37.3351 217.7 37.3351C218.048 37.3351 218.372 37.4685 218.67 37.7351C218.969 38.0018 219.118 38.3484 219.118 38.7751C219.118 38.9884 219.069 39.3355 218.92 39.6022C218.636 40.2003 218.507 40.3915 218.275 40.7999C217.827 41.8666 217.354 43.0132 216.856 44.2399C216.409 45.4665 216.01 46.6132 215.662 47.6799C215.363 48.6932 215.214 49.4665 215.214 49.9998C215.214 50.5332 215.388 50.7998 215.737 50.7998C215.985 50.7998 216.284 50.6665 216.633 50.3998C217.031 50.1332 217.379 49.8932 217.678 49.6798C218.872 48.6132 220.017 47.4932 221.112 46.3199C222.207 45.0932 223.202 43.9466 224.098 42.8799C224.297 42.6132 224.546 42.4799 224.845 42.4799C225.094 42.4799 225.318 42.6399 225.517 42.9599C225.766 43.2266 225.89 43.5732 225.89 43.9999C225.89 44.4799 225.766 44.8799 225.517 45.1999C224.72 46.3199 223.675 47.5732 222.381 48.9599C221.087 50.2932 219.942 51.3598 218.947 52.1598C218.3 52.6398 217.528 53.1198 216.633 53.5998C215.786 54.0265 214.965 54.2398 214.169 54.2398C213.572 54.2398 213.074 54.0531 212.676 53.6798C212.278 53.2532 212.078 52.5332 212.078 51.5198C212.078 50.7198 212.203 49.8132 212.452 48.7999C212.701 47.7865 212.999 46.7465 213.348 45.6799C211.954 47.2799 210.461 48.8532 208.868 50.3998C207.275 51.9465 205.733 53.2532 204.239 54.3198C202.796 55.3331 201.527 55.8398 200.432 55.8398Z" fill="#DC1111"/>
<path d="M199.088 51.1198C199.088 50.0348 199.438 48.6746 200.139 47.039L200.208 46.8799C200.955 45.1199 201.925 43.3066 203.12 41.4399C204.325 39.5799 205.6 37.8451 206.946 36.2353L207.076 36.0799C208.47 34.4266 209.839 33.0666 211.183 32C212.526 30.9333 213.696 30.4 214.691 30.4L214.757 30.4007C215.433 30.4169 216.133 30.6833 216.856 31.2C217.653 31.7333 218.175 32.8533 218.424 34.56L218.425 34.5993C218.441 34.9868 218.698 35.1869 219.195 35.1993L219.246 35.1999C219.479 35.1999 219.734 35.0828 220.011 34.8484L220.067 34.7999C220.356 34.5416 220.505 34.1331 220.514 33.5745L220.515 33.52C220.515 31.8666 220.216 30.6133 219.619 29.76C219.071 28.9067 218.35 28.3467 217.454 28.08C216.586 27.77 215.695 27.6102 214.78 27.6005L214.691 27.6C213.298 27.6 211.78 28.1867 210.137 29.36L209.983 29.4661C208.392 30.5737 206.801 32.0316 205.21 33.84C203.617 35.6533 202.149 37.6266 200.805 39.7599L200.68 39.9597C199.393 42.0232 198.34 44.0365 197.52 45.9999L197.447 46.1841C196.699 48.0813 196.326 49.7532 196.326 51.1998L196.327 51.3242C196.346 52.6029 196.669 53.6815 197.296 54.5598C197.982 55.3998 199.006 55.8264 200.367 55.8395L200.432 55.8398C201.493 55.8398 202.717 55.3643 204.105 54.4133L204.239 54.3198C205.686 53.2865 207.179 52.0279 208.719 50.5441L208.868 50.3998C210.461 48.8532 211.954 47.2799 213.348 45.6799C212.999 46.7465 212.701 47.7865 212.452 48.7999C212.203 49.8132 212.078 50.7198 212.078 51.5198L212.079 51.614C212.091 52.5779 212.29 53.2665 212.676 53.6798C213.061 54.0415 213.541 54.2279 214.113 54.2392L214.169 54.2398C214.94 54.2398 215.735 54.0396 216.553 53.6392L216.633 53.5998C217.528 53.1198 218.3 52.6398 218.947 52.1598C219.942 51.3598 221.087 50.2932 222.381 48.9599C223.675 47.5732 224.72 46.3199 225.517 45.1999C225.758 44.8899 225.882 44.5048 225.89 44.0446L225.89 43.9999C225.89 43.5732 225.766 43.2266 225.517 42.9599C225.318 42.6399 225.094 42.4799 224.845 42.4799C224.546 42.4799 224.297 42.6132 224.098 42.8799C223.202 43.9466 222.207 45.0932 221.112 46.3199C220.017 47.4932 218.872 48.6132 217.678 49.6798C217.379 49.8932 217.031 50.1332 216.633 50.3998L216.568 50.4483C216.247 50.6827 215.97 50.7998 215.737 50.7998L215.704 50.7991C215.388 50.7834 215.225 50.5334 215.215 50.0491L215.214 49.9998C215.214 49.4665 215.363 48.6932 215.662 47.6799C216.01 46.6132 216.409 45.4665 216.856 44.2399C217.354 43.0132 217.827 41.8666 218.275 40.7999C218.507 40.3915 218.636 40.2003 218.92 39.6022C219.06 39.3522 219.112 39.0315 219.118 38.8166L219.118 38.7751C219.118 38.3618 218.978 38.0235 218.698 37.7604L218.67 37.7351C218.381 37.4768 218.068 37.3436 217.732 37.3355L217.7 37.3351C217.252 37.3351 216.99 37.4686 216.503 38.0051L216.388 38.1377C215.843 38.7613 215.718 38.83 214.691 40.0799L214.485 40.3308C213.444 41.5902 212.293 42.9199 211.033 44.3199C209.689 45.8132 208.321 47.2532 206.927 48.6399L206.801 48.7641C205.504 50.0413 204.277 51.0932 203.12 51.9198L203.008 51.9986C201.865 52.7994 200.931 53.1998 200.208 53.1998V52.5085C200.726 52.5085 201.545 52.1948 202.718 51.3574C203.875 50.5308 205.116 49.4633 206.44 48.1491C207.824 46.7718 209.184 45.3413 210.519 43.8574C211.857 42.3706 213.07 40.9653 214.157 39.6412C215.239 38.324 215.393 38.2352 215.979 37.5541L215.985 37.5472L215.991 37.5404C216.247 37.2578 216.497 37.0206 216.782 36.8634C217.095 36.6915 217.395 36.6438 217.7 36.6438C218.243 36.6438 218.726 36.8577 219.131 37.2195C219.587 37.6267 219.81 38.1661 219.81 38.7751C219.81 39.0517 219.752 39.5151 219.536 39.9154C219.253 40.5118 219.105 40.7402 218.896 41.1062C218.456 42.1555 217.991 43.2827 217.502 44.4879C217.059 45.6998 216.666 46.8314 216.323 47.8831C216.03 48.8781 215.905 49.5707 215.905 49.9999C215.905 50.0173 215.906 50.0337 215.906 50.0491C215.981 50.0114 216.083 49.9502 216.212 49.8509L216.23 49.8376L216.248 49.8254C216.628 49.5708 216.96 49.3421 217.245 49.1392C218.412 48.0959 219.53 47.001 220.601 45.8543C221.687 44.6378 222.673 43.5016 223.56 42.4455C223.872 42.0393 224.31 41.7886 224.845 41.7886L224.873 41.7889C225.426 41.8004 225.815 42.1551 226.068 42.5395C226.424 42.9472 226.581 43.453 226.581 43.9999C226.581 44.5979 226.425 45.1498 226.074 45.6096C225.255 46.7595 224.191 48.0339 222.887 49.4315L222.882 49.4365L222.877 49.4413C221.571 50.7867 220.405 51.8749 219.38 52.6987L219.37 52.7071L219.359 52.715C218.679 53.2195 217.877 53.7171 216.959 54.2091L216.951 54.2132L216.944 54.2171C216.019 54.6833 215.092 54.9311 214.169 54.9311C213.414 54.9311 212.742 54.6893 212.203 54.1841L212.186 54.1684L212.17 54.1515C211.591 53.5307 211.387 52.5897 211.387 51.5198C211.387 50.6504 211.522 49.6869 211.78 48.635C211.803 48.544 211.826 48.4529 211.849 48.3615C211.044 49.2142 210.211 50.0591 209.35 50.8958C207.737 52.4618 206.168 53.7919 204.641 54.8823L204.637 54.8856C203.142 55.9349 201.732 56.5311 200.432 56.5311C198.891 56.5311 197.623 56.0524 196.761 54.997L196.747 54.9797L196.734 54.9614C195.988 53.9159 195.634 52.6481 195.634 51.1999C195.634 49.5887 196.063 47.7645 196.879 45.7411L196.881 45.7374L196.882 45.7335C197.745 43.6667 198.859 41.5526 200.22 39.3915C201.583 37.2286 203.073 35.2257 204.691 33.3838L204.691 33.3833C206.361 31.4859 208.043 29.9521 209.742 28.7931C211.449 27.5748 213.104 26.9087 214.691 26.9087C215.711 26.9087 216.704 27.0805 217.669 27.4229C218.725 27.7418 219.569 28.407 220.193 29.3754C220.901 30.3942 221.206 31.8082 221.206 33.5199C221.206 34.2105 221.03 34.8665 220.527 35.3156C220.175 35.6303 219.742 35.8912 219.246 35.8912C218.901 35.8912 218.515 35.8274 218.205 35.5852C217.879 35.3317 217.747 34.9728 217.734 34.6192C217.491 32.989 217.011 32.1354 216.472 31.7743L216.463 31.7685L216.455 31.7625C215.788 31.2866 215.205 31.0913 214.691 31.0913C213.93 31.0913 212.914 31.5084 211.612 32.5415C210.312 33.5732 208.976 34.8987 207.605 36.5255C206.232 38.1545 204.931 39.9166 203.702 41.8125C202.525 43.6515 201.574 45.4306 200.844 47.1499L200.843 47.1534L200.841 47.1569C200.111 48.8267 199.779 50.1381 199.779 51.1199C199.779 51.5736 199.841 51.9635 199.953 52.2975C200.01 52.4109 200.061 52.4584 200.087 52.4773C200.109 52.493 200.14 52.5085 200.208 52.5085V53.1998C199.81 53.1998 199.511 52.9865 199.312 52.5598C199.172 52.1598 199.098 51.713 199.089 51.2192L199.088 51.1198Z" fill="#DC1111"/>
<path d="M227.501 51.4538C226.108 51.4538 225.063 51.0283 224.366 50.1772C223.719 49.2729 223.395 48.1559 223.395 46.8261C223.395 45.3367 223.793 43.6079 224.59 41.6398C225.436 39.6185 226.531 37.544 227.875 35.4163C229.218 33.2886 230.687 31.3205 232.279 29.5119C233.922 27.6502 235.564 26.1608 237.207 25.0437C238.849 23.8735 240.367 23.2884 241.761 23.2884C242.756 23.2884 243.727 23.4746 244.672 23.8469C245.668 24.1661 246.414 24.8576 246.912 25.9214C248.156 22.8362 249.65 19.7777 251.392 16.7457C253.134 13.6605 254.925 10.8945 256.767 8.44766C258.658 6.0008 260.45 4.16566 262.142 2.94223C263.387 2.03796 264.506 1.58582 265.502 1.58582C266.298 1.58582 266.92 1.87838 267.368 2.4635C267.866 2.99542 268.115 3.81991 268.115 4.93695C268.115 7.06465 267.567 9.32534 266.472 11.719C265.427 14.1127 264.034 16.5063 262.292 18.9C260.55 21.2937 258.658 23.6341 256.618 25.9214C254.627 28.1555 252.686 30.2566 250.794 32.2247C248.903 34.1397 247.261 35.8152 245.867 37.2514C245.071 38.6876 244.299 40.3632 243.553 42.2781C242.856 44.1399 242.507 45.709 242.507 46.9857C242.507 48.4219 243.03 49.14 244.075 49.14C244.921 49.14 246.191 48.7144 247.883 47.8633C249.625 46.9591 251.317 45.7356 252.959 44.1931C253.955 43.2888 254.876 42.3313 255.722 41.3207C256.568 40.31 257.364 39.3791 258.111 38.528C258.31 38.2621 258.559 38.1291 258.857 38.1291C259.106 38.1291 259.33 38.2887 259.529 38.6078C259.778 38.8738 259.903 39.2196 259.903 39.6451C259.903 40.1238 259.778 40.5228 259.529 40.8419C258.783 41.959 257.737 43.209 256.394 44.592C255.1 45.9218 253.955 46.9857 252.959 47.7836C251.068 49.2729 249.027 50.39 246.838 51.1347C245.494 51.6134 244.299 51.8528 243.254 51.8528C240.517 51.8528 239.148 50.39 239.148 47.4644C239.148 46.241 239.397 44.858 239.894 43.3154C239.894 43.2622 239.919 43.209 239.969 43.1558C238.426 44.5388 236.833 45.8686 235.191 47.1452C233.598 48.4219 232.105 49.4591 230.712 50.257C229.318 51.0549 228.248 51.4538 227.501 51.4538ZM247.062 31.8258C247.559 31.4002 248.43 30.5492 249.675 29.2725C250.919 27.9959 252.337 26.4799 253.93 24.7246C255.572 22.916 257.19 20.9745 258.783 18.9C260.375 16.8255 261.769 14.751 262.963 12.6765C264.158 10.602 264.979 8.66043 265.427 6.85188C265.477 6.63911 265.502 6.37315 265.502 6.054C265.502 5.25611 265.203 4.85716 264.606 4.85716C263.859 4.85716 262.988 5.38909 261.993 6.45294C260.052 8.47426 258.161 10.9211 256.319 13.7935C254.527 16.6127 252.835 19.5915 251.242 22.7299C249.699 25.815 248.306 28.847 247.062 31.8258ZM227.277 48.8208C227.974 48.8208 228.87 48.4751 229.965 47.7836C231.11 47.092 232.329 46.2144 233.623 45.1505C234.917 44.0867 236.186 42.9696 237.431 41.7994C238.725 40.6292 239.87 39.5387 240.865 38.528C241.86 37.5174 242.607 36.7461 243.105 36.2142L245.344 29.4321C244.996 28.0491 244.473 27.1448 243.777 26.7193C243.08 26.2938 242.408 26.081 241.761 26.081C240.765 26.081 239.596 26.6129 238.252 27.6768C236.908 28.7406 235.539 30.097 234.146 31.746C232.752 33.395 231.433 35.1769 230.189 37.0918C228.994 38.9536 228.024 40.7621 227.277 42.5175C226.531 44.2196 226.157 45.6293 226.157 46.7463C226.157 47.2782 226.232 47.757 226.381 48.1825C226.581 48.608 226.879 48.8208 227.277 48.8208Z" fill="#DC1111"/>
<path d="M242.507 46.9857C242.507 45.709 242.856 44.1399 243.553 42.2781C244.299 40.3632 245.071 38.6876 245.867 37.2514C247.261 35.8152 248.903 34.1397 250.794 32.2247C252.686 30.2566 254.627 28.1555 256.618 25.9214C258.594 23.7056 260.431 21.4399 262.128 19.1242L262.292 18.9C264.034 16.5063 265.427 14.1127 266.472 11.719C267.55 9.36275 268.098 7.13535 268.114 5.03681L268.115 4.93695C268.115 3.81991 267.866 2.99542 267.368 2.4635C266.934 1.89667 266.337 1.60442 265.576 1.5867L265.502 1.58582C264.506 1.58582 263.387 2.03796 262.142 2.94223L262.063 3C260.394 4.22313 258.629 6.03903 256.767 8.44766L256.594 8.67798C254.813 11.0677 253.079 13.7569 251.392 16.7457C249.65 19.7777 248.156 22.8362 246.912 25.9214C246.414 24.8576 245.668 24.1661 244.672 23.8469C243.756 23.4862 242.817 23.3002 241.854 23.2889L241.761 23.2884C240.367 23.2884 238.849 23.8735 237.207 25.0437C235.564 26.1608 233.922 27.6502 232.279 29.5119C230.687 31.3205 229.218 33.2886 227.875 35.4163C226.531 37.544 225.436 39.6185 224.59 41.6398L224.516 41.8236C223.769 43.7157 223.395 45.3832 223.395 46.8261C223.395 48.1559 223.719 49.2729 224.366 50.1772C225.052 51.015 226.075 51.4405 227.436 51.4536L227.501 51.4538C228.225 51.4538 229.251 51.0794 230.582 50.3306L230.712 50.257C232.105 49.4591 233.598 48.4219 235.191 47.1452C236.833 45.8686 238.426 44.5388 239.969 43.1558C239.919 43.209 239.894 43.2622 239.894 43.3154C239.397 44.858 239.148 46.241 239.148 47.4644L239.149 47.6005C239.191 50.4128 240.538 51.8302 243.19 51.8525L243.254 51.8528C244.299 51.8528 245.494 51.6134 246.838 51.1347C248.993 50.4016 251.004 49.3078 252.871 47.8531L252.959 47.7836C253.893 47.0355 254.957 46.0537 256.153 44.8382L256.394 44.592C257.737 43.209 258.783 41.959 259.529 40.8419C259.778 40.5228 259.903 40.1238 259.903 39.6451C259.903 39.2196 259.778 38.8738 259.529 38.6078C259.33 38.2887 259.106 38.1291 258.857 38.1291C258.559 38.1291 258.31 38.2621 258.111 38.528C257.364 39.3791 256.568 40.31 255.722 41.3207L255.642 41.4152C254.818 42.3911 253.924 43.317 252.959 44.1931L252.805 44.3368C251.211 45.8118 249.57 46.9873 247.883 47.8633C246.191 48.7144 244.921 49.14 244.075 49.14L244.075 48.4487C244.743 48.4487 245.882 48.095 247.566 47.2488C249.243 46.3779 250.884 45.194 252.486 43.6891L252.49 43.6852L252.495 43.6814C253.467 42.7978 254.366 41.863 255.192 40.8769C256.035 39.8696 256.83 38.9403 257.576 38.0893C257.888 37.686 258.325 37.4378 258.857 37.4378L258.885 37.4381C259.437 37.4495 259.826 37.8029 260.08 38.1867C260.436 38.5936 260.594 39.0988 260.594 39.6451C260.594 40.2387 260.44 40.7868 260.092 41.2441C259.315 42.4026 258.244 43.6797 256.889 45.0738L256.889 45.0741C255.583 46.416 254.417 47.5013 253.392 48.323L253.389 48.3248L253.387 48.3267C251.439 49.8604 249.333 51.0149 247.069 51.7858C245.676 52.2821 244.401 52.5441 243.254 52.5441C241.767 52.5441 240.527 52.1445 239.67 51.228C238.82 50.3202 238.457 49.0227 238.457 47.4644C238.457 46.7477 238.536 45.9889 238.691 45.1892C237.687 46.0436 236.663 46.8768 235.618 47.6885C234.007 48.9801 232.485 50.038 231.055 50.8569C229.652 51.6605 228.444 52.1451 227.501 52.1451C225.961 52.1451 224.693 51.668 223.831 50.6152L223.817 50.5977L223.804 50.5795C223.057 49.5364 222.704 48.2712 222.704 46.8261C222.704 45.2186 223.132 43.3987 223.949 41.3805L223.95 41.3767L223.952 41.3729C224.815 39.3113 225.929 37.2027 227.29 35.0471C228.653 32.8898 230.143 30.8922 231.761 29.055L231.761 29.0545C233.431 27.1614 235.115 25.6313 236.814 24.4751C238.52 23.2608 240.175 22.5971 241.761 22.5971C242.838 22.5971 243.887 22.7976 244.905 23.1956C245.653 23.4397 246.277 23.8606 246.778 24.439C247.927 21.7394 249.264 19.0617 250.79 16.4058C252.544 13.2983 254.352 10.5064 256.215 8.03198L256.217 8.02841L256.22 8.0249C258.104 5.58697 259.915 3.7172 261.654 2.44224L261.737 2.38202C263.039 1.43633 264.301 0.894531 265.502 0.894531C266.482 0.894538 267.307 1.26333 267.896 2.01667C268.547 2.72927 268.806 3.74946 268.806 4.93697C268.806 7.1837 268.228 9.54175 267.102 12.0038C266.035 14.4463 264.616 16.8806 262.851 19.3068C261.095 21.7195 259.189 24.0776 257.134 26.3813L257.134 26.3813C255.138 28.6213 253.191 30.7288 251.293 32.7037L251.29 32.7071L251.286 32.7105C249.425 34.595 247.805 36.247 246.427 37.6666C245.665 39.0516 244.922 40.6703 244.198 42.526C243.517 44.346 243.199 45.8259 243.199 46.9857C243.199 47.6405 243.322 48.0067 243.458 48.1946C243.565 48.3418 243.729 48.4487 244.075 48.4487L244.075 49.14C243.046 49.14 242.524 48.4441 242.508 47.0524L242.507 46.9857ZM226.157 46.7463C226.157 45.6293 226.531 44.2196 227.277 42.5175C228.024 40.7621 228.994 38.9536 230.189 37.0918C231.394 35.2368 232.67 33.5065 234.015 31.901L234.146 31.746C235.539 30.097 236.908 28.7406 238.252 27.6768C239.596 26.6129 240.765 26.081 241.761 26.081L241.822 26.0816C242.45 26.0945 243.102 26.3071 243.777 26.7193C244.473 27.1448 244.996 28.0491 245.344 29.4321L243.105 36.2142C242.607 36.7461 241.86 37.5174 240.865 38.528C239.87 39.5387 238.725 40.6292 237.431 41.7994L237.197 42.0182C236.028 43.109 234.836 44.1532 233.623 45.1505C232.329 46.2144 231.11 47.092 229.965 47.7836L229.863 47.8474C228.814 48.4963 227.952 48.8208 227.277 48.8208V48.1295C227.773 48.1295 228.531 47.8718 229.596 47.1991L229.602 47.1954L229.608 47.1918C230.718 46.5213 231.91 45.6642 233.184 44.6165C234.466 43.5626 235.724 42.4557 236.957 41.2958L236.962 41.2912L236.967 41.2866C238.253 40.1234 239.388 39.0423 240.372 38.043C241.299 37.1019 242.006 36.3721 242.496 35.852L244.624 29.41C244.294 28.2066 243.855 27.5771 243.416 27.3093C242.8 26.9328 242.251 26.7723 241.761 26.7723C240.999 26.7723 239.982 27.1886 238.681 28.2188C237.381 29.2478 236.045 30.5698 234.674 32.1922C233.3 33.8179 231.998 35.5765 230.769 37.4685C229.593 39.3014 228.642 41.0746 227.913 42.788L227.912 42.7916L227.91 42.7952C227.18 44.4604 226.849 45.7679 226.849 46.7463C226.849 47.1985 226.91 47.587 227.022 47.9197C227.079 48.0323 227.129 48.0794 227.156 48.0982C227.178 48.1139 227.209 48.1295 227.277 48.1295V48.8208L227.24 48.8202C226.861 48.8073 226.574 48.5947 226.381 48.1825C226.241 47.7836 226.167 47.3378 226.158 46.8454L226.157 46.7463ZM264.811 6.05397C264.811 5.72131 264.745 5.59775 264.724 5.57061C264.719 5.56374 264.719 5.56451 264.717 5.56345C264.71 5.5606 264.679 5.54847 264.606 5.54846C264.168 5.54846 263.473 5.88318 262.498 6.92524L262.495 6.92855L262.492 6.93179C260.588 8.91402 258.724 11.3229 256.902 14.1642L256.902 14.1643C255.124 16.9627 253.443 19.9208 251.861 23.039C250.875 25.0092 249.951 26.9572 249.089 28.8827C249.119 28.852 249.149 28.8212 249.179 28.79C250.417 27.5209 251.829 26.0112 253.418 24.2601L253.418 24.2599C255.047 22.4663 256.652 20.5395 258.234 18.479C259.81 16.4265 261.186 14.3773 262.364 12.3315C263.534 10.2997 264.326 8.42002 264.755 6.69024C264.788 6.5469 264.811 6.33925 264.811 6.05397ZM265.502 6.11324C265.499 6.40619 265.474 6.65242 265.427 6.85188C264.979 8.66043 264.158 10.602 262.963 12.6765C261.769 14.751 260.375 16.8255 258.783 18.9L258.633 19.0941C257.089 21.0957 255.521 22.9725 253.93 24.7246L253.633 25.0509C252.161 26.6685 250.841 28.0757 249.675 29.2725L249.446 29.5069C248.323 30.6539 247.528 31.4268 247.062 31.8258C248.306 28.847 249.699 25.815 251.242 22.7299C252.835 19.5915 254.527 16.6127 256.319 13.7935C258.103 11.0109 259.934 8.62758 261.811 6.64366L261.993 6.45294C262.988 5.38909 263.859 4.85716 264.606 4.85716L264.634 4.85744C265.212 4.8697 265.502 5.26858 265.502 6.054L265.502 6.11324Z" fill="#DC1111"/>
<path d="M261.85 51.5809C262.826 50.9822 264.103 51.2884 264.702 52.2648C265.301 53.2412 264.994 54.5182 264.018 55.1169C232.683 74.3301 187.436 80.0014 147.704 80.3767C107.905 80.7526 73.1925 75.8126 62.6103 73.4721L63.506 69.4222C73.7517 71.6883 108.148 76.6024 147.665 76.2291C187.249 75.8552 231.526 70.174 261.85 51.5809Z" fill="#DC1111"/>
</svg>
